%TF.GenerationSoftware,KiCad,Pcbnew,(5.1.9)-1*%
%TF.CreationDate,2021-01-10T22:28:58+11:00*%
%TF.ProjectId,pcb-covox-amp,7063622d-636f-4766-9f78-2d616d702e6b,3*%
%TF.SameCoordinates,Original*%
%TF.FileFunction,Copper,L2,Bot*%
%TF.FilePolarity,Positive*%
%FSLAX46Y46*%
G04 Gerber Fmt 4.6, Leading zero omitted, Abs format (unit mm)*
G04 Created by KiCad (PCBNEW (5.1.9)-1) date 2021-01-10 22:28:58*
%MOMM*%
%LPD*%
G01*
G04 APERTURE LIST*
%TA.AperFunction,ComponentPad*%
%ADD10C,3.810000*%
%TD*%
%TA.AperFunction,ComponentPad*%
%ADD11C,1.524000*%
%TD*%
%TA.AperFunction,ComponentPad*%
%ADD12R,1.524000X1.524000*%
%TD*%
%TA.AperFunction,ComponentPad*%
%ADD13C,2.181860*%
%TD*%
%TA.AperFunction,ComponentPad*%
%ADD14C,1.800000*%
%TD*%
%TA.AperFunction,ComponentPad*%
%ADD15C,6.400000*%
%TD*%
%TA.AperFunction,ComponentPad*%
%ADD16C,0.800000*%
%TD*%
%TA.AperFunction,SMDPad,CuDef*%
%ADD17R,3.480000X1.846667*%
%TD*%
%TA.AperFunction,ComponentPad*%
%ADD18R,1.700000X1.700000*%
%TD*%
%TA.AperFunction,ComponentPad*%
%ADD19O,1.700000X1.700000*%
%TD*%
%TA.AperFunction,ComponentPad*%
%ADD20O,0.950000X1.250000*%
%TD*%
%TA.AperFunction,ComponentPad*%
%ADD21O,1.550000X1.000000*%
%TD*%
%TA.AperFunction,ViaPad*%
%ADD22C,0.800000*%
%TD*%
%TA.AperFunction,Conductor*%
%ADD23C,0.250000*%
%TD*%
%TA.AperFunction,Conductor*%
%ADD24C,0.500000*%
%TD*%
%TA.AperFunction,Conductor*%
%ADD25C,0.254000*%
%TD*%
%TA.AperFunction,Conductor*%
%ADD26C,0.100000*%
%TD*%
G04 APERTURE END LIST*
D10*
%TO.P,J1,*%
%TO.N,*%
X110160000Y-91835000D03*
X110160000Y-138825000D03*
D11*
%TO.P,J1,13*%
%TO.N,Net-(J1-Pad13)*%
X111700000Y-131840000D03*
%TO.P,J1,12*%
%TO.N,Net-(J1-Pad12)*%
X111700000Y-129046000D03*
%TO.P,J1,11*%
%TO.N,Net-(J1-Pad11)*%
X111700000Y-126379000D03*
%TO.P,J1,10*%
%TO.N,Net-(J1-Pad10)*%
X111700000Y-123585000D03*
%TO.P,J1,9*%
%TO.N,Data7*%
X111700000Y-120791000D03*
%TO.P,J1,8*%
%TO.N,Data6*%
X111700000Y-117997000D03*
%TO.P,J1,7*%
%TO.N,Data5*%
X111700000Y-115330000D03*
%TO.P,J1,6*%
%TO.N,Data4*%
X111700000Y-112536000D03*
%TO.P,J1,5*%
%TO.N,Data3*%
X111700000Y-109742000D03*
%TO.P,J1,4*%
%TO.N,Data2*%
X111700000Y-106948000D03*
%TO.P,J1,3*%
%TO.N,Data1*%
X111700000Y-104281000D03*
%TO.P,J1,2*%
%TO.N,Data0*%
X111700000Y-101487000D03*
D12*
%TO.P,J1,1*%
%TO.N,Net-(J1-Pad1)*%
X111700000Y-98693000D03*
D11*
%TO.P,J1,25*%
%TO.N,GND*%
X109160000Y-130265200D03*
%TO.P,J1,24*%
X109160000Y-127725200D03*
%TO.P,J1,23*%
X109160000Y-124931200D03*
%TO.P,J1,22*%
X109160000Y-122188000D03*
%TO.P,J1,21*%
X109160000Y-119444800D03*
%TO.P,J1,20*%
X109160000Y-116650800D03*
%TO.P,J1,19*%
X109160000Y-113907600D03*
%TO.P,J1,18*%
X109160000Y-111164400D03*
%TO.P,J1,17*%
%TO.N,Net-(J1-Pad17)*%
X109160000Y-108319600D03*
%TO.P,J1,16*%
%TO.N,Net-(J1-Pad16)*%
X109160000Y-105627200D03*
%TO.P,J1,15*%
%TO.N,Net-(J1-Pad15)*%
X109160000Y-102884000D03*
%TO.P,J1,14*%
%TO.N,Net-(J1-Pad14)*%
X109160000Y-100090000D03*
%TD*%
D13*
%TO.P,X1,P$5*%
%TO.N,Net-(JP1-Pad2)*%
X158427620Y-130349020D03*
%TO.P,X1,P$4*%
X158427620Y-123351320D03*
%TO.P,X1,P$3*%
X150431700Y-124052360D03*
%TO.P,X1,P$2*%
%TO.N,GND*%
X150431700Y-129647980D03*
%TO.P,X1,P$1*%
%TO.N,Net-(X1-PadP$1)*%
X149730660Y-126848900D03*
%TD*%
D14*
%TO.P,RV2,3*%
%TO.N,Net-(C10-Pad1)*%
X158420000Y-102710000D03*
%TO.P,RV2,2*%
%TO.N,Gain1*%
X158420000Y-105210000D03*
%TO.P,RV2,1*%
%TO.N,Net-(RV2-Pad1)*%
X158420000Y-107710000D03*
%TD*%
D15*
%TO.P,MH3,1*%
%TO.N,GND*%
X119050000Y-138190000D03*
D16*
X121450000Y-138190000D03*
X120747056Y-139887056D03*
X119050000Y-140590000D03*
X117352944Y-139887056D03*
X116650000Y-138190000D03*
X117352944Y-136492944D03*
X119050000Y-135790000D03*
X120747056Y-136492944D03*
%TD*%
D15*
%TO.P,MH4,1*%
%TO.N,GND*%
X119050000Y-92470000D03*
D16*
X121450000Y-92470000D03*
X120747056Y-94167056D03*
X119050000Y-94870000D03*
X117352944Y-94167056D03*
X116650000Y-92470000D03*
X117352944Y-90772944D03*
X119050000Y-90070000D03*
X120747056Y-90772944D03*
%TD*%
D15*
%TO.P,MH2,1*%
%TO.N,GND*%
X144450000Y-138190000D03*
D16*
X146850000Y-138190000D03*
X146147056Y-139887056D03*
X144450000Y-140590000D03*
X142752944Y-139887056D03*
X142050000Y-138190000D03*
X142752944Y-136492944D03*
X144450000Y-135790000D03*
X146147056Y-136492944D03*
%TD*%
D15*
%TO.P,MH1,1*%
%TO.N,GND*%
X144450000Y-92470000D03*
D16*
X146850000Y-92470000D03*
X146147056Y-94167056D03*
X144450000Y-94870000D03*
X142752944Y-94167056D03*
X142050000Y-92470000D03*
X142752944Y-90772944D03*
X144450000Y-90070000D03*
X146147056Y-90772944D03*
%TD*%
D17*
%TO.P,J2,14*%
%TO.N,Net-(J2-Pad14)*%
X102540000Y-100095000D03*
%TO.P,J2,15*%
%TO.N,Net-(J2-Pad15)*%
X102540000Y-102865000D03*
%TO.P,J2,16*%
%TO.N,Net-(J2-Pad16)*%
X102540000Y-105635000D03*
%TO.P,J2,17*%
%TO.N,Net-(J2-Pad17)*%
X102540000Y-108405000D03*
%TO.P,J2,18*%
%TO.N,GND*%
X102540000Y-111175000D03*
%TO.P,J2,19*%
X102540000Y-113945000D03*
%TO.P,J2,20*%
X102540000Y-116715000D03*
%TO.P,J2,21*%
X102540000Y-119485000D03*
%TO.P,J2,22*%
X102540000Y-122255000D03*
%TO.P,J2,23*%
X102540000Y-125025000D03*
%TO.P,J2,24*%
X102540000Y-127795000D03*
%TO.P,J2,25*%
X102540000Y-130565000D03*
%TD*%
D14*
%TO.P,RV3,3*%
%TO.N,Gain1*%
X158420000Y-91280000D03*
%TO.P,RV3,2*%
%TO.N,Net-(C11-Pad2)*%
X158420000Y-93780000D03*
%TO.P,RV3,1*%
%TO.N,Net-(RV3-Pad1)*%
X158420000Y-96280000D03*
%TD*%
%TO.P,RV1,3*%
%TO.N,Source-Audio*%
X158420000Y-114140000D03*
%TO.P,RV1,2*%
%TO.N,Input+*%
X158420000Y-116640000D03*
%TO.P,RV1,1*%
%TO.N,GND*%
X158420000Y-119140000D03*
%TD*%
D18*
%TO.P,JP1,1*%
%TO.N,Amp-Audio*%
X145720000Y-121680000D03*
D19*
%TO.P,JP1,2*%
%TO.N,Net-(JP1-Pad2)*%
X145720000Y-124220000D03*
%TO.P,JP1,3*%
%TO.N,Source-Audio*%
X145720000Y-126760000D03*
%TD*%
D20*
%TO.P,P1,6*%
%TO.N,Net-(C12-Pad2)*%
X156857460Y-139420900D03*
X156857460Y-134420900D03*
D21*
X159557460Y-140420900D03*
X159557460Y-133420900D03*
%TD*%
D22*
%TO.N,GND*%
X155245000Y-99455000D03*
X106477000Y-102884000D03*
X106477000Y-105678000D03*
X106477000Y-108345000D03*
X114478000Y-102884000D03*
X114478000Y-105678000D03*
X114478000Y-108345000D03*
X114478000Y-111266000D03*
X114478000Y-113806000D03*
X114478000Y-116600000D03*
X114478000Y-119521000D03*
X133528000Y-128665000D03*
%TO.N,Input+*%
X126924000Y-127395000D03*
%TO.N,Source-Audio*%
X122987000Y-123585000D03*
%TO.N,Net-(C11-Pad2)*%
X140386000Y-121553000D03*
%TO.N,Gain1*%
X126924000Y-124855000D03*
%TO.N,Net-(D1-Pad2)*%
X121717000Y-131840000D03*
X134290000Y-131840000D03*
%TD*%
D23*
%TO.N,Input+*%
X126924000Y-127395000D02*
X141402000Y-127395000D01*
X158380000Y-116600000D02*
X158420000Y-116640000D01*
X144958000Y-116600000D02*
X158380000Y-116600000D01*
X141402000Y-127395000D02*
X143815000Y-124982000D01*
X143815000Y-124982000D02*
X143815000Y-117743000D01*
X143815000Y-117743000D02*
X144958000Y-116600000D01*
%TO.N,Source-Audio*%
X145720000Y-128919000D02*
X145720000Y-127649000D01*
X145720000Y-127649000D02*
X145720000Y-126760000D01*
X144958000Y-129681000D02*
X145720000Y-128919000D01*
X125400000Y-129681000D02*
X144958000Y-129681000D01*
X124638000Y-128919000D02*
X125400000Y-129681000D01*
X124638000Y-124093000D02*
X124638000Y-128919000D01*
X124130000Y-123585000D02*
X124638000Y-124093000D01*
X122987000Y-123585000D02*
X124130000Y-123585000D01*
X160706000Y-116426000D02*
X158420000Y-114140000D01*
X159436000Y-120918000D02*
X160706000Y-119648000D01*
X160706000Y-119648000D02*
X160706000Y-116426000D01*
X148006000Y-122569000D02*
X149657000Y-120918000D01*
X148006000Y-125744000D02*
X148006000Y-122569000D01*
X146990000Y-126760000D02*
X148006000Y-125744000D01*
X149657000Y-120918000D02*
X159436000Y-120918000D01*
X145720000Y-126760000D02*
X146990000Y-126760000D01*
%TO.N,Net-(C11-Pad2)*%
X140386000Y-121553000D02*
X140386000Y-116600000D01*
X140386000Y-116600000D02*
X144069000Y-112917000D01*
X144069000Y-112917000D02*
X150800000Y-112917000D01*
X150800000Y-112917000D02*
X152197000Y-111520000D01*
X152197000Y-111520000D02*
X152197000Y-95645000D01*
X154062000Y-93780000D02*
X158420000Y-93780000D01*
X152197000Y-95645000D02*
X154062000Y-93780000D01*
%TO.N,Gain1*%
X154229000Y-106440000D02*
X155459000Y-105210000D01*
X155459000Y-105210000D02*
X158420000Y-105210000D01*
X152070000Y-114949000D02*
X154229000Y-112790000D01*
X144323000Y-114949000D02*
X152070000Y-114949000D01*
X154229000Y-112790000D02*
X154229000Y-106440000D01*
X142100500Y-117171500D02*
X144323000Y-114949000D01*
X142100500Y-123140500D02*
X142100500Y-117171500D01*
X140386000Y-124855000D02*
X142100500Y-123140500D01*
X126924000Y-124855000D02*
X140386000Y-124855000D01*
X158420000Y-105210000D02*
X159650000Y-105210000D01*
X159650000Y-105210000D02*
X160706000Y-104154000D01*
X160706000Y-92376000D02*
X159610000Y-91280000D01*
X160706000Y-104154000D02*
X160706000Y-92376000D01*
X159610000Y-91280000D02*
X158420000Y-91280000D01*
%TO.N,Net-(D1-Pad2)*%
X121717000Y-131840000D02*
X134290000Y-131840000D01*
D24*
%TO.N,Net-(C12-Pad2)*%
X156857460Y-136754460D02*
X156857460Y-139420900D01*
X156857460Y-134420900D02*
X156857460Y-136754460D01*
X159557460Y-133420900D02*
X159557460Y-136671540D01*
X159557460Y-140420900D02*
X159557460Y-136671540D01*
X159474540Y-136754460D02*
X159557460Y-136671540D01*
X156857460Y-136754460D02*
X159474540Y-136754460D01*
%TD*%
D25*
%TO.N,GND*%
X109419109Y-89392611D02*
X108956859Y-89584081D01*
X108540844Y-89862053D01*
X108187053Y-90215844D01*
X107909081Y-90631859D01*
X107717611Y-91094109D01*
X107620000Y-91584832D01*
X107620000Y-92085168D01*
X107717611Y-92575891D01*
X107909081Y-93038141D01*
X108187053Y-93454156D01*
X108540844Y-93807947D01*
X108956859Y-94085919D01*
X109419109Y-94277389D01*
X109909832Y-94375000D01*
X110410168Y-94375000D01*
X110900891Y-94277389D01*
X111363141Y-94085919D01*
X111779156Y-93807947D01*
X112132947Y-93454156D01*
X112410919Y-93038141D01*
X112602389Y-92575891D01*
X112700000Y-92085168D01*
X112700000Y-91584832D01*
X112602389Y-91094109D01*
X112410919Y-90631859D01*
X112132947Y-90215844D01*
X111779156Y-89862053D01*
X111363141Y-89584081D01*
X110900891Y-89392611D01*
X110787218Y-89370000D01*
X161520000Y-89370000D01*
X161520001Y-141290000D01*
X160562569Y-141290000D01*
X160638909Y-141227349D01*
X160780744Y-141054523D01*
X160886136Y-140857347D01*
X160951037Y-140643399D01*
X160972951Y-140420900D01*
X160951037Y-140198401D01*
X160886136Y-139984453D01*
X160780744Y-139787277D01*
X160638909Y-139614451D01*
X160466083Y-139472616D01*
X160442460Y-139459989D01*
X160442460Y-136715009D01*
X160446741Y-136671540D01*
X160442460Y-136628071D01*
X160442460Y-134381811D01*
X160466083Y-134369184D01*
X160638909Y-134227349D01*
X160780744Y-134054523D01*
X160886136Y-133857347D01*
X160951037Y-133643399D01*
X160972951Y-133420900D01*
X160951037Y-133198401D01*
X160886136Y-132984453D01*
X160780744Y-132787277D01*
X160638909Y-132614451D01*
X160466083Y-132472616D01*
X160268907Y-132367224D01*
X160054959Y-132302323D01*
X159888212Y-132285900D01*
X159226708Y-132285900D01*
X159059961Y-132302323D01*
X158846013Y-132367224D01*
X158648837Y-132472616D01*
X158476011Y-132614451D01*
X158334176Y-132787277D01*
X158228784Y-132984453D01*
X158163883Y-133198401D01*
X158141969Y-133420900D01*
X158163883Y-133643399D01*
X158228784Y-133857347D01*
X158334176Y-134054523D01*
X158476011Y-134227349D01*
X158648837Y-134369184D01*
X158672460Y-134381811D01*
X158672461Y-135869460D01*
X157742460Y-135869460D01*
X157742460Y-135242226D01*
X157784856Y-135190566D01*
X157887928Y-134997734D01*
X157951398Y-134788498D01*
X157967460Y-134625421D01*
X157967460Y-134216380D01*
X157951398Y-134053303D01*
X157887928Y-133844067D01*
X157784856Y-133651234D01*
X157646146Y-133482214D01*
X157477126Y-133343504D01*
X157284294Y-133240432D01*
X157075058Y-133176962D01*
X156857460Y-133155530D01*
X156639863Y-133176962D01*
X156430627Y-133240432D01*
X156237795Y-133343504D01*
X156068775Y-133482214D01*
X155930064Y-133651234D01*
X155826992Y-133844066D01*
X155763522Y-134053302D01*
X155747460Y-134216379D01*
X155747460Y-134625420D01*
X155763522Y-134788497D01*
X155826992Y-134997733D01*
X155930064Y-135190566D01*
X155972460Y-135242227D01*
X155972461Y-136710974D01*
X155968178Y-136754460D01*
X155972460Y-136797937D01*
X155972461Y-138599573D01*
X155930064Y-138651234D01*
X155826992Y-138844066D01*
X155763522Y-139053302D01*
X155747460Y-139216379D01*
X155747460Y-139625420D01*
X155763522Y-139788497D01*
X155826992Y-139997733D01*
X155930064Y-140190566D01*
X156068774Y-140359586D01*
X156237794Y-140498296D01*
X156430626Y-140601368D01*
X156639862Y-140664838D01*
X156857460Y-140686270D01*
X157075057Y-140664838D01*
X157284293Y-140601368D01*
X157477126Y-140498296D01*
X157646146Y-140359586D01*
X157784856Y-140190566D01*
X157887928Y-139997734D01*
X157951398Y-139788498D01*
X157967460Y-139625421D01*
X157967460Y-139216380D01*
X157951398Y-139053303D01*
X157887928Y-138844067D01*
X157784856Y-138651234D01*
X157742460Y-138599574D01*
X157742460Y-137639460D01*
X158672461Y-137639460D01*
X158672460Y-139459989D01*
X158648837Y-139472616D01*
X158476011Y-139614451D01*
X158334176Y-139787277D01*
X158228784Y-139984453D01*
X158163883Y-140198401D01*
X158141969Y-140420900D01*
X158163883Y-140643399D01*
X158228784Y-140857347D01*
X158334176Y-141054523D01*
X158476011Y-141227349D01*
X158552351Y-141290000D01*
X110787218Y-141290000D01*
X110900891Y-141267389D01*
X111363141Y-141075919D01*
X111779156Y-140797947D01*
X112132947Y-140444156D01*
X112410919Y-140028141D01*
X112602389Y-139565891D01*
X112700000Y-139075168D01*
X112700000Y-138574832D01*
X112602389Y-138084109D01*
X112410919Y-137621859D01*
X112132947Y-137205844D01*
X111779156Y-136852053D01*
X111363141Y-136574081D01*
X110900891Y-136382611D01*
X110410168Y-136285000D01*
X109909832Y-136285000D01*
X109419109Y-136382611D01*
X108956859Y-136574081D01*
X108540844Y-136852053D01*
X108187053Y-137205844D01*
X107909081Y-137621859D01*
X107717611Y-138084109D01*
X107620000Y-138574832D01*
X107620000Y-139075168D01*
X107717611Y-139565891D01*
X107909081Y-140028141D01*
X108187053Y-140444156D01*
X108540844Y-140797947D01*
X108956859Y-141075919D01*
X109419109Y-141267389D01*
X109532782Y-141290000D01*
X100710000Y-141290000D01*
X100710000Y-109957541D01*
X100800000Y-109966405D01*
X104280000Y-109966405D01*
X104404482Y-109954145D01*
X104524180Y-109917835D01*
X104634494Y-109858870D01*
X104731185Y-109779518D01*
X104810537Y-109682827D01*
X104869502Y-109572513D01*
X104905812Y-109452815D01*
X104918072Y-109328333D01*
X104918072Y-107481667D01*
X104905812Y-107357185D01*
X104869502Y-107237487D01*
X104810537Y-107127173D01*
X104731185Y-107030482D01*
X104718413Y-107020000D01*
X104731185Y-107009518D01*
X104810537Y-106912827D01*
X104869502Y-106802513D01*
X104905812Y-106682815D01*
X104918072Y-106558333D01*
X104918072Y-104711667D01*
X104905812Y-104587185D01*
X104869502Y-104467487D01*
X104810537Y-104357173D01*
X104731185Y-104260482D01*
X104718413Y-104250000D01*
X104731185Y-104239518D01*
X104810537Y-104142827D01*
X104869502Y-104032513D01*
X104905812Y-103912815D01*
X104918072Y-103788333D01*
X104918072Y-101941667D01*
X104905812Y-101817185D01*
X104869502Y-101697487D01*
X104810537Y-101587173D01*
X104731185Y-101490482D01*
X104718413Y-101480000D01*
X104731185Y-101469518D01*
X104810537Y-101372827D01*
X104869502Y-101262513D01*
X104905812Y-101142815D01*
X104918072Y-101018333D01*
X104918072Y-99952408D01*
X107763000Y-99952408D01*
X107763000Y-100227592D01*
X107816686Y-100497490D01*
X107921995Y-100751727D01*
X108074880Y-100980535D01*
X108269465Y-101175120D01*
X108498273Y-101328005D01*
X108752510Y-101433314D01*
X109022408Y-101487000D01*
X108752510Y-101540686D01*
X108498273Y-101645995D01*
X108269465Y-101798880D01*
X108074880Y-101993465D01*
X107921995Y-102222273D01*
X107816686Y-102476510D01*
X107763000Y-102746408D01*
X107763000Y-103021592D01*
X107816686Y-103291490D01*
X107921995Y-103545727D01*
X108074880Y-103774535D01*
X108269465Y-103969120D01*
X108498273Y-104122005D01*
X108752510Y-104227314D01*
X108894713Y-104255600D01*
X108752510Y-104283886D01*
X108498273Y-104389195D01*
X108269465Y-104542080D01*
X108074880Y-104736665D01*
X107921995Y-104965473D01*
X107816686Y-105219710D01*
X107763000Y-105489608D01*
X107763000Y-105764792D01*
X107816686Y-106034690D01*
X107921995Y-106288927D01*
X108074880Y-106517735D01*
X108269465Y-106712320D01*
X108498273Y-106865205D01*
X108752510Y-106970514D01*
X108767019Y-106973400D01*
X108752510Y-106976286D01*
X108498273Y-107081595D01*
X108269465Y-107234480D01*
X108074880Y-107429065D01*
X107921995Y-107657873D01*
X107816686Y-107912110D01*
X107763000Y-108182008D01*
X107763000Y-108457192D01*
X107816686Y-108727090D01*
X107921995Y-108981327D01*
X108074880Y-109210135D01*
X108269465Y-109404720D01*
X108498273Y-109557605D01*
X108752510Y-109662914D01*
X109022408Y-109716600D01*
X109297592Y-109716600D01*
X109567490Y-109662914D01*
X109821727Y-109557605D01*
X110050535Y-109404720D01*
X110245120Y-109210135D01*
X110398005Y-108981327D01*
X110503314Y-108727090D01*
X110557000Y-108457192D01*
X110557000Y-108182008D01*
X110503314Y-107912110D01*
X110398005Y-107657873D01*
X110245120Y-107429065D01*
X110050535Y-107234480D01*
X109821727Y-107081595D01*
X109567490Y-106976286D01*
X109552981Y-106973400D01*
X109567490Y-106970514D01*
X109821727Y-106865205D01*
X110050535Y-106712320D01*
X110245120Y-106517735D01*
X110398005Y-106288927D01*
X110503314Y-106034690D01*
X110557000Y-105764792D01*
X110557000Y-105489608D01*
X110503314Y-105219710D01*
X110398005Y-104965473D01*
X110245120Y-104736665D01*
X110050535Y-104542080D01*
X109821727Y-104389195D01*
X109567490Y-104283886D01*
X109425287Y-104255600D01*
X109567490Y-104227314D01*
X109821727Y-104122005D01*
X110050535Y-103969120D01*
X110245120Y-103774535D01*
X110398005Y-103545727D01*
X110503314Y-103291490D01*
X110557000Y-103021592D01*
X110557000Y-102746408D01*
X110503314Y-102476510D01*
X110398005Y-102222273D01*
X110245120Y-101993465D01*
X110050535Y-101798880D01*
X109821727Y-101645995D01*
X109567490Y-101540686D01*
X109297592Y-101487000D01*
X109567490Y-101433314D01*
X109821727Y-101328005D01*
X110050535Y-101175120D01*
X110245120Y-100980535D01*
X110398005Y-100751727D01*
X110503314Y-100497490D01*
X110557000Y-100227592D01*
X110557000Y-99963784D01*
X110583506Y-99985537D01*
X110693820Y-100044502D01*
X110813518Y-100080812D01*
X110938000Y-100093072D01*
X111546964Y-100093072D01*
X111292510Y-100143686D01*
X111038273Y-100248995D01*
X110809465Y-100401880D01*
X110614880Y-100596465D01*
X110461995Y-100825273D01*
X110356686Y-101079510D01*
X110303000Y-101349408D01*
X110303000Y-101624592D01*
X110356686Y-101894490D01*
X110461995Y-102148727D01*
X110614880Y-102377535D01*
X110809465Y-102572120D01*
X111038273Y-102725005D01*
X111292510Y-102830314D01*
X111562408Y-102884000D01*
X111292510Y-102937686D01*
X111038273Y-103042995D01*
X110809465Y-103195880D01*
X110614880Y-103390465D01*
X110461995Y-103619273D01*
X110356686Y-103873510D01*
X110303000Y-104143408D01*
X110303000Y-104418592D01*
X110356686Y-104688490D01*
X110461995Y-104942727D01*
X110614880Y-105171535D01*
X110809465Y-105366120D01*
X111038273Y-105519005D01*
X111268817Y-105614500D01*
X111038273Y-105709995D01*
X110809465Y-105862880D01*
X110614880Y-106057465D01*
X110461995Y-106286273D01*
X110356686Y-106540510D01*
X110303000Y-106810408D01*
X110303000Y-107085592D01*
X110356686Y-107355490D01*
X110461995Y-107609727D01*
X110614880Y-107838535D01*
X110809465Y-108033120D01*
X111038273Y-108186005D01*
X111292510Y-108291314D01*
X111562408Y-108345000D01*
X111292510Y-108398686D01*
X111038273Y-108503995D01*
X110809465Y-108656880D01*
X110614880Y-108851465D01*
X110461995Y-109080273D01*
X110356686Y-109334510D01*
X110303000Y-109604408D01*
X110303000Y-109879592D01*
X110356686Y-110149490D01*
X110461995Y-110403727D01*
X110614880Y-110632535D01*
X110809465Y-110827120D01*
X111038273Y-110980005D01*
X111292510Y-111085314D01*
X111562408Y-111139000D01*
X111292510Y-111192686D01*
X111038273Y-111297995D01*
X110809465Y-111450880D01*
X110614880Y-111645465D01*
X110461995Y-111874273D01*
X110356686Y-112128510D01*
X110303000Y-112398408D01*
X110303000Y-112673592D01*
X110356686Y-112943490D01*
X110461995Y-113197727D01*
X110614880Y-113426535D01*
X110809465Y-113621120D01*
X111038273Y-113774005D01*
X111292510Y-113879314D01*
X111562408Y-113933000D01*
X111292510Y-113986686D01*
X111038273Y-114091995D01*
X110809465Y-114244880D01*
X110614880Y-114439465D01*
X110461995Y-114668273D01*
X110356686Y-114922510D01*
X110303000Y-115192408D01*
X110303000Y-115467592D01*
X110356686Y-115737490D01*
X110461995Y-115991727D01*
X110614880Y-116220535D01*
X110809465Y-116415120D01*
X111038273Y-116568005D01*
X111268817Y-116663500D01*
X111038273Y-116758995D01*
X110809465Y-116911880D01*
X110614880Y-117106465D01*
X110461995Y-117335273D01*
X110356686Y-117589510D01*
X110303000Y-117859408D01*
X110303000Y-118134592D01*
X110356686Y-118404490D01*
X110461995Y-118658727D01*
X110614880Y-118887535D01*
X110809465Y-119082120D01*
X111038273Y-119235005D01*
X111292510Y-119340314D01*
X111562408Y-119394000D01*
X111292510Y-119447686D01*
X111038273Y-119552995D01*
X110809465Y-119705880D01*
X110614880Y-119900465D01*
X110461995Y-120129273D01*
X110356686Y-120383510D01*
X110303000Y-120653408D01*
X110303000Y-120928592D01*
X110356686Y-121198490D01*
X110461995Y-121452727D01*
X110614880Y-121681535D01*
X110809465Y-121876120D01*
X111038273Y-122029005D01*
X111292510Y-122134314D01*
X111562408Y-122188000D01*
X111292510Y-122241686D01*
X111038273Y-122346995D01*
X110809465Y-122499880D01*
X110614880Y-122694465D01*
X110461995Y-122923273D01*
X110356686Y-123177510D01*
X110303000Y-123447408D01*
X110303000Y-123722592D01*
X110356686Y-123992490D01*
X110461995Y-124246727D01*
X110614880Y-124475535D01*
X110809465Y-124670120D01*
X111038273Y-124823005D01*
X111292510Y-124928314D01*
X111562408Y-124982000D01*
X111292510Y-125035686D01*
X111038273Y-125140995D01*
X110809465Y-125293880D01*
X110614880Y-125488465D01*
X110461995Y-125717273D01*
X110356686Y-125971510D01*
X110303000Y-126241408D01*
X110303000Y-126516592D01*
X110356686Y-126786490D01*
X110461995Y-127040727D01*
X110614880Y-127269535D01*
X110809465Y-127464120D01*
X111038273Y-127617005D01*
X111268817Y-127712500D01*
X111038273Y-127807995D01*
X110809465Y-127960880D01*
X110614880Y-128155465D01*
X110461995Y-128384273D01*
X110356686Y-128638510D01*
X110303000Y-128908408D01*
X110303000Y-129183592D01*
X110356686Y-129453490D01*
X110461995Y-129707727D01*
X110614880Y-129936535D01*
X110809465Y-130131120D01*
X111038273Y-130284005D01*
X111292510Y-130389314D01*
X111562408Y-130443000D01*
X111292510Y-130496686D01*
X111038273Y-130601995D01*
X110809465Y-130754880D01*
X110614880Y-130949465D01*
X110461995Y-131178273D01*
X110356686Y-131432510D01*
X110303000Y-131702408D01*
X110303000Y-131977592D01*
X110356686Y-132247490D01*
X110461995Y-132501727D01*
X110614880Y-132730535D01*
X110809465Y-132925120D01*
X111038273Y-133078005D01*
X111292510Y-133183314D01*
X111562408Y-133237000D01*
X111837592Y-133237000D01*
X112107490Y-133183314D01*
X112361727Y-133078005D01*
X112590535Y-132925120D01*
X112785120Y-132730535D01*
X112938005Y-132501727D01*
X113043314Y-132247490D01*
X113097000Y-131977592D01*
X113097000Y-131738061D01*
X120682000Y-131738061D01*
X120682000Y-131941939D01*
X120721774Y-132141898D01*
X120799795Y-132330256D01*
X120913063Y-132499774D01*
X121057226Y-132643937D01*
X121226744Y-132757205D01*
X121415102Y-132835226D01*
X121615061Y-132875000D01*
X121818939Y-132875000D01*
X122018898Y-132835226D01*
X122207256Y-132757205D01*
X122376774Y-132643937D01*
X122420711Y-132600000D01*
X133586289Y-132600000D01*
X133630226Y-132643937D01*
X133799744Y-132757205D01*
X133988102Y-132835226D01*
X134188061Y-132875000D01*
X134391939Y-132875000D01*
X134591898Y-132835226D01*
X134780256Y-132757205D01*
X134949774Y-132643937D01*
X135093937Y-132499774D01*
X135207205Y-132330256D01*
X135285226Y-132141898D01*
X135325000Y-131941939D01*
X135325000Y-131738061D01*
X135285226Y-131538102D01*
X135207205Y-131349744D01*
X135093937Y-131180226D01*
X134949774Y-131036063D01*
X134780256Y-130922795D01*
X134591898Y-130844774D01*
X134391939Y-130805000D01*
X134188061Y-130805000D01*
X133988102Y-130844774D01*
X133799744Y-130922795D01*
X133630226Y-131036063D01*
X133586289Y-131080000D01*
X122420711Y-131080000D01*
X122376774Y-131036063D01*
X122207256Y-130922795D01*
X122018898Y-130844774D01*
X121818939Y-130805000D01*
X121615061Y-130805000D01*
X121415102Y-130844774D01*
X121226744Y-130922795D01*
X121057226Y-131036063D01*
X120913063Y-131180226D01*
X120799795Y-131349744D01*
X120721774Y-131538102D01*
X120682000Y-131738061D01*
X113097000Y-131738061D01*
X113097000Y-131702408D01*
X113043314Y-131432510D01*
X112938005Y-131178273D01*
X112785120Y-130949465D01*
X112590535Y-130754880D01*
X112361727Y-130601995D01*
X112107490Y-130496686D01*
X111837592Y-130443000D01*
X112107490Y-130389314D01*
X112361727Y-130284005D01*
X112590535Y-130131120D01*
X112785120Y-129936535D01*
X112938005Y-129707727D01*
X113043314Y-129453490D01*
X113097000Y-129183592D01*
X113097000Y-128908408D01*
X113043314Y-128638510D01*
X112938005Y-128384273D01*
X112785120Y-128155465D01*
X112590535Y-127960880D01*
X112361727Y-127807995D01*
X112131183Y-127712500D01*
X112361727Y-127617005D01*
X112590535Y-127464120D01*
X112785120Y-127269535D01*
X112938005Y-127040727D01*
X113043314Y-126786490D01*
X113097000Y-126516592D01*
X113097000Y-126241408D01*
X113043314Y-125971510D01*
X112938005Y-125717273D01*
X112785120Y-125488465D01*
X112590535Y-125293880D01*
X112361727Y-125140995D01*
X112107490Y-125035686D01*
X111837592Y-124982000D01*
X112107490Y-124928314D01*
X112361727Y-124823005D01*
X112590535Y-124670120D01*
X112785120Y-124475535D01*
X112938005Y-124246727D01*
X113043314Y-123992490D01*
X113097000Y-123722592D01*
X113097000Y-123483061D01*
X121952000Y-123483061D01*
X121952000Y-123686939D01*
X121991774Y-123886898D01*
X122069795Y-124075256D01*
X122183063Y-124244774D01*
X122327226Y-124388937D01*
X122496744Y-124502205D01*
X122685102Y-124580226D01*
X122885061Y-124620000D01*
X123088939Y-124620000D01*
X123288898Y-124580226D01*
X123477256Y-124502205D01*
X123646774Y-124388937D01*
X123690711Y-124345000D01*
X123815199Y-124345000D01*
X123878000Y-124407802D01*
X123878001Y-128881668D01*
X123874324Y-128919000D01*
X123888998Y-129067985D01*
X123932454Y-129211246D01*
X124003026Y-129343276D01*
X124074201Y-129430002D01*
X124098000Y-129459001D01*
X124126998Y-129482799D01*
X124836201Y-130192002D01*
X124859999Y-130221001D01*
X124975724Y-130315974D01*
X125107753Y-130386546D01*
X125251014Y-130430003D01*
X125362667Y-130441000D01*
X125362675Y-130441000D01*
X125400000Y-130444676D01*
X125437325Y-130441000D01*
X144920678Y-130441000D01*
X144958000Y-130444676D01*
X144995322Y-130441000D01*
X144995333Y-130441000D01*
X145106986Y-130430003D01*
X145250247Y-130386546D01*
X145382276Y-130315974D01*
X145498001Y-130221001D01*
X145521803Y-130191998D01*
X145534770Y-130179031D01*
X156701690Y-130179031D01*
X156701690Y-130519009D01*
X156768017Y-130852455D01*
X156898121Y-131166554D01*
X157087003Y-131449236D01*
X157327404Y-131689637D01*
X157610086Y-131878519D01*
X157924185Y-132008623D01*
X158257631Y-132074950D01*
X158597609Y-132074950D01*
X158931055Y-132008623D01*
X159245154Y-131878519D01*
X159527836Y-131689637D01*
X159768237Y-131449236D01*
X159957119Y-131166554D01*
X160087223Y-130852455D01*
X160153550Y-130519009D01*
X160153550Y-130179031D01*
X160087223Y-129845585D01*
X159957119Y-129531486D01*
X159768237Y-129248804D01*
X159527836Y-129008403D01*
X159245154Y-128819521D01*
X158931055Y-128689417D01*
X158597609Y-128623090D01*
X158257631Y-128623090D01*
X157924185Y-128689417D01*
X157610086Y-128819521D01*
X157327404Y-129008403D01*
X157087003Y-129248804D01*
X156898121Y-129531486D01*
X156768017Y-129845585D01*
X156701690Y-130179031D01*
X145534770Y-130179031D01*
X146231004Y-129482798D01*
X146260001Y-129459001D01*
X146354974Y-129343276D01*
X146425546Y-129211247D01*
X146469003Y-129067986D01*
X146480000Y-128956333D01*
X146480000Y-128956325D01*
X146483676Y-128919000D01*
X146480000Y-128881675D01*
X146480000Y-128038178D01*
X146666632Y-127913475D01*
X146873475Y-127706632D01*
X146996125Y-127523073D01*
X147027322Y-127520000D01*
X147027333Y-127520000D01*
X147138986Y-127509003D01*
X147282247Y-127465546D01*
X147414276Y-127394974D01*
X147530001Y-127300001D01*
X147553804Y-127270998D01*
X148004730Y-126820071D01*
X148004730Y-127018889D01*
X148071057Y-127352335D01*
X148201161Y-127666434D01*
X148390043Y-127949116D01*
X148630444Y-128189517D01*
X148913126Y-128378399D01*
X149227225Y-128508503D01*
X149560671Y-128574830D01*
X149900649Y-128574830D01*
X150234095Y-128508503D01*
X150548194Y-128378399D01*
X150830876Y-128189517D01*
X151071277Y-127949116D01*
X151260159Y-127666434D01*
X151390263Y-127352335D01*
X151456590Y-127018889D01*
X151456590Y-126683589D01*
X151575000Y-126683589D01*
X151575000Y-126956411D01*
X151628225Y-127223989D01*
X151732629Y-127476043D01*
X151884201Y-127702886D01*
X152077114Y-127895799D01*
X152303957Y-128047371D01*
X152556011Y-128151775D01*
X152823589Y-128205000D01*
X153096411Y-128205000D01*
X153363989Y-128151775D01*
X153616043Y-128047371D01*
X153842886Y-127895799D01*
X154035799Y-127702886D01*
X154187371Y-127476043D01*
X154291775Y-127223989D01*
X154345000Y-126956411D01*
X154345000Y-126693589D01*
X158585000Y-126693589D01*
X158585000Y-126966411D01*
X158638225Y-127233989D01*
X158742629Y-127486043D01*
X158894201Y-127712886D01*
X159087114Y-127905799D01*
X159313957Y-128057371D01*
X159566011Y-128161775D01*
X159833589Y-128215000D01*
X160106411Y-128215000D01*
X160373989Y-128161775D01*
X160626043Y-128057371D01*
X160852886Y-127905799D01*
X161045799Y-127712886D01*
X161197371Y-127486043D01*
X161301775Y-127233989D01*
X161355000Y-126966411D01*
X161355000Y-126693589D01*
X161301775Y-126426011D01*
X161197371Y-126173957D01*
X161045799Y-125947114D01*
X160852886Y-125754201D01*
X160626043Y-125602629D01*
X160373989Y-125498225D01*
X160106411Y-125445000D01*
X159833589Y-125445000D01*
X159566011Y-125498225D01*
X159313957Y-125602629D01*
X159087114Y-125754201D01*
X158894201Y-125947114D01*
X158742629Y-126173957D01*
X158638225Y-126426011D01*
X158585000Y-126693589D01*
X154345000Y-126693589D01*
X154345000Y-126683589D01*
X154291775Y-126416011D01*
X154187371Y-126163957D01*
X154035799Y-125937114D01*
X153842886Y-125744201D01*
X153616043Y-125592629D01*
X153363989Y-125488225D01*
X153096411Y-125435000D01*
X152823589Y-125435000D01*
X152556011Y-125488225D01*
X152303957Y-125592629D01*
X152077114Y-125744201D01*
X151884201Y-125937114D01*
X151732629Y-126163957D01*
X151628225Y-126416011D01*
X151575000Y-126683589D01*
X151456590Y-126683589D01*
X151456590Y-126678911D01*
X151390263Y-126345465D01*
X151260159Y-126031366D01*
X151071277Y-125748684D01*
X151005436Y-125682843D01*
X151249234Y-125581859D01*
X151531916Y-125392977D01*
X151772317Y-125152576D01*
X151961199Y-124869894D01*
X152091303Y-124555795D01*
X152157630Y-124222349D01*
X152157630Y-123882371D01*
X152091303Y-123548925D01*
X151961199Y-123234826D01*
X151772317Y-122952144D01*
X151531916Y-122711743D01*
X151249234Y-122522861D01*
X150935135Y-122392757D01*
X150601689Y-122326430D01*
X150261711Y-122326430D01*
X149928265Y-122392757D01*
X149614166Y-122522861D01*
X149331484Y-122711743D01*
X149091083Y-122952144D01*
X148902201Y-123234826D01*
X148772097Y-123548925D01*
X148766000Y-123579576D01*
X148766000Y-122883801D01*
X149971802Y-121678000D01*
X157993145Y-121678000D01*
X157924185Y-121691717D01*
X157610086Y-121821821D01*
X157327404Y-122010703D01*
X157087003Y-122251104D01*
X156898121Y-122533786D01*
X156768017Y-122847885D01*
X156701690Y-123181331D01*
X156701690Y-123521309D01*
X156768017Y-123854755D01*
X156898121Y-124168854D01*
X157087003Y-124451536D01*
X157327404Y-124691937D01*
X157610086Y-124880819D01*
X157924185Y-125010923D01*
X158257631Y-125077250D01*
X158597609Y-125077250D01*
X158931055Y-125010923D01*
X159245154Y-124880819D01*
X159527836Y-124691937D01*
X159768237Y-124451536D01*
X159957119Y-124168854D01*
X160087223Y-123854755D01*
X160153550Y-123521309D01*
X160153550Y-123181331D01*
X160087223Y-122847885D01*
X159957119Y-122533786D01*
X159768237Y-122251104D01*
X159527836Y-122010703D01*
X159245154Y-121821821D01*
X158931055Y-121691717D01*
X158862095Y-121678000D01*
X159398678Y-121678000D01*
X159436000Y-121681676D01*
X159473322Y-121678000D01*
X159473333Y-121678000D01*
X159584986Y-121667003D01*
X159728247Y-121623546D01*
X159860276Y-121552974D01*
X159976001Y-121458001D01*
X159999804Y-121428997D01*
X161217004Y-120211798D01*
X161246001Y-120188001D01*
X161340974Y-120072276D01*
X161411546Y-119940247D01*
X161455003Y-119796986D01*
X161466000Y-119685333D01*
X161466000Y-119685324D01*
X161469676Y-119648001D01*
X161466000Y-119610678D01*
X161466000Y-116463322D01*
X161469676Y-116425999D01*
X161466000Y-116388676D01*
X161466000Y-116388667D01*
X161455003Y-116277014D01*
X161411546Y-116133753D01*
X161340974Y-116001724D01*
X161246001Y-115885999D01*
X161217003Y-115862201D01*
X159903731Y-114548930D01*
X159955000Y-114291184D01*
X159955000Y-113988816D01*
X159896011Y-113692257D01*
X159780299Y-113412905D01*
X159612312Y-113161495D01*
X159398505Y-112947688D01*
X159147095Y-112779701D01*
X158867743Y-112663989D01*
X158571184Y-112605000D01*
X158268816Y-112605000D01*
X157972257Y-112663989D01*
X157692905Y-112779701D01*
X157441495Y-112947688D01*
X157227688Y-113161495D01*
X157059701Y-113412905D01*
X156943989Y-113692257D01*
X156885000Y-113988816D01*
X156885000Y-114291184D01*
X156943989Y-114587743D01*
X157059701Y-114867095D01*
X157227688Y-115118505D01*
X157441495Y-115332312D01*
X157527831Y-115390000D01*
X157441495Y-115447688D01*
X157227688Y-115661495D01*
X157108415Y-115840000D01*
X144995322Y-115840000D01*
X144957999Y-115836324D01*
X144920676Y-115840000D01*
X144920667Y-115840000D01*
X144809014Y-115850997D01*
X144693626Y-115885999D01*
X144665753Y-115894454D01*
X144533723Y-115965026D01*
X144489007Y-116001724D01*
X144417999Y-116059999D01*
X144394201Y-116088997D01*
X143303998Y-117179201D01*
X143275000Y-117202999D01*
X143251202Y-117231997D01*
X143251201Y-117231998D01*
X143180026Y-117318724D01*
X143109454Y-117450754D01*
X143079180Y-117550558D01*
X143065998Y-117594014D01*
X143063586Y-117618505D01*
X143051324Y-117743000D01*
X143055001Y-117780332D01*
X143055000Y-124667198D01*
X141087199Y-126635000D01*
X127627711Y-126635000D01*
X127583774Y-126591063D01*
X127414256Y-126477795D01*
X127225898Y-126399774D01*
X127025939Y-126360000D01*
X126822061Y-126360000D01*
X126622102Y-126399774D01*
X126433744Y-126477795D01*
X126264226Y-126591063D01*
X126120063Y-126735226D01*
X126006795Y-126904744D01*
X125928774Y-127093102D01*
X125889000Y-127293061D01*
X125889000Y-127496939D01*
X125928774Y-127696898D01*
X126006795Y-127885256D01*
X126120063Y-128054774D01*
X126264226Y-128198937D01*
X126433744Y-128312205D01*
X126622102Y-128390226D01*
X126822061Y-128430000D01*
X127025939Y-128430000D01*
X127225898Y-128390226D01*
X127414256Y-128312205D01*
X127583774Y-128198937D01*
X127627711Y-128155000D01*
X141364678Y-128155000D01*
X141402000Y-128158676D01*
X141439322Y-128155000D01*
X141439333Y-128155000D01*
X141550986Y-128144003D01*
X141694247Y-128100546D01*
X141826276Y-128029974D01*
X141942001Y-127935001D01*
X141965804Y-127905997D01*
X144326004Y-125545798D01*
X144355001Y-125522001D01*
X144449974Y-125406276D01*
X144520546Y-125274247D01*
X144557354Y-125152906D01*
X144566525Y-125166632D01*
X144773368Y-125373475D01*
X144947760Y-125490000D01*
X144773368Y-125606525D01*
X144566525Y-125813368D01*
X144404010Y-126056589D01*
X144292068Y-126326842D01*
X144235000Y-126613740D01*
X144235000Y-126906260D01*
X144292068Y-127193158D01*
X144404010Y-127463411D01*
X144566525Y-127706632D01*
X144773368Y-127913475D01*
X144960001Y-128038179D01*
X144960000Y-128604198D01*
X144643199Y-128921000D01*
X125714802Y-128921000D01*
X125398000Y-128604199D01*
X125398000Y-124753061D01*
X125889000Y-124753061D01*
X125889000Y-124956939D01*
X125928774Y-125156898D01*
X126006795Y-125345256D01*
X126120063Y-125514774D01*
X126264226Y-125658937D01*
X126433744Y-125772205D01*
X126622102Y-125850226D01*
X126822061Y-125890000D01*
X127025939Y-125890000D01*
X127225898Y-125850226D01*
X127414256Y-125772205D01*
X127583774Y-125658937D01*
X127627711Y-125615000D01*
X140348678Y-125615000D01*
X140386000Y-125618676D01*
X140423322Y-125615000D01*
X140423333Y-125615000D01*
X140534986Y-125604003D01*
X140678247Y-125560546D01*
X140810276Y-125489974D01*
X140926001Y-125395001D01*
X140949804Y-125365997D01*
X142611504Y-123704298D01*
X142640501Y-123680501D01*
X142718877Y-123585000D01*
X142735474Y-123564777D01*
X142806046Y-123432747D01*
X142819785Y-123387454D01*
X142849503Y-123289486D01*
X142860500Y-123177833D01*
X142860500Y-123177824D01*
X142864176Y-123140501D01*
X142860500Y-123103178D01*
X142860500Y-117486301D01*
X144637802Y-115709000D01*
X152032678Y-115709000D01*
X152070000Y-115712676D01*
X152107322Y-115709000D01*
X152107333Y-115709000D01*
X152218986Y-115698003D01*
X152362247Y-115654546D01*
X152494276Y-115583974D01*
X152610001Y-115489001D01*
X152633804Y-115459997D01*
X154740004Y-113353798D01*
X154769001Y-113330001D01*
X154795332Y-113297917D01*
X154863974Y-113214277D01*
X154934546Y-113082247D01*
X154975363Y-112947688D01*
X154978003Y-112938986D01*
X154989000Y-112827333D01*
X154989000Y-112827324D01*
X154992676Y-112790001D01*
X154989000Y-112752678D01*
X154989000Y-106754801D01*
X155773802Y-105970000D01*
X157081687Y-105970000D01*
X157227688Y-106188505D01*
X157441495Y-106402312D01*
X157527831Y-106460000D01*
X157441495Y-106517688D01*
X157227688Y-106731495D01*
X157059701Y-106982905D01*
X156943989Y-107262257D01*
X156885000Y-107558816D01*
X156885000Y-107861184D01*
X156943989Y-108157743D01*
X157059701Y-108437095D01*
X157227688Y-108688505D01*
X157441495Y-108902312D01*
X157692905Y-109070299D01*
X157972257Y-109186011D01*
X158268816Y-109245000D01*
X158571184Y-109245000D01*
X158867743Y-109186011D01*
X159147095Y-109070299D01*
X159398505Y-108902312D01*
X159612312Y-108688505D01*
X159780299Y-108437095D01*
X159896011Y-108157743D01*
X159955000Y-107861184D01*
X159955000Y-107558816D01*
X159896011Y-107262257D01*
X159780299Y-106982905D01*
X159612312Y-106731495D01*
X159398505Y-106517688D01*
X159312169Y-106460000D01*
X159398505Y-106402312D01*
X159612312Y-106188505D01*
X159763313Y-105962517D01*
X159798986Y-105959003D01*
X159942247Y-105915546D01*
X160074276Y-105844974D01*
X160190001Y-105750001D01*
X160213804Y-105720998D01*
X161217004Y-104717798D01*
X161246001Y-104694001D01*
X161340974Y-104578276D01*
X161411546Y-104446247D01*
X161455003Y-104302986D01*
X161466000Y-104191333D01*
X161466000Y-104191332D01*
X161469677Y-104154000D01*
X161466000Y-104116667D01*
X161466000Y-92413322D01*
X161469676Y-92375999D01*
X161466000Y-92338676D01*
X161466000Y-92338667D01*
X161455003Y-92227014D01*
X161411546Y-92083753D01*
X161370571Y-92007095D01*
X161340974Y-91951723D01*
X161269799Y-91864997D01*
X161246001Y-91835999D01*
X161217003Y-91812201D01*
X160173804Y-90769002D01*
X160150001Y-90739999D01*
X160034276Y-90645026D01*
X159902247Y-90574454D01*
X159767357Y-90533536D01*
X159612312Y-90301495D01*
X159398505Y-90087688D01*
X159147095Y-89919701D01*
X158867743Y-89803989D01*
X158571184Y-89745000D01*
X158268816Y-89745000D01*
X157972257Y-89803989D01*
X157692905Y-89919701D01*
X157441495Y-90087688D01*
X157227688Y-90301495D01*
X157059701Y-90552905D01*
X156943989Y-90832257D01*
X156885000Y-91128816D01*
X156885000Y-91431184D01*
X156943989Y-91727743D01*
X157059701Y-92007095D01*
X157227688Y-92258505D01*
X157441495Y-92472312D01*
X157527831Y-92530000D01*
X157441495Y-92587688D01*
X157227688Y-92801495D01*
X157081687Y-93020000D01*
X154099322Y-93020000D01*
X154061999Y-93016324D01*
X154024676Y-93020000D01*
X154024667Y-93020000D01*
X153913014Y-93030997D01*
X153769753Y-93074454D01*
X153637724Y-93145026D01*
X153521999Y-93239999D01*
X153498201Y-93268997D01*
X151685998Y-95081201D01*
X151657000Y-95104999D01*
X151633202Y-95133997D01*
X151633201Y-95133998D01*
X151562026Y-95220724D01*
X151491454Y-95352754D01*
X151447998Y-95496015D01*
X151433324Y-95645000D01*
X151437001Y-95682333D01*
X151437000Y-111205198D01*
X150485199Y-112157000D01*
X144106333Y-112157000D01*
X144069000Y-112153323D01*
X144031667Y-112157000D01*
X143920014Y-112167997D01*
X143776753Y-112211454D01*
X143644724Y-112282026D01*
X143528999Y-112376999D01*
X143505201Y-112405997D01*
X139874998Y-116036201D01*
X139846000Y-116059999D01*
X139822202Y-116088997D01*
X139822201Y-116088998D01*
X139751026Y-116175724D01*
X139680454Y-116307754D01*
X139636998Y-116451015D01*
X139622324Y-116600000D01*
X139626001Y-116637332D01*
X139626000Y-120849289D01*
X139582063Y-120893226D01*
X139468795Y-121062744D01*
X139390774Y-121251102D01*
X139351000Y-121451061D01*
X139351000Y-121654939D01*
X139390774Y-121854898D01*
X139468795Y-122043256D01*
X139582063Y-122212774D01*
X139726226Y-122356937D01*
X139895744Y-122470205D01*
X140084102Y-122548226D01*
X140284061Y-122588000D01*
X140487939Y-122588000D01*
X140687898Y-122548226D01*
X140876256Y-122470205D01*
X141045774Y-122356937D01*
X141189937Y-122212774D01*
X141303205Y-122043256D01*
X141340500Y-121953218D01*
X141340500Y-122825698D01*
X140071199Y-124095000D01*
X127627711Y-124095000D01*
X127583774Y-124051063D01*
X127414256Y-123937795D01*
X127225898Y-123859774D01*
X127025939Y-123820000D01*
X126822061Y-123820000D01*
X126622102Y-123859774D01*
X126433744Y-123937795D01*
X126264226Y-124051063D01*
X126120063Y-124195226D01*
X126006795Y-124364744D01*
X125928774Y-124553102D01*
X125889000Y-124753061D01*
X125398000Y-124753061D01*
X125398000Y-124130322D01*
X125401676Y-124092999D01*
X125398000Y-124055676D01*
X125398000Y-124055667D01*
X125387003Y-123944014D01*
X125343546Y-123800753D01*
X125272974Y-123668724D01*
X125178001Y-123552999D01*
X125149003Y-123529202D01*
X124693803Y-123074002D01*
X124670001Y-123044999D01*
X124554276Y-122950026D01*
X124422247Y-122879454D01*
X124278986Y-122835997D01*
X124167333Y-122825000D01*
X124167322Y-122825000D01*
X124130000Y-122821324D01*
X124092678Y-122825000D01*
X123690711Y-122825000D01*
X123646774Y-122781063D01*
X123477256Y-122667795D01*
X123288898Y-122589774D01*
X123088939Y-122550000D01*
X122885061Y-122550000D01*
X122685102Y-122589774D01*
X122496744Y-122667795D01*
X122327226Y-122781063D01*
X122183063Y-122925226D01*
X122069795Y-123094744D01*
X121991774Y-123283102D01*
X121952000Y-123483061D01*
X113097000Y-123483061D01*
X113097000Y-123447408D01*
X113043314Y-123177510D01*
X112938005Y-122923273D01*
X112785120Y-122694465D01*
X112590535Y-122499880D01*
X112361727Y-122346995D01*
X112107490Y-122241686D01*
X111837592Y-122188000D01*
X112107490Y-122134314D01*
X112361727Y-122029005D01*
X112590535Y-121876120D01*
X112785120Y-121681535D01*
X112938005Y-121452727D01*
X113043314Y-121198490D01*
X113097000Y-120928592D01*
X113097000Y-120653408D01*
X113043314Y-120383510D01*
X112938005Y-120129273D01*
X112785120Y-119900465D01*
X112590535Y-119705880D01*
X112361727Y-119552995D01*
X112107490Y-119447686D01*
X111837592Y-119394000D01*
X112107490Y-119340314D01*
X112361727Y-119235005D01*
X112590535Y-119082120D01*
X112785120Y-118887535D01*
X112938005Y-118658727D01*
X113043314Y-118404490D01*
X113097000Y-118134592D01*
X113097000Y-117859408D01*
X113043314Y-117589510D01*
X112938005Y-117335273D01*
X112785120Y-117106465D01*
X112590535Y-116911880D01*
X112361727Y-116758995D01*
X112131183Y-116663500D01*
X112361727Y-116568005D01*
X112590535Y-116415120D01*
X112785120Y-116220535D01*
X112938005Y-115991727D01*
X113043314Y-115737490D01*
X113097000Y-115467592D01*
X113097000Y-115192408D01*
X113043314Y-114922510D01*
X112938005Y-114668273D01*
X112785120Y-114439465D01*
X112590535Y-114244880D01*
X112361727Y-114091995D01*
X112107490Y-113986686D01*
X111837592Y-113933000D01*
X112107490Y-113879314D01*
X112361727Y-113774005D01*
X112590535Y-113621120D01*
X112785120Y-113426535D01*
X112938005Y-113197727D01*
X113043314Y-112943490D01*
X113097000Y-112673592D01*
X113097000Y-112398408D01*
X113043314Y-112128510D01*
X112938005Y-111874273D01*
X112785120Y-111645465D01*
X112590535Y-111450880D01*
X112361727Y-111297995D01*
X112107490Y-111192686D01*
X111837592Y-111139000D01*
X112107490Y-111085314D01*
X112361727Y-110980005D01*
X112590535Y-110827120D01*
X112785120Y-110632535D01*
X112938005Y-110403727D01*
X113043314Y-110149490D01*
X113097000Y-109879592D01*
X113097000Y-109604408D01*
X113043314Y-109334510D01*
X112938005Y-109080273D01*
X112785120Y-108851465D01*
X112590535Y-108656880D01*
X112361727Y-108503995D01*
X112107490Y-108398686D01*
X111837592Y-108345000D01*
X112107490Y-108291314D01*
X112361727Y-108186005D01*
X112590535Y-108033120D01*
X112785120Y-107838535D01*
X112938005Y-107609727D01*
X113043314Y-107355490D01*
X113097000Y-107085592D01*
X113097000Y-106810408D01*
X113043314Y-106540510D01*
X112938005Y-106286273D01*
X112785120Y-106057465D01*
X112590535Y-105862880D01*
X112361727Y-105709995D01*
X112131183Y-105614500D01*
X112361727Y-105519005D01*
X112590535Y-105366120D01*
X112785120Y-105171535D01*
X112938005Y-104942727D01*
X113043314Y-104688490D01*
X113097000Y-104418592D01*
X113097000Y-104143408D01*
X113043314Y-103873510D01*
X112938005Y-103619273D01*
X112785120Y-103390465D01*
X112590535Y-103195880D01*
X112361727Y-103042995D01*
X112107490Y-102937686D01*
X111837592Y-102884000D01*
X112107490Y-102830314D01*
X112361727Y-102725005D01*
X112590535Y-102572120D01*
X112785120Y-102377535D01*
X112938005Y-102148727D01*
X113043314Y-101894490D01*
X113097000Y-101624592D01*
X113097000Y-101349408D01*
X113043314Y-101079510D01*
X112938005Y-100825273D01*
X112785120Y-100596465D01*
X112590535Y-100401880D01*
X112361727Y-100248995D01*
X112107490Y-100143686D01*
X111853036Y-100093072D01*
X112462000Y-100093072D01*
X112586482Y-100080812D01*
X112706180Y-100044502D01*
X112816494Y-99985537D01*
X112913185Y-99906185D01*
X112992537Y-99809494D01*
X113051502Y-99699180D01*
X113087812Y-99579482D01*
X113100072Y-99455000D01*
X113100072Y-97931000D01*
X113087812Y-97806518D01*
X113051502Y-97686820D01*
X112992537Y-97576506D01*
X112913185Y-97479815D01*
X112816494Y-97400463D01*
X112706180Y-97341498D01*
X112586482Y-97305188D01*
X112462000Y-97292928D01*
X110938000Y-97292928D01*
X110813518Y-97305188D01*
X110693820Y-97341498D01*
X110583506Y-97400463D01*
X110486815Y-97479815D01*
X110407463Y-97576506D01*
X110348498Y-97686820D01*
X110312188Y-97806518D01*
X110299928Y-97931000D01*
X110299928Y-99281491D01*
X110245120Y-99199465D01*
X110050535Y-99004880D01*
X109821727Y-98851995D01*
X109567490Y-98746686D01*
X109297592Y-98693000D01*
X109022408Y-98693000D01*
X108752510Y-98746686D01*
X108498273Y-98851995D01*
X108269465Y-99004880D01*
X108074880Y-99199465D01*
X107921995Y-99428273D01*
X107816686Y-99682510D01*
X107763000Y-99952408D01*
X104918072Y-99952408D01*
X104918072Y-99171667D01*
X104905812Y-99047185D01*
X104869502Y-98927487D01*
X104810537Y-98817173D01*
X104731185Y-98720482D01*
X104634494Y-98641130D01*
X104524180Y-98582165D01*
X104404482Y-98545855D01*
X104280000Y-98533595D01*
X100800000Y-98533595D01*
X100710000Y-98542459D01*
X100710000Y-89370000D01*
X109532782Y-89370000D01*
X109419109Y-89392611D01*
%TA.AperFunction,Conductor*%
D26*
G36*
X109419109Y-89392611D02*
G01*
X108956859Y-89584081D01*
X108540844Y-89862053D01*
X108187053Y-90215844D01*
X107909081Y-90631859D01*
X107717611Y-91094109D01*
X107620000Y-91584832D01*
X107620000Y-92085168D01*
X107717611Y-92575891D01*
X107909081Y-93038141D01*
X108187053Y-93454156D01*
X108540844Y-93807947D01*
X108956859Y-94085919D01*
X109419109Y-94277389D01*
X109909832Y-94375000D01*
X110410168Y-94375000D01*
X110900891Y-94277389D01*
X111363141Y-94085919D01*
X111779156Y-93807947D01*
X112132947Y-93454156D01*
X112410919Y-93038141D01*
X112602389Y-92575891D01*
X112700000Y-92085168D01*
X112700000Y-91584832D01*
X112602389Y-91094109D01*
X112410919Y-90631859D01*
X112132947Y-90215844D01*
X111779156Y-89862053D01*
X111363141Y-89584081D01*
X110900891Y-89392611D01*
X110787218Y-89370000D01*
X161520000Y-89370000D01*
X161520001Y-141290000D01*
X160562569Y-141290000D01*
X160638909Y-141227349D01*
X160780744Y-141054523D01*
X160886136Y-140857347D01*
X160951037Y-140643399D01*
X160972951Y-140420900D01*
X160951037Y-140198401D01*
X160886136Y-139984453D01*
X160780744Y-139787277D01*
X160638909Y-139614451D01*
X160466083Y-139472616D01*
X160442460Y-139459989D01*
X160442460Y-136715009D01*
X160446741Y-136671540D01*
X160442460Y-136628071D01*
X160442460Y-134381811D01*
X160466083Y-134369184D01*
X160638909Y-134227349D01*
X160780744Y-134054523D01*
X160886136Y-133857347D01*
X160951037Y-133643399D01*
X160972951Y-133420900D01*
X160951037Y-133198401D01*
X160886136Y-132984453D01*
X160780744Y-132787277D01*
X160638909Y-132614451D01*
X160466083Y-132472616D01*
X160268907Y-132367224D01*
X160054959Y-132302323D01*
X159888212Y-132285900D01*
X159226708Y-132285900D01*
X159059961Y-132302323D01*
X158846013Y-132367224D01*
X158648837Y-132472616D01*
X158476011Y-132614451D01*
X158334176Y-132787277D01*
X158228784Y-132984453D01*
X158163883Y-133198401D01*
X158141969Y-133420900D01*
X158163883Y-133643399D01*
X158228784Y-133857347D01*
X158334176Y-134054523D01*
X158476011Y-134227349D01*
X158648837Y-134369184D01*
X158672460Y-134381811D01*
X158672461Y-135869460D01*
X157742460Y-135869460D01*
X157742460Y-135242226D01*
X157784856Y-135190566D01*
X157887928Y-134997734D01*
X157951398Y-134788498D01*
X157967460Y-134625421D01*
X157967460Y-134216380D01*
X157951398Y-134053303D01*
X157887928Y-133844067D01*
X157784856Y-133651234D01*
X157646146Y-133482214D01*
X157477126Y-133343504D01*
X157284294Y-133240432D01*
X157075058Y-133176962D01*
X156857460Y-133155530D01*
X156639863Y-133176962D01*
X156430627Y-133240432D01*
X156237795Y-133343504D01*
X156068775Y-133482214D01*
X155930064Y-133651234D01*
X155826992Y-133844066D01*
X155763522Y-134053302D01*
X155747460Y-134216379D01*
X155747460Y-134625420D01*
X155763522Y-134788497D01*
X155826992Y-134997733D01*
X155930064Y-135190566D01*
X155972460Y-135242227D01*
X155972461Y-136710974D01*
X155968178Y-136754460D01*
X155972460Y-136797937D01*
X155972461Y-138599573D01*
X155930064Y-138651234D01*
X155826992Y-138844066D01*
X155763522Y-139053302D01*
X155747460Y-139216379D01*
X155747460Y-139625420D01*
X155763522Y-139788497D01*
X155826992Y-139997733D01*
X155930064Y-140190566D01*
X156068774Y-140359586D01*
X156237794Y-140498296D01*
X156430626Y-140601368D01*
X156639862Y-140664838D01*
X156857460Y-140686270D01*
X157075057Y-140664838D01*
X157284293Y-140601368D01*
X157477126Y-140498296D01*
X157646146Y-140359586D01*
X157784856Y-140190566D01*
X157887928Y-139997734D01*
X157951398Y-139788498D01*
X157967460Y-139625421D01*
X157967460Y-139216380D01*
X157951398Y-139053303D01*
X157887928Y-138844067D01*
X157784856Y-138651234D01*
X157742460Y-138599574D01*
X157742460Y-137639460D01*
X158672461Y-137639460D01*
X158672460Y-139459989D01*
X158648837Y-139472616D01*
X158476011Y-139614451D01*
X158334176Y-139787277D01*
X158228784Y-139984453D01*
X158163883Y-140198401D01*
X158141969Y-140420900D01*
X158163883Y-140643399D01*
X158228784Y-140857347D01*
X158334176Y-141054523D01*
X158476011Y-141227349D01*
X158552351Y-141290000D01*
X110787218Y-141290000D01*
X110900891Y-141267389D01*
X111363141Y-141075919D01*
X111779156Y-140797947D01*
X112132947Y-140444156D01*
X112410919Y-140028141D01*
X112602389Y-139565891D01*
X112700000Y-139075168D01*
X112700000Y-138574832D01*
X112602389Y-138084109D01*
X112410919Y-137621859D01*
X112132947Y-137205844D01*
X111779156Y-136852053D01*
X111363141Y-136574081D01*
X110900891Y-136382611D01*
X110410168Y-136285000D01*
X109909832Y-136285000D01*
X109419109Y-136382611D01*
X108956859Y-136574081D01*
X108540844Y-136852053D01*
X108187053Y-137205844D01*
X107909081Y-137621859D01*
X107717611Y-138084109D01*
X107620000Y-138574832D01*
X107620000Y-139075168D01*
X107717611Y-139565891D01*
X107909081Y-140028141D01*
X108187053Y-140444156D01*
X108540844Y-140797947D01*
X108956859Y-141075919D01*
X109419109Y-141267389D01*
X109532782Y-141290000D01*
X100710000Y-141290000D01*
X100710000Y-109957541D01*
X100800000Y-109966405D01*
X104280000Y-109966405D01*
X104404482Y-109954145D01*
X104524180Y-109917835D01*
X104634494Y-109858870D01*
X104731185Y-109779518D01*
X104810537Y-109682827D01*
X104869502Y-109572513D01*
X104905812Y-109452815D01*
X104918072Y-109328333D01*
X104918072Y-107481667D01*
X104905812Y-107357185D01*
X104869502Y-107237487D01*
X104810537Y-107127173D01*
X104731185Y-107030482D01*
X104718413Y-107020000D01*
X104731185Y-107009518D01*
X104810537Y-106912827D01*
X104869502Y-106802513D01*
X104905812Y-106682815D01*
X104918072Y-106558333D01*
X104918072Y-104711667D01*
X104905812Y-104587185D01*
X104869502Y-104467487D01*
X104810537Y-104357173D01*
X104731185Y-104260482D01*
X104718413Y-104250000D01*
X104731185Y-104239518D01*
X104810537Y-104142827D01*
X104869502Y-104032513D01*
X104905812Y-103912815D01*
X104918072Y-103788333D01*
X104918072Y-101941667D01*
X104905812Y-101817185D01*
X104869502Y-101697487D01*
X104810537Y-101587173D01*
X104731185Y-101490482D01*
X104718413Y-101480000D01*
X104731185Y-101469518D01*
X104810537Y-101372827D01*
X104869502Y-101262513D01*
X104905812Y-101142815D01*
X104918072Y-101018333D01*
X104918072Y-99952408D01*
X107763000Y-99952408D01*
X107763000Y-100227592D01*
X107816686Y-100497490D01*
X107921995Y-100751727D01*
X108074880Y-100980535D01*
X108269465Y-101175120D01*
X108498273Y-101328005D01*
X108752510Y-101433314D01*
X109022408Y-101487000D01*
X108752510Y-101540686D01*
X108498273Y-101645995D01*
X108269465Y-101798880D01*
X108074880Y-101993465D01*
X107921995Y-102222273D01*
X107816686Y-102476510D01*
X107763000Y-102746408D01*
X107763000Y-103021592D01*
X107816686Y-103291490D01*
X107921995Y-103545727D01*
X108074880Y-103774535D01*
X108269465Y-103969120D01*
X108498273Y-104122005D01*
X108752510Y-104227314D01*
X108894713Y-104255600D01*
X108752510Y-104283886D01*
X108498273Y-104389195D01*
X108269465Y-104542080D01*
X108074880Y-104736665D01*
X107921995Y-104965473D01*
X107816686Y-105219710D01*
X107763000Y-105489608D01*
X107763000Y-105764792D01*
X107816686Y-106034690D01*
X107921995Y-106288927D01*
X108074880Y-106517735D01*
X108269465Y-106712320D01*
X108498273Y-106865205D01*
X108752510Y-106970514D01*
X108767019Y-106973400D01*
X108752510Y-106976286D01*
X108498273Y-107081595D01*
X108269465Y-107234480D01*
X108074880Y-107429065D01*
X107921995Y-107657873D01*
X107816686Y-107912110D01*
X107763000Y-108182008D01*
X107763000Y-108457192D01*
X107816686Y-108727090D01*
X107921995Y-108981327D01*
X108074880Y-109210135D01*
X108269465Y-109404720D01*
X108498273Y-109557605D01*
X108752510Y-109662914D01*
X109022408Y-109716600D01*
X109297592Y-109716600D01*
X109567490Y-109662914D01*
X109821727Y-109557605D01*
X110050535Y-109404720D01*
X110245120Y-109210135D01*
X110398005Y-108981327D01*
X110503314Y-108727090D01*
X110557000Y-108457192D01*
X110557000Y-108182008D01*
X110503314Y-107912110D01*
X110398005Y-107657873D01*
X110245120Y-107429065D01*
X110050535Y-107234480D01*
X109821727Y-107081595D01*
X109567490Y-106976286D01*
X109552981Y-106973400D01*
X109567490Y-106970514D01*
X109821727Y-106865205D01*
X110050535Y-106712320D01*
X110245120Y-106517735D01*
X110398005Y-106288927D01*
X110503314Y-106034690D01*
X110557000Y-105764792D01*
X110557000Y-105489608D01*
X110503314Y-105219710D01*
X110398005Y-104965473D01*
X110245120Y-104736665D01*
X110050535Y-104542080D01*
X109821727Y-104389195D01*
X109567490Y-104283886D01*
X109425287Y-104255600D01*
X109567490Y-104227314D01*
X109821727Y-104122005D01*
X110050535Y-103969120D01*
X110245120Y-103774535D01*
X110398005Y-103545727D01*
X110503314Y-103291490D01*
X110557000Y-103021592D01*
X110557000Y-102746408D01*
X110503314Y-102476510D01*
X110398005Y-102222273D01*
X110245120Y-101993465D01*
X110050535Y-101798880D01*
X109821727Y-101645995D01*
X109567490Y-101540686D01*
X109297592Y-101487000D01*
X109567490Y-101433314D01*
X109821727Y-101328005D01*
X110050535Y-101175120D01*
X110245120Y-100980535D01*
X110398005Y-100751727D01*
X110503314Y-100497490D01*
X110557000Y-100227592D01*
X110557000Y-99963784D01*
X110583506Y-99985537D01*
X110693820Y-100044502D01*
X110813518Y-100080812D01*
X110938000Y-100093072D01*
X111546964Y-100093072D01*
X111292510Y-100143686D01*
X111038273Y-100248995D01*
X110809465Y-100401880D01*
X110614880Y-100596465D01*
X110461995Y-100825273D01*
X110356686Y-101079510D01*
X110303000Y-101349408D01*
X110303000Y-101624592D01*
X110356686Y-101894490D01*
X110461995Y-102148727D01*
X110614880Y-102377535D01*
X110809465Y-102572120D01*
X111038273Y-102725005D01*
X111292510Y-102830314D01*
X111562408Y-102884000D01*
X111292510Y-102937686D01*
X111038273Y-103042995D01*
X110809465Y-103195880D01*
X110614880Y-103390465D01*
X110461995Y-103619273D01*
X110356686Y-103873510D01*
X110303000Y-104143408D01*
X110303000Y-104418592D01*
X110356686Y-104688490D01*
X110461995Y-104942727D01*
X110614880Y-105171535D01*
X110809465Y-105366120D01*
X111038273Y-105519005D01*
X111268817Y-105614500D01*
X111038273Y-105709995D01*
X110809465Y-105862880D01*
X110614880Y-106057465D01*
X110461995Y-106286273D01*
X110356686Y-106540510D01*
X110303000Y-106810408D01*
X110303000Y-107085592D01*
X110356686Y-107355490D01*
X110461995Y-107609727D01*
X110614880Y-107838535D01*
X110809465Y-108033120D01*
X111038273Y-108186005D01*
X111292510Y-108291314D01*
X111562408Y-108345000D01*
X111292510Y-108398686D01*
X111038273Y-108503995D01*
X110809465Y-108656880D01*
X110614880Y-108851465D01*
X110461995Y-109080273D01*
X110356686Y-109334510D01*
X110303000Y-109604408D01*
X110303000Y-109879592D01*
X110356686Y-110149490D01*
X110461995Y-110403727D01*
X110614880Y-110632535D01*
X110809465Y-110827120D01*
X111038273Y-110980005D01*
X111292510Y-111085314D01*
X111562408Y-111139000D01*
X111292510Y-111192686D01*
X111038273Y-111297995D01*
X110809465Y-111450880D01*
X110614880Y-111645465D01*
X110461995Y-111874273D01*
X110356686Y-112128510D01*
X110303000Y-112398408D01*
X110303000Y-112673592D01*
X110356686Y-112943490D01*
X110461995Y-113197727D01*
X110614880Y-113426535D01*
X110809465Y-113621120D01*
X111038273Y-113774005D01*
X111292510Y-113879314D01*
X111562408Y-113933000D01*
X111292510Y-113986686D01*
X111038273Y-114091995D01*
X110809465Y-114244880D01*
X110614880Y-114439465D01*
X110461995Y-114668273D01*
X110356686Y-114922510D01*
X110303000Y-115192408D01*
X110303000Y-115467592D01*
X110356686Y-115737490D01*
X110461995Y-115991727D01*
X110614880Y-116220535D01*
X110809465Y-116415120D01*
X111038273Y-116568005D01*
X111268817Y-116663500D01*
X111038273Y-116758995D01*
X110809465Y-116911880D01*
X110614880Y-117106465D01*
X110461995Y-117335273D01*
X110356686Y-117589510D01*
X110303000Y-117859408D01*
X110303000Y-118134592D01*
X110356686Y-118404490D01*
X110461995Y-118658727D01*
X110614880Y-118887535D01*
X110809465Y-119082120D01*
X111038273Y-119235005D01*
X111292510Y-119340314D01*
X111562408Y-119394000D01*
X111292510Y-119447686D01*
X111038273Y-119552995D01*
X110809465Y-119705880D01*
X110614880Y-119900465D01*
X110461995Y-120129273D01*
X110356686Y-120383510D01*
X110303000Y-120653408D01*
X110303000Y-120928592D01*
X110356686Y-121198490D01*
X110461995Y-121452727D01*
X110614880Y-121681535D01*
X110809465Y-121876120D01*
X111038273Y-122029005D01*
X111292510Y-122134314D01*
X111562408Y-122188000D01*
X111292510Y-122241686D01*
X111038273Y-122346995D01*
X110809465Y-122499880D01*
X110614880Y-122694465D01*
X110461995Y-122923273D01*
X110356686Y-123177510D01*
X110303000Y-123447408D01*
X110303000Y-123722592D01*
X110356686Y-123992490D01*
X110461995Y-124246727D01*
X110614880Y-124475535D01*
X110809465Y-124670120D01*
X111038273Y-124823005D01*
X111292510Y-124928314D01*
X111562408Y-124982000D01*
X111292510Y-125035686D01*
X111038273Y-125140995D01*
X110809465Y-125293880D01*
X110614880Y-125488465D01*
X110461995Y-125717273D01*
X110356686Y-125971510D01*
X110303000Y-126241408D01*
X110303000Y-126516592D01*
X110356686Y-126786490D01*
X110461995Y-127040727D01*
X110614880Y-127269535D01*
X110809465Y-127464120D01*
X111038273Y-127617005D01*
X111268817Y-127712500D01*
X111038273Y-127807995D01*
X110809465Y-127960880D01*
X110614880Y-128155465D01*
X110461995Y-128384273D01*
X110356686Y-128638510D01*
X110303000Y-128908408D01*
X110303000Y-129183592D01*
X110356686Y-129453490D01*
X110461995Y-129707727D01*
X110614880Y-129936535D01*
X110809465Y-130131120D01*
X111038273Y-130284005D01*
X111292510Y-130389314D01*
X111562408Y-130443000D01*
X111292510Y-130496686D01*
X111038273Y-130601995D01*
X110809465Y-130754880D01*
X110614880Y-130949465D01*
X110461995Y-131178273D01*
X110356686Y-131432510D01*
X110303000Y-131702408D01*
X110303000Y-131977592D01*
X110356686Y-132247490D01*
X110461995Y-132501727D01*
X110614880Y-132730535D01*
X110809465Y-132925120D01*
X111038273Y-133078005D01*
X111292510Y-133183314D01*
X111562408Y-133237000D01*
X111837592Y-133237000D01*
X112107490Y-133183314D01*
X112361727Y-133078005D01*
X112590535Y-132925120D01*
X112785120Y-132730535D01*
X112938005Y-132501727D01*
X113043314Y-132247490D01*
X113097000Y-131977592D01*
X113097000Y-131738061D01*
X120682000Y-131738061D01*
X120682000Y-131941939D01*
X120721774Y-132141898D01*
X120799795Y-132330256D01*
X120913063Y-132499774D01*
X121057226Y-132643937D01*
X121226744Y-132757205D01*
X121415102Y-132835226D01*
X121615061Y-132875000D01*
X121818939Y-132875000D01*
X122018898Y-132835226D01*
X122207256Y-132757205D01*
X122376774Y-132643937D01*
X122420711Y-132600000D01*
X133586289Y-132600000D01*
X133630226Y-132643937D01*
X133799744Y-132757205D01*
X133988102Y-132835226D01*
X134188061Y-132875000D01*
X134391939Y-132875000D01*
X134591898Y-132835226D01*
X134780256Y-132757205D01*
X134949774Y-132643937D01*
X135093937Y-132499774D01*
X135207205Y-132330256D01*
X135285226Y-132141898D01*
X135325000Y-131941939D01*
X135325000Y-131738061D01*
X135285226Y-131538102D01*
X135207205Y-131349744D01*
X135093937Y-131180226D01*
X134949774Y-131036063D01*
X134780256Y-130922795D01*
X134591898Y-130844774D01*
X134391939Y-130805000D01*
X134188061Y-130805000D01*
X133988102Y-130844774D01*
X133799744Y-130922795D01*
X133630226Y-131036063D01*
X133586289Y-131080000D01*
X122420711Y-131080000D01*
X122376774Y-131036063D01*
X122207256Y-130922795D01*
X122018898Y-130844774D01*
X121818939Y-130805000D01*
X121615061Y-130805000D01*
X121415102Y-130844774D01*
X121226744Y-130922795D01*
X121057226Y-131036063D01*
X120913063Y-131180226D01*
X120799795Y-131349744D01*
X120721774Y-131538102D01*
X120682000Y-131738061D01*
X113097000Y-131738061D01*
X113097000Y-131702408D01*
X113043314Y-131432510D01*
X112938005Y-131178273D01*
X112785120Y-130949465D01*
X112590535Y-130754880D01*
X112361727Y-130601995D01*
X112107490Y-130496686D01*
X111837592Y-130443000D01*
X112107490Y-130389314D01*
X112361727Y-130284005D01*
X112590535Y-130131120D01*
X112785120Y-129936535D01*
X112938005Y-129707727D01*
X113043314Y-129453490D01*
X113097000Y-129183592D01*
X113097000Y-128908408D01*
X113043314Y-128638510D01*
X112938005Y-128384273D01*
X112785120Y-128155465D01*
X112590535Y-127960880D01*
X112361727Y-127807995D01*
X112131183Y-127712500D01*
X112361727Y-127617005D01*
X112590535Y-127464120D01*
X112785120Y-127269535D01*
X112938005Y-127040727D01*
X113043314Y-126786490D01*
X113097000Y-126516592D01*
X113097000Y-126241408D01*
X113043314Y-125971510D01*
X112938005Y-125717273D01*
X112785120Y-125488465D01*
X112590535Y-125293880D01*
X112361727Y-125140995D01*
X112107490Y-125035686D01*
X111837592Y-124982000D01*
X112107490Y-124928314D01*
X112361727Y-124823005D01*
X112590535Y-124670120D01*
X112785120Y-124475535D01*
X112938005Y-124246727D01*
X113043314Y-123992490D01*
X113097000Y-123722592D01*
X113097000Y-123483061D01*
X121952000Y-123483061D01*
X121952000Y-123686939D01*
X121991774Y-123886898D01*
X122069795Y-124075256D01*
X122183063Y-124244774D01*
X122327226Y-124388937D01*
X122496744Y-124502205D01*
X122685102Y-124580226D01*
X122885061Y-124620000D01*
X123088939Y-124620000D01*
X123288898Y-124580226D01*
X123477256Y-124502205D01*
X123646774Y-124388937D01*
X123690711Y-124345000D01*
X123815199Y-124345000D01*
X123878000Y-124407802D01*
X123878001Y-128881668D01*
X123874324Y-128919000D01*
X123888998Y-129067985D01*
X123932454Y-129211246D01*
X124003026Y-129343276D01*
X124074201Y-129430002D01*
X124098000Y-129459001D01*
X124126998Y-129482799D01*
X124836201Y-130192002D01*
X124859999Y-130221001D01*
X124975724Y-130315974D01*
X125107753Y-130386546D01*
X125251014Y-130430003D01*
X125362667Y-130441000D01*
X125362675Y-130441000D01*
X125400000Y-130444676D01*
X125437325Y-130441000D01*
X144920678Y-130441000D01*
X144958000Y-130444676D01*
X144995322Y-130441000D01*
X144995333Y-130441000D01*
X145106986Y-130430003D01*
X145250247Y-130386546D01*
X145382276Y-130315974D01*
X145498001Y-130221001D01*
X145521803Y-130191998D01*
X145534770Y-130179031D01*
X156701690Y-130179031D01*
X156701690Y-130519009D01*
X156768017Y-130852455D01*
X156898121Y-131166554D01*
X157087003Y-131449236D01*
X157327404Y-131689637D01*
X157610086Y-131878519D01*
X157924185Y-132008623D01*
X158257631Y-132074950D01*
X158597609Y-132074950D01*
X158931055Y-132008623D01*
X159245154Y-131878519D01*
X159527836Y-131689637D01*
X159768237Y-131449236D01*
X159957119Y-131166554D01*
X160087223Y-130852455D01*
X160153550Y-130519009D01*
X160153550Y-130179031D01*
X160087223Y-129845585D01*
X159957119Y-129531486D01*
X159768237Y-129248804D01*
X159527836Y-129008403D01*
X159245154Y-128819521D01*
X158931055Y-128689417D01*
X158597609Y-128623090D01*
X158257631Y-128623090D01*
X157924185Y-128689417D01*
X157610086Y-128819521D01*
X157327404Y-129008403D01*
X157087003Y-129248804D01*
X156898121Y-129531486D01*
X156768017Y-129845585D01*
X156701690Y-130179031D01*
X145534770Y-130179031D01*
X146231004Y-129482798D01*
X146260001Y-129459001D01*
X146354974Y-129343276D01*
X146425546Y-129211247D01*
X146469003Y-129067986D01*
X146480000Y-128956333D01*
X146480000Y-128956325D01*
X146483676Y-128919000D01*
X146480000Y-128881675D01*
X146480000Y-128038178D01*
X146666632Y-127913475D01*
X146873475Y-127706632D01*
X146996125Y-127523073D01*
X147027322Y-127520000D01*
X147027333Y-127520000D01*
X147138986Y-127509003D01*
X147282247Y-127465546D01*
X147414276Y-127394974D01*
X147530001Y-127300001D01*
X147553804Y-127270998D01*
X148004730Y-126820071D01*
X148004730Y-127018889D01*
X148071057Y-127352335D01*
X148201161Y-127666434D01*
X148390043Y-127949116D01*
X148630444Y-128189517D01*
X148913126Y-128378399D01*
X149227225Y-128508503D01*
X149560671Y-128574830D01*
X149900649Y-128574830D01*
X150234095Y-128508503D01*
X150548194Y-128378399D01*
X150830876Y-128189517D01*
X151071277Y-127949116D01*
X151260159Y-127666434D01*
X151390263Y-127352335D01*
X151456590Y-127018889D01*
X151456590Y-126683589D01*
X151575000Y-126683589D01*
X151575000Y-126956411D01*
X151628225Y-127223989D01*
X151732629Y-127476043D01*
X151884201Y-127702886D01*
X152077114Y-127895799D01*
X152303957Y-128047371D01*
X152556011Y-128151775D01*
X152823589Y-128205000D01*
X153096411Y-128205000D01*
X153363989Y-128151775D01*
X153616043Y-128047371D01*
X153842886Y-127895799D01*
X154035799Y-127702886D01*
X154187371Y-127476043D01*
X154291775Y-127223989D01*
X154345000Y-126956411D01*
X154345000Y-126693589D01*
X158585000Y-126693589D01*
X158585000Y-126966411D01*
X158638225Y-127233989D01*
X158742629Y-127486043D01*
X158894201Y-127712886D01*
X159087114Y-127905799D01*
X159313957Y-128057371D01*
X159566011Y-128161775D01*
X159833589Y-128215000D01*
X160106411Y-128215000D01*
X160373989Y-128161775D01*
X160626043Y-128057371D01*
X160852886Y-127905799D01*
X161045799Y-127712886D01*
X161197371Y-127486043D01*
X161301775Y-127233989D01*
X161355000Y-126966411D01*
X161355000Y-126693589D01*
X161301775Y-126426011D01*
X161197371Y-126173957D01*
X161045799Y-125947114D01*
X160852886Y-125754201D01*
X160626043Y-125602629D01*
X160373989Y-125498225D01*
X160106411Y-125445000D01*
X159833589Y-125445000D01*
X159566011Y-125498225D01*
X159313957Y-125602629D01*
X159087114Y-125754201D01*
X158894201Y-125947114D01*
X158742629Y-126173957D01*
X158638225Y-126426011D01*
X158585000Y-126693589D01*
X154345000Y-126693589D01*
X154345000Y-126683589D01*
X154291775Y-126416011D01*
X154187371Y-126163957D01*
X154035799Y-125937114D01*
X153842886Y-125744201D01*
X153616043Y-125592629D01*
X153363989Y-125488225D01*
X153096411Y-125435000D01*
X152823589Y-125435000D01*
X152556011Y-125488225D01*
X152303957Y-125592629D01*
X152077114Y-125744201D01*
X151884201Y-125937114D01*
X151732629Y-126163957D01*
X151628225Y-126416011D01*
X151575000Y-126683589D01*
X151456590Y-126683589D01*
X151456590Y-126678911D01*
X151390263Y-126345465D01*
X151260159Y-126031366D01*
X151071277Y-125748684D01*
X151005436Y-125682843D01*
X151249234Y-125581859D01*
X151531916Y-125392977D01*
X151772317Y-125152576D01*
X151961199Y-124869894D01*
X152091303Y-124555795D01*
X152157630Y-124222349D01*
X152157630Y-123882371D01*
X152091303Y-123548925D01*
X151961199Y-123234826D01*
X151772317Y-122952144D01*
X151531916Y-122711743D01*
X151249234Y-122522861D01*
X150935135Y-122392757D01*
X150601689Y-122326430D01*
X150261711Y-122326430D01*
X149928265Y-122392757D01*
X149614166Y-122522861D01*
X149331484Y-122711743D01*
X149091083Y-122952144D01*
X148902201Y-123234826D01*
X148772097Y-123548925D01*
X148766000Y-123579576D01*
X148766000Y-122883801D01*
X149971802Y-121678000D01*
X157993145Y-121678000D01*
X157924185Y-121691717D01*
X157610086Y-121821821D01*
X157327404Y-122010703D01*
X157087003Y-122251104D01*
X156898121Y-122533786D01*
X156768017Y-122847885D01*
X156701690Y-123181331D01*
X156701690Y-123521309D01*
X156768017Y-123854755D01*
X156898121Y-124168854D01*
X157087003Y-124451536D01*
X157327404Y-124691937D01*
X157610086Y-124880819D01*
X157924185Y-125010923D01*
X158257631Y-125077250D01*
X158597609Y-125077250D01*
X158931055Y-125010923D01*
X159245154Y-124880819D01*
X159527836Y-124691937D01*
X159768237Y-124451536D01*
X159957119Y-124168854D01*
X160087223Y-123854755D01*
X160153550Y-123521309D01*
X160153550Y-123181331D01*
X160087223Y-122847885D01*
X159957119Y-122533786D01*
X159768237Y-122251104D01*
X159527836Y-122010703D01*
X159245154Y-121821821D01*
X158931055Y-121691717D01*
X158862095Y-121678000D01*
X159398678Y-121678000D01*
X159436000Y-121681676D01*
X159473322Y-121678000D01*
X159473333Y-121678000D01*
X159584986Y-121667003D01*
X159728247Y-121623546D01*
X159860276Y-121552974D01*
X159976001Y-121458001D01*
X159999804Y-121428997D01*
X161217004Y-120211798D01*
X161246001Y-120188001D01*
X161340974Y-120072276D01*
X161411546Y-119940247D01*
X161455003Y-119796986D01*
X161466000Y-119685333D01*
X161466000Y-119685324D01*
X161469676Y-119648001D01*
X161466000Y-119610678D01*
X161466000Y-116463322D01*
X161469676Y-116425999D01*
X161466000Y-116388676D01*
X161466000Y-116388667D01*
X161455003Y-116277014D01*
X161411546Y-116133753D01*
X161340974Y-116001724D01*
X161246001Y-115885999D01*
X161217003Y-115862201D01*
X159903731Y-114548930D01*
X159955000Y-114291184D01*
X159955000Y-113988816D01*
X159896011Y-113692257D01*
X159780299Y-113412905D01*
X159612312Y-113161495D01*
X159398505Y-112947688D01*
X159147095Y-112779701D01*
X158867743Y-112663989D01*
X158571184Y-112605000D01*
X158268816Y-112605000D01*
X157972257Y-112663989D01*
X157692905Y-112779701D01*
X157441495Y-112947688D01*
X157227688Y-113161495D01*
X157059701Y-113412905D01*
X156943989Y-113692257D01*
X156885000Y-113988816D01*
X156885000Y-114291184D01*
X156943989Y-114587743D01*
X157059701Y-114867095D01*
X157227688Y-115118505D01*
X157441495Y-115332312D01*
X157527831Y-115390000D01*
X157441495Y-115447688D01*
X157227688Y-115661495D01*
X157108415Y-115840000D01*
X144995322Y-115840000D01*
X144957999Y-115836324D01*
X144920676Y-115840000D01*
X144920667Y-115840000D01*
X144809014Y-115850997D01*
X144693626Y-115885999D01*
X144665753Y-115894454D01*
X144533723Y-115965026D01*
X144489007Y-116001724D01*
X144417999Y-116059999D01*
X144394201Y-116088997D01*
X143303998Y-117179201D01*
X143275000Y-117202999D01*
X143251202Y-117231997D01*
X143251201Y-117231998D01*
X143180026Y-117318724D01*
X143109454Y-117450754D01*
X143079180Y-117550558D01*
X143065998Y-117594014D01*
X143063586Y-117618505D01*
X143051324Y-117743000D01*
X143055001Y-117780332D01*
X143055000Y-124667198D01*
X141087199Y-126635000D01*
X127627711Y-126635000D01*
X127583774Y-126591063D01*
X127414256Y-126477795D01*
X127225898Y-126399774D01*
X127025939Y-126360000D01*
X126822061Y-126360000D01*
X126622102Y-126399774D01*
X126433744Y-126477795D01*
X126264226Y-126591063D01*
X126120063Y-126735226D01*
X126006795Y-126904744D01*
X125928774Y-127093102D01*
X125889000Y-127293061D01*
X125889000Y-127496939D01*
X125928774Y-127696898D01*
X126006795Y-127885256D01*
X126120063Y-128054774D01*
X126264226Y-128198937D01*
X126433744Y-128312205D01*
X126622102Y-128390226D01*
X126822061Y-128430000D01*
X127025939Y-128430000D01*
X127225898Y-128390226D01*
X127414256Y-128312205D01*
X127583774Y-128198937D01*
X127627711Y-128155000D01*
X141364678Y-128155000D01*
X141402000Y-128158676D01*
X141439322Y-128155000D01*
X141439333Y-128155000D01*
X141550986Y-128144003D01*
X141694247Y-128100546D01*
X141826276Y-128029974D01*
X141942001Y-127935001D01*
X141965804Y-127905997D01*
X144326004Y-125545798D01*
X144355001Y-125522001D01*
X144449974Y-125406276D01*
X144520546Y-125274247D01*
X144557354Y-125152906D01*
X144566525Y-125166632D01*
X144773368Y-125373475D01*
X144947760Y-125490000D01*
X144773368Y-125606525D01*
X144566525Y-125813368D01*
X144404010Y-126056589D01*
X144292068Y-126326842D01*
X144235000Y-126613740D01*
X144235000Y-126906260D01*
X144292068Y-127193158D01*
X144404010Y-127463411D01*
X144566525Y-127706632D01*
X144773368Y-127913475D01*
X144960001Y-128038179D01*
X144960000Y-128604198D01*
X144643199Y-128921000D01*
X125714802Y-128921000D01*
X125398000Y-128604199D01*
X125398000Y-124753061D01*
X125889000Y-124753061D01*
X125889000Y-124956939D01*
X125928774Y-125156898D01*
X126006795Y-125345256D01*
X126120063Y-125514774D01*
X126264226Y-125658937D01*
X126433744Y-125772205D01*
X126622102Y-125850226D01*
X126822061Y-125890000D01*
X127025939Y-125890000D01*
X127225898Y-125850226D01*
X127414256Y-125772205D01*
X127583774Y-125658937D01*
X127627711Y-125615000D01*
X140348678Y-125615000D01*
X140386000Y-125618676D01*
X140423322Y-125615000D01*
X140423333Y-125615000D01*
X140534986Y-125604003D01*
X140678247Y-125560546D01*
X140810276Y-125489974D01*
X140926001Y-125395001D01*
X140949804Y-125365997D01*
X142611504Y-123704298D01*
X142640501Y-123680501D01*
X142718877Y-123585000D01*
X142735474Y-123564777D01*
X142806046Y-123432747D01*
X142819785Y-123387454D01*
X142849503Y-123289486D01*
X142860500Y-123177833D01*
X142860500Y-123177824D01*
X142864176Y-123140501D01*
X142860500Y-123103178D01*
X142860500Y-117486301D01*
X144637802Y-115709000D01*
X152032678Y-115709000D01*
X152070000Y-115712676D01*
X152107322Y-115709000D01*
X152107333Y-115709000D01*
X152218986Y-115698003D01*
X152362247Y-115654546D01*
X152494276Y-115583974D01*
X152610001Y-115489001D01*
X152633804Y-115459997D01*
X154740004Y-113353798D01*
X154769001Y-113330001D01*
X154795332Y-113297917D01*
X154863974Y-113214277D01*
X154934546Y-113082247D01*
X154975363Y-112947688D01*
X154978003Y-112938986D01*
X154989000Y-112827333D01*
X154989000Y-112827324D01*
X154992676Y-112790001D01*
X154989000Y-112752678D01*
X154989000Y-106754801D01*
X155773802Y-105970000D01*
X157081687Y-105970000D01*
X157227688Y-106188505D01*
X157441495Y-106402312D01*
X157527831Y-106460000D01*
X157441495Y-106517688D01*
X157227688Y-106731495D01*
X157059701Y-106982905D01*
X156943989Y-107262257D01*
X156885000Y-107558816D01*
X156885000Y-107861184D01*
X156943989Y-108157743D01*
X157059701Y-108437095D01*
X157227688Y-108688505D01*
X157441495Y-108902312D01*
X157692905Y-109070299D01*
X157972257Y-109186011D01*
X158268816Y-109245000D01*
X158571184Y-109245000D01*
X158867743Y-109186011D01*
X159147095Y-109070299D01*
X159398505Y-108902312D01*
X159612312Y-108688505D01*
X159780299Y-108437095D01*
X159896011Y-108157743D01*
X159955000Y-107861184D01*
X159955000Y-107558816D01*
X159896011Y-107262257D01*
X159780299Y-106982905D01*
X159612312Y-106731495D01*
X159398505Y-106517688D01*
X159312169Y-106460000D01*
X159398505Y-106402312D01*
X159612312Y-106188505D01*
X159763313Y-105962517D01*
X159798986Y-105959003D01*
X159942247Y-105915546D01*
X160074276Y-105844974D01*
X160190001Y-105750001D01*
X160213804Y-105720998D01*
X161217004Y-104717798D01*
X161246001Y-104694001D01*
X161340974Y-104578276D01*
X161411546Y-104446247D01*
X161455003Y-104302986D01*
X161466000Y-104191333D01*
X161466000Y-104191332D01*
X161469677Y-104154000D01*
X161466000Y-104116667D01*
X161466000Y-92413322D01*
X161469676Y-92375999D01*
X161466000Y-92338676D01*
X161466000Y-92338667D01*
X161455003Y-92227014D01*
X161411546Y-92083753D01*
X161370571Y-92007095D01*
X161340974Y-91951723D01*
X161269799Y-91864997D01*
X161246001Y-91835999D01*
X161217003Y-91812201D01*
X160173804Y-90769002D01*
X160150001Y-90739999D01*
X160034276Y-90645026D01*
X159902247Y-90574454D01*
X159767357Y-90533536D01*
X159612312Y-90301495D01*
X159398505Y-90087688D01*
X159147095Y-89919701D01*
X158867743Y-89803989D01*
X158571184Y-89745000D01*
X158268816Y-89745000D01*
X157972257Y-89803989D01*
X157692905Y-89919701D01*
X157441495Y-90087688D01*
X157227688Y-90301495D01*
X157059701Y-90552905D01*
X156943989Y-90832257D01*
X156885000Y-91128816D01*
X156885000Y-91431184D01*
X156943989Y-91727743D01*
X157059701Y-92007095D01*
X157227688Y-92258505D01*
X157441495Y-92472312D01*
X157527831Y-92530000D01*
X157441495Y-92587688D01*
X157227688Y-92801495D01*
X157081687Y-93020000D01*
X154099322Y-93020000D01*
X154061999Y-93016324D01*
X154024676Y-93020000D01*
X154024667Y-93020000D01*
X153913014Y-93030997D01*
X153769753Y-93074454D01*
X153637724Y-93145026D01*
X153521999Y-93239999D01*
X153498201Y-93268997D01*
X151685998Y-95081201D01*
X151657000Y-95104999D01*
X151633202Y-95133997D01*
X151633201Y-95133998D01*
X151562026Y-95220724D01*
X151491454Y-95352754D01*
X151447998Y-95496015D01*
X151433324Y-95645000D01*
X151437001Y-95682333D01*
X151437000Y-111205198D01*
X150485199Y-112157000D01*
X144106333Y-112157000D01*
X144069000Y-112153323D01*
X144031667Y-112157000D01*
X143920014Y-112167997D01*
X143776753Y-112211454D01*
X143644724Y-112282026D01*
X143528999Y-112376999D01*
X143505201Y-112405997D01*
X139874998Y-116036201D01*
X139846000Y-116059999D01*
X139822202Y-116088997D01*
X139822201Y-116088998D01*
X139751026Y-116175724D01*
X139680454Y-116307754D01*
X139636998Y-116451015D01*
X139622324Y-116600000D01*
X139626001Y-116637332D01*
X139626000Y-120849289D01*
X139582063Y-120893226D01*
X139468795Y-121062744D01*
X139390774Y-121251102D01*
X139351000Y-121451061D01*
X139351000Y-121654939D01*
X139390774Y-121854898D01*
X139468795Y-122043256D01*
X139582063Y-122212774D01*
X139726226Y-122356937D01*
X139895744Y-122470205D01*
X140084102Y-122548226D01*
X140284061Y-122588000D01*
X140487939Y-122588000D01*
X140687898Y-122548226D01*
X140876256Y-122470205D01*
X141045774Y-122356937D01*
X141189937Y-122212774D01*
X141303205Y-122043256D01*
X141340500Y-121953218D01*
X141340500Y-122825698D01*
X140071199Y-124095000D01*
X127627711Y-124095000D01*
X127583774Y-124051063D01*
X127414256Y-123937795D01*
X127225898Y-123859774D01*
X127025939Y-123820000D01*
X126822061Y-123820000D01*
X126622102Y-123859774D01*
X126433744Y-123937795D01*
X126264226Y-124051063D01*
X126120063Y-124195226D01*
X126006795Y-124364744D01*
X125928774Y-124553102D01*
X125889000Y-124753061D01*
X125398000Y-124753061D01*
X125398000Y-124130322D01*
X125401676Y-124092999D01*
X125398000Y-124055676D01*
X125398000Y-124055667D01*
X125387003Y-123944014D01*
X125343546Y-123800753D01*
X125272974Y-123668724D01*
X125178001Y-123552999D01*
X125149003Y-123529202D01*
X124693803Y-123074002D01*
X124670001Y-123044999D01*
X124554276Y-122950026D01*
X124422247Y-122879454D01*
X124278986Y-122835997D01*
X124167333Y-122825000D01*
X124167322Y-122825000D01*
X124130000Y-122821324D01*
X124092678Y-122825000D01*
X123690711Y-122825000D01*
X123646774Y-122781063D01*
X123477256Y-122667795D01*
X123288898Y-122589774D01*
X123088939Y-122550000D01*
X122885061Y-122550000D01*
X122685102Y-122589774D01*
X122496744Y-122667795D01*
X122327226Y-122781063D01*
X122183063Y-122925226D01*
X122069795Y-123094744D01*
X121991774Y-123283102D01*
X121952000Y-123483061D01*
X113097000Y-123483061D01*
X113097000Y-123447408D01*
X113043314Y-123177510D01*
X112938005Y-122923273D01*
X112785120Y-122694465D01*
X112590535Y-122499880D01*
X112361727Y-122346995D01*
X112107490Y-122241686D01*
X111837592Y-122188000D01*
X112107490Y-122134314D01*
X112361727Y-122029005D01*
X112590535Y-121876120D01*
X112785120Y-121681535D01*
X112938005Y-121452727D01*
X113043314Y-121198490D01*
X113097000Y-120928592D01*
X113097000Y-120653408D01*
X113043314Y-120383510D01*
X112938005Y-120129273D01*
X112785120Y-119900465D01*
X112590535Y-119705880D01*
X112361727Y-119552995D01*
X112107490Y-119447686D01*
X111837592Y-119394000D01*
X112107490Y-119340314D01*
X112361727Y-119235005D01*
X112590535Y-119082120D01*
X112785120Y-118887535D01*
X112938005Y-118658727D01*
X113043314Y-118404490D01*
X113097000Y-118134592D01*
X113097000Y-117859408D01*
X113043314Y-117589510D01*
X112938005Y-117335273D01*
X112785120Y-117106465D01*
X112590535Y-116911880D01*
X112361727Y-116758995D01*
X112131183Y-116663500D01*
X112361727Y-116568005D01*
X112590535Y-116415120D01*
X112785120Y-116220535D01*
X112938005Y-115991727D01*
X113043314Y-115737490D01*
X113097000Y-115467592D01*
X113097000Y-115192408D01*
X113043314Y-114922510D01*
X112938005Y-114668273D01*
X112785120Y-114439465D01*
X112590535Y-114244880D01*
X112361727Y-114091995D01*
X112107490Y-113986686D01*
X111837592Y-113933000D01*
X112107490Y-113879314D01*
X112361727Y-113774005D01*
X112590535Y-113621120D01*
X112785120Y-113426535D01*
X112938005Y-113197727D01*
X113043314Y-112943490D01*
X113097000Y-112673592D01*
X113097000Y-112398408D01*
X113043314Y-112128510D01*
X112938005Y-111874273D01*
X112785120Y-111645465D01*
X112590535Y-111450880D01*
X112361727Y-111297995D01*
X112107490Y-111192686D01*
X111837592Y-111139000D01*
X112107490Y-111085314D01*
X112361727Y-110980005D01*
X112590535Y-110827120D01*
X112785120Y-110632535D01*
X112938005Y-110403727D01*
X113043314Y-110149490D01*
X113097000Y-109879592D01*
X113097000Y-109604408D01*
X113043314Y-109334510D01*
X112938005Y-109080273D01*
X112785120Y-108851465D01*
X112590535Y-108656880D01*
X112361727Y-108503995D01*
X112107490Y-108398686D01*
X111837592Y-108345000D01*
X112107490Y-108291314D01*
X112361727Y-108186005D01*
X112590535Y-108033120D01*
X112785120Y-107838535D01*
X112938005Y-107609727D01*
X113043314Y-107355490D01*
X113097000Y-107085592D01*
X113097000Y-106810408D01*
X113043314Y-106540510D01*
X112938005Y-106286273D01*
X112785120Y-106057465D01*
X112590535Y-105862880D01*
X112361727Y-105709995D01*
X112131183Y-105614500D01*
X112361727Y-105519005D01*
X112590535Y-105366120D01*
X112785120Y-105171535D01*
X112938005Y-104942727D01*
X113043314Y-104688490D01*
X113097000Y-104418592D01*
X113097000Y-104143408D01*
X113043314Y-103873510D01*
X112938005Y-103619273D01*
X112785120Y-103390465D01*
X112590535Y-103195880D01*
X112361727Y-103042995D01*
X112107490Y-102937686D01*
X111837592Y-102884000D01*
X112107490Y-102830314D01*
X112361727Y-102725005D01*
X112590535Y-102572120D01*
X112785120Y-102377535D01*
X112938005Y-102148727D01*
X113043314Y-101894490D01*
X113097000Y-101624592D01*
X113097000Y-101349408D01*
X113043314Y-101079510D01*
X112938005Y-100825273D01*
X112785120Y-100596465D01*
X112590535Y-100401880D01*
X112361727Y-100248995D01*
X112107490Y-100143686D01*
X111853036Y-100093072D01*
X112462000Y-100093072D01*
X112586482Y-100080812D01*
X112706180Y-100044502D01*
X112816494Y-99985537D01*
X112913185Y-99906185D01*
X112992537Y-99809494D01*
X113051502Y-99699180D01*
X113087812Y-99579482D01*
X113100072Y-99455000D01*
X113100072Y-97931000D01*
X113087812Y-97806518D01*
X113051502Y-97686820D01*
X112992537Y-97576506D01*
X112913185Y-97479815D01*
X112816494Y-97400463D01*
X112706180Y-97341498D01*
X112586482Y-97305188D01*
X112462000Y-97292928D01*
X110938000Y-97292928D01*
X110813518Y-97305188D01*
X110693820Y-97341498D01*
X110583506Y-97400463D01*
X110486815Y-97479815D01*
X110407463Y-97576506D01*
X110348498Y-97686820D01*
X110312188Y-97806518D01*
X110299928Y-97931000D01*
X110299928Y-99281491D01*
X110245120Y-99199465D01*
X110050535Y-99004880D01*
X109821727Y-98851995D01*
X109567490Y-98746686D01*
X109297592Y-98693000D01*
X109022408Y-98693000D01*
X108752510Y-98746686D01*
X108498273Y-98851995D01*
X108269465Y-99004880D01*
X108074880Y-99199465D01*
X107921995Y-99428273D01*
X107816686Y-99682510D01*
X107763000Y-99952408D01*
X104918072Y-99952408D01*
X104918072Y-99171667D01*
X104905812Y-99047185D01*
X104869502Y-98927487D01*
X104810537Y-98817173D01*
X104731185Y-98720482D01*
X104634494Y-98641130D01*
X104524180Y-98582165D01*
X104404482Y-98545855D01*
X104280000Y-98533595D01*
X100800000Y-98533595D01*
X100710000Y-98542459D01*
X100710000Y-89370000D01*
X109532782Y-89370000D01*
X109419109Y-89392611D01*
G37*
%TD.AperFunction*%
D25*
X159946000Y-119333198D02*
X159121199Y-120158000D01*
X149694333Y-120158000D01*
X149657000Y-120154323D01*
X149619667Y-120158000D01*
X149508014Y-120168997D01*
X149364753Y-120212454D01*
X149232724Y-120283026D01*
X149116999Y-120377999D01*
X149093201Y-120406997D01*
X147494998Y-122005201D01*
X147466000Y-122028999D01*
X147442202Y-122057997D01*
X147442201Y-122057998D01*
X147371026Y-122144724D01*
X147300454Y-122276754D01*
X147256998Y-122420015D01*
X147242324Y-122569000D01*
X147246001Y-122606332D01*
X147246000Y-125429198D01*
X146867653Y-125807546D01*
X146666632Y-125606525D01*
X146492240Y-125490000D01*
X146666632Y-125373475D01*
X146873475Y-125166632D01*
X147035990Y-124923411D01*
X147147932Y-124653158D01*
X147205000Y-124366260D01*
X147205000Y-124073740D01*
X147147932Y-123786842D01*
X147035990Y-123516589D01*
X146873475Y-123273368D01*
X146741620Y-123141513D01*
X146814180Y-123119502D01*
X146924494Y-123060537D01*
X147021185Y-122981185D01*
X147100537Y-122884494D01*
X147159502Y-122774180D01*
X147195812Y-122654482D01*
X147208072Y-122530000D01*
X147208072Y-120830000D01*
X147195812Y-120705518D01*
X147159502Y-120585820D01*
X147100537Y-120475506D01*
X147021185Y-120378815D01*
X146924494Y-120299463D01*
X146814180Y-120240498D01*
X146694482Y-120204188D01*
X146570000Y-120191928D01*
X144870000Y-120191928D01*
X144745518Y-120204188D01*
X144625820Y-120240498D01*
X144575000Y-120267662D01*
X144575000Y-118057801D01*
X145272802Y-117360000D01*
X157056762Y-117360000D01*
X157059701Y-117367095D01*
X157227688Y-117618505D01*
X157441495Y-117832312D01*
X157692905Y-118000299D01*
X157972257Y-118116011D01*
X158268816Y-118175000D01*
X158571184Y-118175000D01*
X158867743Y-118116011D01*
X159147095Y-118000299D01*
X159398505Y-117832312D01*
X159612312Y-117618505D01*
X159780299Y-117367095D01*
X159896011Y-117087743D01*
X159946001Y-116836426D01*
X159946000Y-119333198D01*
%TA.AperFunction,Conductor*%
D26*
G36*
X159946000Y-119333198D02*
G01*
X159121199Y-120158000D01*
X149694333Y-120158000D01*
X149657000Y-120154323D01*
X149619667Y-120158000D01*
X149508014Y-120168997D01*
X149364753Y-120212454D01*
X149232724Y-120283026D01*
X149116999Y-120377999D01*
X149093201Y-120406997D01*
X147494998Y-122005201D01*
X147466000Y-122028999D01*
X147442202Y-122057997D01*
X147442201Y-122057998D01*
X147371026Y-122144724D01*
X147300454Y-122276754D01*
X147256998Y-122420015D01*
X147242324Y-122569000D01*
X147246001Y-122606332D01*
X147246000Y-125429198D01*
X146867653Y-125807546D01*
X146666632Y-125606525D01*
X146492240Y-125490000D01*
X146666632Y-125373475D01*
X146873475Y-125166632D01*
X147035990Y-124923411D01*
X147147932Y-124653158D01*
X147205000Y-124366260D01*
X147205000Y-124073740D01*
X147147932Y-123786842D01*
X147035990Y-123516589D01*
X146873475Y-123273368D01*
X146741620Y-123141513D01*
X146814180Y-123119502D01*
X146924494Y-123060537D01*
X147021185Y-122981185D01*
X147100537Y-122884494D01*
X147159502Y-122774180D01*
X147195812Y-122654482D01*
X147208072Y-122530000D01*
X147208072Y-120830000D01*
X147195812Y-120705518D01*
X147159502Y-120585820D01*
X147100537Y-120475506D01*
X147021185Y-120378815D01*
X146924494Y-120299463D01*
X146814180Y-120240498D01*
X146694482Y-120204188D01*
X146570000Y-120191928D01*
X144870000Y-120191928D01*
X144745518Y-120204188D01*
X144625820Y-120240498D01*
X144575000Y-120267662D01*
X144575000Y-118057801D01*
X145272802Y-117360000D01*
X157056762Y-117360000D01*
X157059701Y-117367095D01*
X157227688Y-117618505D01*
X157441495Y-117832312D01*
X157692905Y-118000299D01*
X157972257Y-118116011D01*
X158268816Y-118175000D01*
X158571184Y-118175000D01*
X158867743Y-118116011D01*
X159147095Y-118000299D01*
X159398505Y-117832312D01*
X159612312Y-117618505D01*
X159780299Y-117367095D01*
X159896011Y-117087743D01*
X159946001Y-116836426D01*
X159946000Y-119333198D01*
G37*
%TD.AperFunction*%
D25*
X157227688Y-94758505D02*
X157441495Y-94972312D01*
X157527831Y-95030000D01*
X157441495Y-95087688D01*
X157227688Y-95301495D01*
X157059701Y-95552905D01*
X156943989Y-95832257D01*
X156885000Y-96128816D01*
X156885000Y-96431184D01*
X156943989Y-96727743D01*
X157059701Y-97007095D01*
X157227688Y-97258505D01*
X157441495Y-97472312D01*
X157692905Y-97640299D01*
X157972257Y-97756011D01*
X158268816Y-97815000D01*
X158571184Y-97815000D01*
X158867743Y-97756011D01*
X159147095Y-97640299D01*
X159398505Y-97472312D01*
X159612312Y-97258505D01*
X159780299Y-97007095D01*
X159896011Y-96727743D01*
X159946001Y-96476427D01*
X159946000Y-102513570D01*
X159896011Y-102262257D01*
X159780299Y-101982905D01*
X159612312Y-101731495D01*
X159398505Y-101517688D01*
X159147095Y-101349701D01*
X158867743Y-101233989D01*
X158571184Y-101175000D01*
X158268816Y-101175000D01*
X157972257Y-101233989D01*
X157692905Y-101349701D01*
X157441495Y-101517688D01*
X157227688Y-101731495D01*
X157059701Y-101982905D01*
X156943989Y-102262257D01*
X156885000Y-102558816D01*
X156885000Y-102861184D01*
X156943989Y-103157743D01*
X157059701Y-103437095D01*
X157227688Y-103688505D01*
X157441495Y-103902312D01*
X157527831Y-103960000D01*
X157441495Y-104017688D01*
X157227688Y-104231495D01*
X157081687Y-104450000D01*
X155496325Y-104450000D01*
X155459000Y-104446324D01*
X155421675Y-104450000D01*
X155421667Y-104450000D01*
X155310014Y-104460997D01*
X155166753Y-104504454D01*
X155034724Y-104575026D01*
X154918999Y-104669999D01*
X154895201Y-104698997D01*
X153717998Y-105876201D01*
X153689000Y-105899999D01*
X153665202Y-105928997D01*
X153665201Y-105928998D01*
X153594026Y-106015724D01*
X153523454Y-106147754D01*
X153479998Y-106291015D01*
X153465324Y-106440000D01*
X153469001Y-106477332D01*
X153469000Y-112475198D01*
X151755199Y-114189000D01*
X144360325Y-114189000D01*
X144323000Y-114185324D01*
X144285675Y-114189000D01*
X144285667Y-114189000D01*
X144174014Y-114199997D01*
X144030753Y-114243454D01*
X143898724Y-114314026D01*
X143782999Y-114408999D01*
X143759201Y-114437997D01*
X141589498Y-116607701D01*
X141560500Y-116631499D01*
X141536702Y-116660497D01*
X141536701Y-116660498D01*
X141465526Y-116747224D01*
X141394954Y-116879254D01*
X141378880Y-116932246D01*
X141351498Y-117022514D01*
X141340759Y-117131546D01*
X141336824Y-117171500D01*
X141340501Y-117208832D01*
X141340500Y-121152782D01*
X141303205Y-121062744D01*
X141189937Y-120893226D01*
X141146000Y-120849289D01*
X141146000Y-116914801D01*
X144383802Y-113677000D01*
X150762678Y-113677000D01*
X150800000Y-113680676D01*
X150837322Y-113677000D01*
X150837333Y-113677000D01*
X150948986Y-113666003D01*
X151092247Y-113622546D01*
X151224276Y-113551974D01*
X151340001Y-113457001D01*
X151363804Y-113427997D01*
X152708004Y-112083798D01*
X152737001Y-112060001D01*
X152831974Y-111944276D01*
X152902546Y-111812247D01*
X152946003Y-111668986D01*
X152957000Y-111557333D01*
X152957000Y-111557324D01*
X152960676Y-111520001D01*
X152957000Y-111482678D01*
X152957000Y-95959801D01*
X154376802Y-94540000D01*
X157081687Y-94540000D01*
X157227688Y-94758505D01*
%TA.AperFunction,Conductor*%
D26*
G36*
X157227688Y-94758505D02*
G01*
X157441495Y-94972312D01*
X157527831Y-95030000D01*
X157441495Y-95087688D01*
X157227688Y-95301495D01*
X157059701Y-95552905D01*
X156943989Y-95832257D01*
X156885000Y-96128816D01*
X156885000Y-96431184D01*
X156943989Y-96727743D01*
X157059701Y-97007095D01*
X157227688Y-97258505D01*
X157441495Y-97472312D01*
X157692905Y-97640299D01*
X157972257Y-97756011D01*
X158268816Y-97815000D01*
X158571184Y-97815000D01*
X158867743Y-97756011D01*
X159147095Y-97640299D01*
X159398505Y-97472312D01*
X159612312Y-97258505D01*
X159780299Y-97007095D01*
X159896011Y-96727743D01*
X159946001Y-96476427D01*
X159946000Y-102513570D01*
X159896011Y-102262257D01*
X159780299Y-101982905D01*
X159612312Y-101731495D01*
X159398505Y-101517688D01*
X159147095Y-101349701D01*
X158867743Y-101233989D01*
X158571184Y-101175000D01*
X158268816Y-101175000D01*
X157972257Y-101233989D01*
X157692905Y-101349701D01*
X157441495Y-101517688D01*
X157227688Y-101731495D01*
X157059701Y-101982905D01*
X156943989Y-102262257D01*
X156885000Y-102558816D01*
X156885000Y-102861184D01*
X156943989Y-103157743D01*
X157059701Y-103437095D01*
X157227688Y-103688505D01*
X157441495Y-103902312D01*
X157527831Y-103960000D01*
X157441495Y-104017688D01*
X157227688Y-104231495D01*
X157081687Y-104450000D01*
X155496325Y-104450000D01*
X155459000Y-104446324D01*
X155421675Y-104450000D01*
X155421667Y-104450000D01*
X155310014Y-104460997D01*
X155166753Y-104504454D01*
X155034724Y-104575026D01*
X154918999Y-104669999D01*
X154895201Y-104698997D01*
X153717998Y-105876201D01*
X153689000Y-105899999D01*
X153665202Y-105928997D01*
X153665201Y-105928998D01*
X153594026Y-106015724D01*
X153523454Y-106147754D01*
X153479998Y-106291015D01*
X153465324Y-106440000D01*
X153469001Y-106477332D01*
X153469000Y-112475198D01*
X151755199Y-114189000D01*
X144360325Y-114189000D01*
X144323000Y-114185324D01*
X144285675Y-114189000D01*
X144285667Y-114189000D01*
X144174014Y-114199997D01*
X144030753Y-114243454D01*
X143898724Y-114314026D01*
X143782999Y-114408999D01*
X143759201Y-114437997D01*
X141589498Y-116607701D01*
X141560500Y-116631499D01*
X141536702Y-116660497D01*
X141536701Y-116660498D01*
X141465526Y-116747224D01*
X141394954Y-116879254D01*
X141378880Y-116932246D01*
X141351498Y-117022514D01*
X141340759Y-117131546D01*
X141336824Y-117171500D01*
X141340501Y-117208832D01*
X141340500Y-121152782D01*
X141303205Y-121062744D01*
X141189937Y-120893226D01*
X141146000Y-120849289D01*
X141146000Y-116914801D01*
X144383802Y-113677000D01*
X150762678Y-113677000D01*
X150800000Y-113680676D01*
X150837322Y-113677000D01*
X150837333Y-113677000D01*
X150948986Y-113666003D01*
X151092247Y-113622546D01*
X151224276Y-113551974D01*
X151340001Y-113457001D01*
X151363804Y-113427997D01*
X152708004Y-112083798D01*
X152737001Y-112060001D01*
X152831974Y-111944276D01*
X152902546Y-111812247D01*
X152946003Y-111668986D01*
X152957000Y-111557333D01*
X152957000Y-111557324D01*
X152960676Y-111520001D01*
X152957000Y-111482678D01*
X152957000Y-95959801D01*
X154376802Y-94540000D01*
X157081687Y-94540000D01*
X157227688Y-94758505D01*
G37*
%TD.AperFunction*%
%TD*%
M02*
