M48
; DRILL file {KiCad (5.1.9)-1} date 01/10/21 22:29:01
; FORMAT={-:-/ absolute / metric / decimal}
; #@! TF.CreationDate,2021-01-10T22:29:01+11:00
; #@! TF.GenerationSoftware,Kicad,Pcbnew,(5.1.9)-1
; #@! TF.FileFunction,Plated,1,2,PTH
FMAT,2
METRIC
T1C0.450
T2C0.500
T3C0.550
T4C1.000
T5C1.016
T6C1.298
T7C3.048
T8C3.200
%
G90
G05
T1
X106.477Y-102.884
X106.477Y-105.678
X106.477Y-108.345
X114.478Y-102.884
X114.478Y-105.678
X114.478Y-108.345
X114.478Y-111.266
X114.478Y-113.806
X114.478Y-116.6
X114.478Y-119.521
X121.717Y-131.84
X122.987Y-123.585
X126.924Y-124.855
X126.924Y-127.395
X133.528Y-128.665
X134.29Y-131.84
X140.386Y-121.553
X155.245Y-99.455
T2
X116.65Y-92.47
X116.65Y-138.19
X117.353Y-90.773
X117.353Y-94.167
X117.353Y-136.493
X117.353Y-139.887
X119.05Y-90.07
X119.05Y-94.87
X119.05Y-135.79
X119.05Y-140.59
X120.747Y-90.773
X120.747Y-94.167
X120.747Y-136.493
X120.747Y-139.887
X121.45Y-92.47
X121.45Y-138.19
X142.05Y-92.47
X142.05Y-138.19
X142.753Y-90.773
X142.753Y-94.167
X142.753Y-136.493
X142.753Y-139.887
X144.45Y-90.07
X144.45Y-94.87
X144.45Y-135.79
X144.45Y-140.59
X146.147Y-90.773
X146.147Y-94.167
X146.147Y-136.493
X146.147Y-139.887
X146.85Y-92.47
X146.85Y-138.19
T4
X145.72Y-121.68
X145.72Y-124.22
X145.72Y-126.76
X158.42Y-91.28
X158.42Y-93.78
X158.42Y-96.28
X158.42Y-102.71
X158.42Y-105.21
X158.42Y-107.71
X158.42Y-114.14
X158.42Y-116.64
X158.42Y-119.14
T5
X109.16Y-100.09
X109.16Y-102.884
X109.16Y-105.627
X109.16Y-108.32
X109.16Y-111.164
X109.16Y-113.908
X109.16Y-116.651
X109.16Y-119.445
X109.16Y-122.188
X109.16Y-124.931
X109.16Y-127.725
X109.16Y-130.265
X111.7Y-98.693
X111.7Y-101.487
X111.7Y-104.281
X111.7Y-106.948
X111.7Y-109.742
X111.7Y-112.536
X111.7Y-115.33
X111.7Y-117.997
X111.7Y-120.791
X111.7Y-123.585
X111.7Y-126.379
X111.7Y-129.046
X111.7Y-131.84
T6
X149.731Y-126.849
X150.432Y-124.052
X150.432Y-129.648
X158.428Y-123.351
X158.428Y-130.349
T7
X110.16Y-91.835
X110.16Y-138.825
T8
X119.05Y-92.47
X119.05Y-138.19
X144.45Y-92.47
X144.45Y-138.19
T2
G00X159.882Y-133.421
M15
G01X159.232Y-133.421
M16
G05
G00X159.882Y-140.421
M15
G01X159.232Y-140.421
M16
G05
T3
G00X156.857Y-134.571
M15
G01X156.857Y-134.271
M16
G05
G00X156.857Y-139.571
M15
G01X156.857Y-139.271
M16
G05
T0
M30
