%TF.GenerationSoftware,KiCad,Pcbnew,(5.1.9)-1*%
%TF.CreationDate,2021-01-10T22:28:58+11:00*%
%TF.ProjectId,pcb-covox-amp,7063622d-636f-4766-9f78-2d616d702e6b,3*%
%TF.SameCoordinates,Original*%
%TF.FileFunction,Soldermask,Top*%
%TF.FilePolarity,Negative*%
%FSLAX46Y46*%
G04 Gerber Fmt 4.6, Leading zero omitted, Abs format (unit mm)*
G04 Created by KiCad (PCBNEW (5.1.9)-1) date 2021-01-10 22:28:58*
%MOMM*%
%LPD*%
G01*
G04 APERTURE LIST*
%ADD10C,4.210000*%
%ADD11C,1.924000*%
%ADD12C,1.900000*%
%ADD13C,2.581860*%
%ADD14C,2.200000*%
%ADD15C,6.800000*%
%ADD16C,1.200000*%
%ADD17O,2.100000X2.100000*%
%ADD18O,1.350000X1.650000*%
%ADD19O,1.950000X1.400000*%
G04 APERTURE END LIST*
D10*
%TO.C,J1*%
X110160000Y-91835000D03*
X110160000Y-138825000D03*
D11*
X111700000Y-131840000D03*
X111700000Y-129046000D03*
X111700000Y-126379000D03*
X111700000Y-123585000D03*
X111700000Y-120791000D03*
X111700000Y-117997000D03*
X111700000Y-115330000D03*
X111700000Y-112536000D03*
X111700000Y-109742000D03*
X111700000Y-106948000D03*
X111700000Y-104281000D03*
X111700000Y-101487000D03*
G36*
G01*
X112462000Y-99655000D02*
X110938000Y-99655000D01*
G75*
G02*
X110738000Y-99455000I0J200000D01*
G01*
X110738000Y-97931000D01*
G75*
G02*
X110938000Y-97731000I200000J0D01*
G01*
X112462000Y-97731000D01*
G75*
G02*
X112662000Y-97931000I0J-200000D01*
G01*
X112662000Y-99455000D01*
G75*
G02*
X112462000Y-99655000I-200000J0D01*
G01*
G37*
X109160000Y-130265200D03*
X109160000Y-127725200D03*
X109160000Y-124931200D03*
X109160000Y-122188000D03*
X109160000Y-119444800D03*
X109160000Y-116650800D03*
X109160000Y-113907600D03*
X109160000Y-111164400D03*
X109160000Y-108319600D03*
X109160000Y-105627200D03*
X109160000Y-102884000D03*
X109160000Y-100090000D03*
%TD*%
%TO.C,C10*%
G36*
G01*
X137003000Y-100382000D02*
X137003000Y-98782000D01*
G75*
G02*
X137203000Y-98582000I200000J0D01*
G01*
X139803000Y-98582000D01*
G75*
G02*
X140003000Y-98782000I0J-200000D01*
G01*
X140003000Y-100382000D01*
G75*
G02*
X139803000Y-100582000I-200000J0D01*
G01*
X137203000Y-100582000D01*
G75*
G02*
X137003000Y-100382000I0J200000D01*
G01*
G37*
G36*
G01*
X133403000Y-100382000D02*
X133403000Y-98782000D01*
G75*
G02*
X133603000Y-98582000I200000J0D01*
G01*
X136203000Y-98582000D01*
G75*
G02*
X136403000Y-98782000I0J-200000D01*
G01*
X136403000Y-100382000D01*
G75*
G02*
X136203000Y-100582000I-200000J0D01*
G01*
X133603000Y-100582000D01*
G75*
G02*
X133403000Y-100382000I0J200000D01*
G01*
G37*
%TD*%
%TO.C,C5*%
G36*
G01*
X137257000Y-118543000D02*
X137257000Y-116943000D01*
G75*
G02*
X137457000Y-116743000I200000J0D01*
G01*
X140057000Y-116743000D01*
G75*
G02*
X140257000Y-116943000I0J-200000D01*
G01*
X140257000Y-118543000D01*
G75*
G02*
X140057000Y-118743000I-200000J0D01*
G01*
X137457000Y-118743000D01*
G75*
G02*
X137257000Y-118543000I0J200000D01*
G01*
G37*
G36*
G01*
X133657000Y-118543000D02*
X133657000Y-116943000D01*
G75*
G02*
X133857000Y-116743000I200000J0D01*
G01*
X136457000Y-116743000D01*
G75*
G02*
X136657000Y-116943000I0J-200000D01*
G01*
X136657000Y-118543000D01*
G75*
G02*
X136457000Y-118743000I-200000J0D01*
G01*
X133857000Y-118743000D01*
G75*
G02*
X133657000Y-118543000I0J200000D01*
G01*
G37*
%TD*%
%TO.C,C7*%
G36*
G01*
X139983000Y-107857000D02*
X139983000Y-110357000D01*
G75*
G02*
X139783000Y-110557000I-200000J0D01*
G01*
X135783000Y-110557000D01*
G75*
G02*
X135583000Y-110357000I0J200000D01*
G01*
X135583000Y-107857000D01*
G75*
G02*
X135783000Y-107657000I200000J0D01*
G01*
X139783000Y-107657000D01*
G75*
G02*
X139983000Y-107857000I0J-200000D01*
G01*
G37*
G36*
G01*
X147983000Y-107857000D02*
X147983000Y-110357000D01*
G75*
G02*
X147783000Y-110557000I-200000J0D01*
G01*
X143783000Y-110557000D01*
G75*
G02*
X143583000Y-110357000I0J200000D01*
G01*
X143583000Y-107857000D01*
G75*
G02*
X143783000Y-107657000I200000J0D01*
G01*
X147783000Y-107657000D01*
G75*
G02*
X147983000Y-107857000I0J-200000D01*
G01*
G37*
%TD*%
%TO.C,C2*%
G36*
G01*
X131137000Y-136900000D02*
X131137000Y-134400000D01*
G75*
G02*
X131337000Y-134200000I200000J0D01*
G01*
X135337000Y-134200000D01*
G75*
G02*
X135537000Y-134400000I0J-200000D01*
G01*
X135537000Y-136900000D01*
G75*
G02*
X135337000Y-137100000I-200000J0D01*
G01*
X131337000Y-137100000D01*
G75*
G02*
X131137000Y-136900000I0J200000D01*
G01*
G37*
G36*
G01*
X123137000Y-136900000D02*
X123137000Y-134400000D01*
G75*
G02*
X123337000Y-134200000I200000J0D01*
G01*
X127337000Y-134200000D01*
G75*
G02*
X127537000Y-134400000I0J-200000D01*
G01*
X127537000Y-136900000D01*
G75*
G02*
X127337000Y-137100000I-200000J0D01*
G01*
X123337000Y-137100000D01*
G75*
G02*
X123137000Y-136900000I0J200000D01*
G01*
G37*
%TD*%
D12*
%TO.C,X1*%
X152960000Y-126820000D03*
X159970000Y-126830000D03*
D13*
X158427620Y-130349020D03*
X158427620Y-123351320D03*
X150431700Y-124052360D03*
X150431700Y-129647980D03*
X149730660Y-126848900D03*
%TD*%
D14*
%TO.C,RV2*%
X158420000Y-102710000D03*
X158420000Y-105210000D03*
X158420000Y-107710000D03*
%TD*%
D15*
%TO.C,MH3*%
X119050000Y-138190000D03*
D16*
X121450000Y-138190000D03*
X120747056Y-139887056D03*
X119050000Y-140590000D03*
X117352944Y-139887056D03*
X116650000Y-138190000D03*
X117352944Y-136492944D03*
X119050000Y-135790000D03*
X120747056Y-136492944D03*
%TD*%
D15*
%TO.C,MH4*%
X119050000Y-92470000D03*
D16*
X121450000Y-92470000D03*
X120747056Y-94167056D03*
X119050000Y-94870000D03*
X117352944Y-94167056D03*
X116650000Y-92470000D03*
X117352944Y-90772944D03*
X119050000Y-90070000D03*
X120747056Y-90772944D03*
%TD*%
D15*
%TO.C,MH2*%
X144450000Y-138190000D03*
D16*
X146850000Y-138190000D03*
X146147056Y-139887056D03*
X144450000Y-140590000D03*
X142752944Y-139887056D03*
X142050000Y-138190000D03*
X142752944Y-136492944D03*
X144450000Y-135790000D03*
X146147056Y-136492944D03*
%TD*%
D15*
%TO.C,MH1*%
X144450000Y-92470000D03*
D16*
X146850000Y-92470000D03*
X146147056Y-94167056D03*
X144450000Y-94870000D03*
X142752944Y-94167056D03*
X142050000Y-92470000D03*
X142752944Y-90772944D03*
X144450000Y-90070000D03*
X146147056Y-90772944D03*
%TD*%
%TO.C,J2*%
G36*
G01*
X100800000Y-97586667D02*
X104280000Y-97586667D01*
G75*
G02*
X104480000Y-97786667I0J-200000D01*
G01*
X104480000Y-99633333D01*
G75*
G02*
X104280000Y-99833333I-200000J0D01*
G01*
X100800000Y-99833333D01*
G75*
G02*
X100600000Y-99633333I0J200000D01*
G01*
X100600000Y-97786667D01*
G75*
G02*
X100800000Y-97586667I200000J0D01*
G01*
G37*
G36*
G01*
X100800000Y-100356667D02*
X104280000Y-100356667D01*
G75*
G02*
X104480000Y-100556667I0J-200000D01*
G01*
X104480000Y-102403333D01*
G75*
G02*
X104280000Y-102603333I-200000J0D01*
G01*
X100800000Y-102603333D01*
G75*
G02*
X100600000Y-102403333I0J200000D01*
G01*
X100600000Y-100556667D01*
G75*
G02*
X100800000Y-100356667I200000J0D01*
G01*
G37*
G36*
G01*
X100800000Y-103126667D02*
X104280000Y-103126667D01*
G75*
G02*
X104480000Y-103326667I0J-200000D01*
G01*
X104480000Y-105173333D01*
G75*
G02*
X104280000Y-105373333I-200000J0D01*
G01*
X100800000Y-105373333D01*
G75*
G02*
X100600000Y-105173333I0J200000D01*
G01*
X100600000Y-103326667D01*
G75*
G02*
X100800000Y-103126667I200000J0D01*
G01*
G37*
G36*
G01*
X100800000Y-105896667D02*
X104280000Y-105896667D01*
G75*
G02*
X104480000Y-106096667I0J-200000D01*
G01*
X104480000Y-107943333D01*
G75*
G02*
X104280000Y-108143333I-200000J0D01*
G01*
X100800000Y-108143333D01*
G75*
G02*
X100600000Y-107943333I0J200000D01*
G01*
X100600000Y-106096667D01*
G75*
G02*
X100800000Y-105896667I200000J0D01*
G01*
G37*
G36*
G01*
X100800000Y-108666667D02*
X104280000Y-108666667D01*
G75*
G02*
X104480000Y-108866667I0J-200000D01*
G01*
X104480000Y-110713333D01*
G75*
G02*
X104280000Y-110913333I-200000J0D01*
G01*
X100800000Y-110913333D01*
G75*
G02*
X100600000Y-110713333I0J200000D01*
G01*
X100600000Y-108866667D01*
G75*
G02*
X100800000Y-108666667I200000J0D01*
G01*
G37*
G36*
G01*
X100800000Y-111436667D02*
X104280000Y-111436667D01*
G75*
G02*
X104480000Y-111636667I0J-200000D01*
G01*
X104480000Y-113483333D01*
G75*
G02*
X104280000Y-113683333I-200000J0D01*
G01*
X100800000Y-113683333D01*
G75*
G02*
X100600000Y-113483333I0J200000D01*
G01*
X100600000Y-111636667D01*
G75*
G02*
X100800000Y-111436667I200000J0D01*
G01*
G37*
G36*
G01*
X100800000Y-114206667D02*
X104280000Y-114206667D01*
G75*
G02*
X104480000Y-114406667I0J-200000D01*
G01*
X104480000Y-116253333D01*
G75*
G02*
X104280000Y-116453333I-200000J0D01*
G01*
X100800000Y-116453333D01*
G75*
G02*
X100600000Y-116253333I0J200000D01*
G01*
X100600000Y-114406667D01*
G75*
G02*
X100800000Y-114206667I200000J0D01*
G01*
G37*
G36*
G01*
X100800000Y-116976667D02*
X104280000Y-116976667D01*
G75*
G02*
X104480000Y-117176667I0J-200000D01*
G01*
X104480000Y-119023333D01*
G75*
G02*
X104280000Y-119223333I-200000J0D01*
G01*
X100800000Y-119223333D01*
G75*
G02*
X100600000Y-119023333I0J200000D01*
G01*
X100600000Y-117176667D01*
G75*
G02*
X100800000Y-116976667I200000J0D01*
G01*
G37*
G36*
G01*
X100800000Y-119746667D02*
X104280000Y-119746667D01*
G75*
G02*
X104480000Y-119946667I0J-200000D01*
G01*
X104480000Y-121793333D01*
G75*
G02*
X104280000Y-121993333I-200000J0D01*
G01*
X100800000Y-121993333D01*
G75*
G02*
X100600000Y-121793333I0J200000D01*
G01*
X100600000Y-119946667D01*
G75*
G02*
X100800000Y-119746667I200000J0D01*
G01*
G37*
G36*
G01*
X100800000Y-122516667D02*
X104280000Y-122516667D01*
G75*
G02*
X104480000Y-122716667I0J-200000D01*
G01*
X104480000Y-124563333D01*
G75*
G02*
X104280000Y-124763333I-200000J0D01*
G01*
X100800000Y-124763333D01*
G75*
G02*
X100600000Y-124563333I0J200000D01*
G01*
X100600000Y-122716667D01*
G75*
G02*
X100800000Y-122516667I200000J0D01*
G01*
G37*
G36*
G01*
X100800000Y-125286667D02*
X104280000Y-125286667D01*
G75*
G02*
X104480000Y-125486667I0J-200000D01*
G01*
X104480000Y-127333333D01*
G75*
G02*
X104280000Y-127533333I-200000J0D01*
G01*
X100800000Y-127533333D01*
G75*
G02*
X100600000Y-127333333I0J200000D01*
G01*
X100600000Y-125486667D01*
G75*
G02*
X100800000Y-125286667I200000J0D01*
G01*
G37*
G36*
G01*
X100800000Y-128056667D02*
X104280000Y-128056667D01*
G75*
G02*
X104480000Y-128256667I0J-200000D01*
G01*
X104480000Y-130103333D01*
G75*
G02*
X104280000Y-130303333I-200000J0D01*
G01*
X100800000Y-130303333D01*
G75*
G02*
X100600000Y-130103333I0J200000D01*
G01*
X100600000Y-128256667D01*
G75*
G02*
X100800000Y-128056667I200000J0D01*
G01*
G37*
G36*
G01*
X100800000Y-130826667D02*
X104280000Y-130826667D01*
G75*
G02*
X104480000Y-131026667I0J-200000D01*
G01*
X104480000Y-132873333D01*
G75*
G02*
X104280000Y-133073333I-200000J0D01*
G01*
X100800000Y-133073333D01*
G75*
G02*
X100600000Y-132873333I0J200000D01*
G01*
X100600000Y-131026667D01*
G75*
G02*
X100800000Y-130826667I200000J0D01*
G01*
G37*
%TD*%
D14*
%TO.C,RV3*%
X158420000Y-91280000D03*
X158420000Y-93780000D03*
X158420000Y-96280000D03*
%TD*%
%TO.C,RV1*%
X158420000Y-114140000D03*
X158420000Y-116640000D03*
X158420000Y-119140000D03*
%TD*%
%TO.C,JP1*%
G36*
G01*
X144670000Y-122530000D02*
X144670000Y-120830000D01*
G75*
G02*
X144870000Y-120630000I200000J0D01*
G01*
X146570000Y-120630000D01*
G75*
G02*
X146770000Y-120830000I0J-200000D01*
G01*
X146770000Y-122530000D01*
G75*
G02*
X146570000Y-122730000I-200000J0D01*
G01*
X144870000Y-122730000D01*
G75*
G02*
X144670000Y-122530000I0J200000D01*
G01*
G37*
D17*
X145720000Y-124220000D03*
X145720000Y-126760000D03*
%TD*%
%TO.C,C1*%
G36*
G01*
X116977000Y-129671000D02*
X116977000Y-128421000D01*
G75*
G02*
X117177000Y-128221000I200000J0D01*
G01*
X118677000Y-128221000D01*
G75*
G02*
X118877000Y-128421000I0J-200000D01*
G01*
X118877000Y-129671000D01*
G75*
G02*
X118677000Y-129871000I-200000J0D01*
G01*
X117177000Y-129871000D01*
G75*
G02*
X116977000Y-129671000I0J200000D01*
G01*
G37*
G36*
G01*
X119477000Y-129671000D02*
X119477000Y-128421000D01*
G75*
G02*
X119677000Y-128221000I200000J0D01*
G01*
X121177000Y-128221000D01*
G75*
G02*
X121377000Y-128421000I0J-200000D01*
G01*
X121377000Y-129671000D01*
G75*
G02*
X121177000Y-129871000I-200000J0D01*
G01*
X119677000Y-129871000D01*
G75*
G02*
X119477000Y-129671000I0J200000D01*
G01*
G37*
%TD*%
%TO.C,C3*%
G36*
G01*
X136459000Y-134700000D02*
X137709000Y-134700000D01*
G75*
G02*
X137909000Y-134900000I0J-200000D01*
G01*
X137909000Y-136400000D01*
G75*
G02*
X137709000Y-136600000I-200000J0D01*
G01*
X136459000Y-136600000D01*
G75*
G02*
X136259000Y-136400000I0J200000D01*
G01*
X136259000Y-134900000D01*
G75*
G02*
X136459000Y-134700000I200000J0D01*
G01*
G37*
G36*
G01*
X136459000Y-137200000D02*
X137709000Y-137200000D01*
G75*
G02*
X137909000Y-137400000I0J-200000D01*
G01*
X137909000Y-138900000D01*
G75*
G02*
X137709000Y-139100000I-200000J0D01*
G01*
X136459000Y-139100000D01*
G75*
G02*
X136259000Y-138900000I0J200000D01*
G01*
X136259000Y-137400000D01*
G75*
G02*
X136459000Y-137200000I200000J0D01*
G01*
G37*
%TD*%
%TO.C,C4*%
G36*
G01*
X138999000Y-134700000D02*
X140249000Y-134700000D01*
G75*
G02*
X140449000Y-134900000I0J-200000D01*
G01*
X140449000Y-136400000D01*
G75*
G02*
X140249000Y-136600000I-200000J0D01*
G01*
X138999000Y-136600000D01*
G75*
G02*
X138799000Y-136400000I0J200000D01*
G01*
X138799000Y-134900000D01*
G75*
G02*
X138999000Y-134700000I200000J0D01*
G01*
G37*
G36*
G01*
X138999000Y-137200000D02*
X140249000Y-137200000D01*
G75*
G02*
X140449000Y-137400000I0J-200000D01*
G01*
X140449000Y-138900000D01*
G75*
G02*
X140249000Y-139100000I-200000J0D01*
G01*
X138999000Y-139100000D01*
G75*
G02*
X138799000Y-138900000I0J200000D01*
G01*
X138799000Y-137400000D01*
G75*
G02*
X138999000Y-137200000I200000J0D01*
G01*
G37*
%TD*%
%TO.C,C6*%
G36*
G01*
X135011000Y-129925000D02*
X135011000Y-128675000D01*
G75*
G02*
X135211000Y-128475000I200000J0D01*
G01*
X136711000Y-128475000D01*
G75*
G02*
X136911000Y-128675000I0J-200000D01*
G01*
X136911000Y-129925000D01*
G75*
G02*
X136711000Y-130125000I-200000J0D01*
G01*
X135211000Y-130125000D01*
G75*
G02*
X135011000Y-129925000I0J200000D01*
G01*
G37*
G36*
G01*
X137511000Y-129925000D02*
X137511000Y-128675000D01*
G75*
G02*
X137711000Y-128475000I200000J0D01*
G01*
X139211000Y-128475000D01*
G75*
G02*
X139411000Y-128675000I0J-200000D01*
G01*
X139411000Y-129925000D01*
G75*
G02*
X139211000Y-130125000I-200000J0D01*
G01*
X137711000Y-130125000D01*
G75*
G02*
X137511000Y-129925000I0J200000D01*
G01*
G37*
%TD*%
%TO.C,C8*%
G36*
G01*
X116977000Y-127004000D02*
X116977000Y-125754000D01*
G75*
G02*
X117177000Y-125554000I200000J0D01*
G01*
X118677000Y-125554000D01*
G75*
G02*
X118877000Y-125754000I0J-200000D01*
G01*
X118877000Y-127004000D01*
G75*
G02*
X118677000Y-127204000I-200000J0D01*
G01*
X117177000Y-127204000D01*
G75*
G02*
X116977000Y-127004000I0J200000D01*
G01*
G37*
G36*
G01*
X119477000Y-127004000D02*
X119477000Y-125754000D01*
G75*
G02*
X119677000Y-125554000I200000J0D01*
G01*
X121177000Y-125554000D01*
G75*
G02*
X121377000Y-125754000I0J-200000D01*
G01*
X121377000Y-127004000D01*
G75*
G02*
X121177000Y-127204000I-200000J0D01*
G01*
X119677000Y-127204000D01*
G75*
G02*
X119477000Y-127004000I0J200000D01*
G01*
G37*
%TD*%
%TO.C,C9*%
G36*
G01*
X116977000Y-124210000D02*
X116977000Y-122960000D01*
G75*
G02*
X117177000Y-122760000I200000J0D01*
G01*
X118677000Y-122760000D01*
G75*
G02*
X118877000Y-122960000I0J-200000D01*
G01*
X118877000Y-124210000D01*
G75*
G02*
X118677000Y-124410000I-200000J0D01*
G01*
X117177000Y-124410000D01*
G75*
G02*
X116977000Y-124210000I0J200000D01*
G01*
G37*
G36*
G01*
X119477000Y-124210000D02*
X119477000Y-122960000D01*
G75*
G02*
X119677000Y-122760000I200000J0D01*
G01*
X121177000Y-122760000D01*
G75*
G02*
X121377000Y-122960000I0J-200000D01*
G01*
X121377000Y-124210000D01*
G75*
G02*
X121177000Y-124410000I-200000J0D01*
G01*
X119677000Y-124410000D01*
G75*
G02*
X119477000Y-124210000I0J200000D01*
G01*
G37*
%TD*%
%TO.C,C11*%
G36*
G01*
X134884000Y-124972000D02*
X134884000Y-123722000D01*
G75*
G02*
X135084000Y-123522000I200000J0D01*
G01*
X136584000Y-123522000D01*
G75*
G02*
X136784000Y-123722000I0J-200000D01*
G01*
X136784000Y-124972000D01*
G75*
G02*
X136584000Y-125172000I-200000J0D01*
G01*
X135084000Y-125172000D01*
G75*
G02*
X134884000Y-124972000I0J200000D01*
G01*
G37*
G36*
G01*
X137384000Y-124972000D02*
X137384000Y-123722000D01*
G75*
G02*
X137584000Y-123522000I200000J0D01*
G01*
X139084000Y-123522000D01*
G75*
G02*
X139284000Y-123722000I0J-200000D01*
G01*
X139284000Y-124972000D01*
G75*
G02*
X139084000Y-125172000I-200000J0D01*
G01*
X137584000Y-125172000D01*
G75*
G02*
X137384000Y-124972000I0J200000D01*
G01*
G37*
%TD*%
%TO.C,P1*%
G36*
G01*
X157732460Y-138020900D02*
X157732460Y-138420900D01*
G75*
G02*
X157532460Y-138620900I-200000J0D01*
G01*
X156182460Y-138620900D01*
G75*
G02*
X155982460Y-138420900I0J200000D01*
G01*
X155982460Y-138020900D01*
G75*
G02*
X156182460Y-137820900I200000J0D01*
G01*
X157532460Y-137820900D01*
G75*
G02*
X157732460Y-138020900I0J-200000D01*
G01*
G37*
G36*
G01*
X157732460Y-137370900D02*
X157732460Y-137770900D01*
G75*
G02*
X157532460Y-137970900I-200000J0D01*
G01*
X156182460Y-137970900D01*
G75*
G02*
X155982460Y-137770900I0J200000D01*
G01*
X155982460Y-137370900D01*
G75*
G02*
X156182460Y-137170900I200000J0D01*
G01*
X157532460Y-137170900D01*
G75*
G02*
X157732460Y-137370900I0J-200000D01*
G01*
G37*
G36*
G01*
X157732460Y-136720900D02*
X157732460Y-137120900D01*
G75*
G02*
X157532460Y-137320900I-200000J0D01*
G01*
X156182460Y-137320900D01*
G75*
G02*
X155982460Y-137120900I0J200000D01*
G01*
X155982460Y-136720900D01*
G75*
G02*
X156182460Y-136520900I200000J0D01*
G01*
X157532460Y-136520900D01*
G75*
G02*
X157732460Y-136720900I0J-200000D01*
G01*
G37*
G36*
G01*
X157732460Y-136070900D02*
X157732460Y-136470900D01*
G75*
G02*
X157532460Y-136670900I-200000J0D01*
G01*
X156182460Y-136670900D01*
G75*
G02*
X155982460Y-136470900I0J200000D01*
G01*
X155982460Y-136070900D01*
G75*
G02*
X156182460Y-135870900I200000J0D01*
G01*
X157532460Y-135870900D01*
G75*
G02*
X157732460Y-136070900I0J-200000D01*
G01*
G37*
G36*
G01*
X157732460Y-135420900D02*
X157732460Y-135820900D01*
G75*
G02*
X157532460Y-136020900I-200000J0D01*
G01*
X156182460Y-136020900D01*
G75*
G02*
X155982460Y-135820900I0J200000D01*
G01*
X155982460Y-135420900D01*
G75*
G02*
X156182460Y-135220900I200000J0D01*
G01*
X157532460Y-135220900D01*
G75*
G02*
X157732460Y-135420900I0J-200000D01*
G01*
G37*
D18*
X156857460Y-139420900D03*
X156857460Y-134420900D03*
D19*
X159557460Y-140420900D03*
X159557460Y-133420900D03*
%TD*%
%TO.C,R1*%
G36*
G01*
X139384000Y-121284000D02*
X139384000Y-122584000D01*
G75*
G02*
X139184000Y-122784000I-200000J0D01*
G01*
X137684000Y-122784000D01*
G75*
G02*
X137484000Y-122584000I0J200000D01*
G01*
X137484000Y-121284000D01*
G75*
G02*
X137684000Y-121084000I200000J0D01*
G01*
X139184000Y-121084000D01*
G75*
G02*
X139384000Y-121284000I0J-200000D01*
G01*
G37*
G36*
G01*
X136684000Y-121284000D02*
X136684000Y-122584000D01*
G75*
G02*
X136484000Y-122784000I-200000J0D01*
G01*
X134984000Y-122784000D01*
G75*
G02*
X134784000Y-122584000I0J200000D01*
G01*
X134784000Y-121284000D01*
G75*
G02*
X134984000Y-121084000I200000J0D01*
G01*
X136484000Y-121084000D01*
G75*
G02*
X136684000Y-121284000I0J-200000D01*
G01*
G37*
%TD*%
%TO.C,R2*%
G36*
G01*
X139511000Y-126110000D02*
X139511000Y-127410000D01*
G75*
G02*
X139311000Y-127610000I-200000J0D01*
G01*
X137811000Y-127610000D01*
G75*
G02*
X137611000Y-127410000I0J200000D01*
G01*
X137611000Y-126110000D01*
G75*
G02*
X137811000Y-125910000I200000J0D01*
G01*
X139311000Y-125910000D01*
G75*
G02*
X139511000Y-126110000I0J-200000D01*
G01*
G37*
G36*
G01*
X136811000Y-126110000D02*
X136811000Y-127410000D01*
G75*
G02*
X136611000Y-127610000I-200000J0D01*
G01*
X135111000Y-127610000D01*
G75*
G02*
X134911000Y-127410000I0J200000D01*
G01*
X134911000Y-126110000D01*
G75*
G02*
X135111000Y-125910000I200000J0D01*
G01*
X136611000Y-125910000D01*
G75*
G02*
X136811000Y-126110000I0J-200000D01*
G01*
G37*
%TD*%
%TO.C,R3*%
G36*
G01*
X121350000Y-98043000D02*
X121350000Y-99343000D01*
G75*
G02*
X121150000Y-99543000I-200000J0D01*
G01*
X119650000Y-99543000D01*
G75*
G02*
X119450000Y-99343000I0J200000D01*
G01*
X119450000Y-98043000D01*
G75*
G02*
X119650000Y-97843000I200000J0D01*
G01*
X121150000Y-97843000D01*
G75*
G02*
X121350000Y-98043000I0J-200000D01*
G01*
G37*
G36*
G01*
X118650000Y-98043000D02*
X118650000Y-99343000D01*
G75*
G02*
X118450000Y-99543000I-200000J0D01*
G01*
X116950000Y-99543000D01*
G75*
G02*
X116750000Y-99343000I0J200000D01*
G01*
X116750000Y-98043000D01*
G75*
G02*
X116950000Y-97843000I200000J0D01*
G01*
X118450000Y-97843000D01*
G75*
G02*
X118650000Y-98043000I0J-200000D01*
G01*
G37*
%TD*%
%TO.C,R4*%
G36*
G01*
X121350000Y-100837000D02*
X121350000Y-102137000D01*
G75*
G02*
X121150000Y-102337000I-200000J0D01*
G01*
X119650000Y-102337000D01*
G75*
G02*
X119450000Y-102137000I0J200000D01*
G01*
X119450000Y-100837000D01*
G75*
G02*
X119650000Y-100637000I200000J0D01*
G01*
X121150000Y-100637000D01*
G75*
G02*
X121350000Y-100837000I0J-200000D01*
G01*
G37*
G36*
G01*
X118650000Y-100837000D02*
X118650000Y-102137000D01*
G75*
G02*
X118450000Y-102337000I-200000J0D01*
G01*
X116950000Y-102337000D01*
G75*
G02*
X116750000Y-102137000I0J200000D01*
G01*
X116750000Y-100837000D01*
G75*
G02*
X116950000Y-100637000I200000J0D01*
G01*
X118450000Y-100637000D01*
G75*
G02*
X118650000Y-100837000I0J-200000D01*
G01*
G37*
%TD*%
%TO.C,R5*%
G36*
G01*
X121350000Y-103631000D02*
X121350000Y-104931000D01*
G75*
G02*
X121150000Y-105131000I-200000J0D01*
G01*
X119650000Y-105131000D01*
G75*
G02*
X119450000Y-104931000I0J200000D01*
G01*
X119450000Y-103631000D01*
G75*
G02*
X119650000Y-103431000I200000J0D01*
G01*
X121150000Y-103431000D01*
G75*
G02*
X121350000Y-103631000I0J-200000D01*
G01*
G37*
G36*
G01*
X118650000Y-103631000D02*
X118650000Y-104931000D01*
G75*
G02*
X118450000Y-105131000I-200000J0D01*
G01*
X116950000Y-105131000D01*
G75*
G02*
X116750000Y-104931000I0J200000D01*
G01*
X116750000Y-103631000D01*
G75*
G02*
X116950000Y-103431000I200000J0D01*
G01*
X118450000Y-103431000D01*
G75*
G02*
X118650000Y-103631000I0J-200000D01*
G01*
G37*
%TD*%
%TO.C,R6*%
G36*
G01*
X121350000Y-106298000D02*
X121350000Y-107598000D01*
G75*
G02*
X121150000Y-107798000I-200000J0D01*
G01*
X119650000Y-107798000D01*
G75*
G02*
X119450000Y-107598000I0J200000D01*
G01*
X119450000Y-106298000D01*
G75*
G02*
X119650000Y-106098000I200000J0D01*
G01*
X121150000Y-106098000D01*
G75*
G02*
X121350000Y-106298000I0J-200000D01*
G01*
G37*
G36*
G01*
X118650000Y-106298000D02*
X118650000Y-107598000D01*
G75*
G02*
X118450000Y-107798000I-200000J0D01*
G01*
X116950000Y-107798000D01*
G75*
G02*
X116750000Y-107598000I0J200000D01*
G01*
X116750000Y-106298000D01*
G75*
G02*
X116950000Y-106098000I200000J0D01*
G01*
X118450000Y-106098000D01*
G75*
G02*
X118650000Y-106298000I0J-200000D01*
G01*
G37*
%TD*%
%TO.C,R7*%
G36*
G01*
X121350000Y-109092000D02*
X121350000Y-110392000D01*
G75*
G02*
X121150000Y-110592000I-200000J0D01*
G01*
X119650000Y-110592000D01*
G75*
G02*
X119450000Y-110392000I0J200000D01*
G01*
X119450000Y-109092000D01*
G75*
G02*
X119650000Y-108892000I200000J0D01*
G01*
X121150000Y-108892000D01*
G75*
G02*
X121350000Y-109092000I0J-200000D01*
G01*
G37*
G36*
G01*
X118650000Y-109092000D02*
X118650000Y-110392000D01*
G75*
G02*
X118450000Y-110592000I-200000J0D01*
G01*
X116950000Y-110592000D01*
G75*
G02*
X116750000Y-110392000I0J200000D01*
G01*
X116750000Y-109092000D01*
G75*
G02*
X116950000Y-108892000I200000J0D01*
G01*
X118450000Y-108892000D01*
G75*
G02*
X118650000Y-109092000I0J-200000D01*
G01*
G37*
%TD*%
%TO.C,R8*%
G36*
G01*
X121350000Y-111886000D02*
X121350000Y-113186000D01*
G75*
G02*
X121150000Y-113386000I-200000J0D01*
G01*
X119650000Y-113386000D01*
G75*
G02*
X119450000Y-113186000I0J200000D01*
G01*
X119450000Y-111886000D01*
G75*
G02*
X119650000Y-111686000I200000J0D01*
G01*
X121150000Y-111686000D01*
G75*
G02*
X121350000Y-111886000I0J-200000D01*
G01*
G37*
G36*
G01*
X118650000Y-111886000D02*
X118650000Y-113186000D01*
G75*
G02*
X118450000Y-113386000I-200000J0D01*
G01*
X116950000Y-113386000D01*
G75*
G02*
X116750000Y-113186000I0J200000D01*
G01*
X116750000Y-111886000D01*
G75*
G02*
X116950000Y-111686000I200000J0D01*
G01*
X118450000Y-111686000D01*
G75*
G02*
X118650000Y-111886000I0J-200000D01*
G01*
G37*
%TD*%
%TO.C,R9*%
G36*
G01*
X121350000Y-114680000D02*
X121350000Y-115980000D01*
G75*
G02*
X121150000Y-116180000I-200000J0D01*
G01*
X119650000Y-116180000D01*
G75*
G02*
X119450000Y-115980000I0J200000D01*
G01*
X119450000Y-114680000D01*
G75*
G02*
X119650000Y-114480000I200000J0D01*
G01*
X121150000Y-114480000D01*
G75*
G02*
X121350000Y-114680000I0J-200000D01*
G01*
G37*
G36*
G01*
X118650000Y-114680000D02*
X118650000Y-115980000D01*
G75*
G02*
X118450000Y-116180000I-200000J0D01*
G01*
X116950000Y-116180000D01*
G75*
G02*
X116750000Y-115980000I0J200000D01*
G01*
X116750000Y-114680000D01*
G75*
G02*
X116950000Y-114480000I200000J0D01*
G01*
X118450000Y-114480000D01*
G75*
G02*
X118650000Y-114680000I0J-200000D01*
G01*
G37*
%TD*%
%TO.C,R10*%
G36*
G01*
X121350000Y-117347000D02*
X121350000Y-118647000D01*
G75*
G02*
X121150000Y-118847000I-200000J0D01*
G01*
X119650000Y-118847000D01*
G75*
G02*
X119450000Y-118647000I0J200000D01*
G01*
X119450000Y-117347000D01*
G75*
G02*
X119650000Y-117147000I200000J0D01*
G01*
X121150000Y-117147000D01*
G75*
G02*
X121350000Y-117347000I0J-200000D01*
G01*
G37*
G36*
G01*
X118650000Y-117347000D02*
X118650000Y-118647000D01*
G75*
G02*
X118450000Y-118847000I-200000J0D01*
G01*
X116950000Y-118847000D01*
G75*
G02*
X116750000Y-118647000I0J200000D01*
G01*
X116750000Y-117347000D01*
G75*
G02*
X116950000Y-117147000I200000J0D01*
G01*
X118450000Y-117147000D01*
G75*
G02*
X118650000Y-117347000I0J-200000D01*
G01*
G37*
%TD*%
%TO.C,R11*%
G36*
G01*
X121350000Y-120141000D02*
X121350000Y-121441000D01*
G75*
G02*
X121150000Y-121641000I-200000J0D01*
G01*
X119650000Y-121641000D01*
G75*
G02*
X119450000Y-121441000I0J200000D01*
G01*
X119450000Y-120141000D01*
G75*
G02*
X119650000Y-119941000I200000J0D01*
G01*
X121150000Y-119941000D01*
G75*
G02*
X121350000Y-120141000I0J-200000D01*
G01*
G37*
G36*
G01*
X118650000Y-120141000D02*
X118650000Y-121441000D01*
G75*
G02*
X118450000Y-121641000I-200000J0D01*
G01*
X116950000Y-121641000D01*
G75*
G02*
X116750000Y-121441000I0J200000D01*
G01*
X116750000Y-120141000D01*
G75*
G02*
X116950000Y-119941000I200000J0D01*
G01*
X118450000Y-119941000D01*
G75*
G02*
X118650000Y-120141000I0J-200000D01*
G01*
G37*
%TD*%
%TO.C,R12*%
G36*
G01*
X127700000Y-100837000D02*
X127700000Y-102137000D01*
G75*
G02*
X127500000Y-102337000I-200000J0D01*
G01*
X126000000Y-102337000D01*
G75*
G02*
X125800000Y-102137000I0J200000D01*
G01*
X125800000Y-100837000D01*
G75*
G02*
X126000000Y-100637000I200000J0D01*
G01*
X127500000Y-100637000D01*
G75*
G02*
X127700000Y-100837000I0J-200000D01*
G01*
G37*
G36*
G01*
X125000000Y-100837000D02*
X125000000Y-102137000D01*
G75*
G02*
X124800000Y-102337000I-200000J0D01*
G01*
X123300000Y-102337000D01*
G75*
G02*
X123100000Y-102137000I0J200000D01*
G01*
X123100000Y-100837000D01*
G75*
G02*
X123300000Y-100637000I200000J0D01*
G01*
X124800000Y-100637000D01*
G75*
G02*
X125000000Y-100837000I0J-200000D01*
G01*
G37*
%TD*%
%TO.C,R13*%
G36*
G01*
X127700000Y-103631000D02*
X127700000Y-104931000D01*
G75*
G02*
X127500000Y-105131000I-200000J0D01*
G01*
X126000000Y-105131000D01*
G75*
G02*
X125800000Y-104931000I0J200000D01*
G01*
X125800000Y-103631000D01*
G75*
G02*
X126000000Y-103431000I200000J0D01*
G01*
X127500000Y-103431000D01*
G75*
G02*
X127700000Y-103631000I0J-200000D01*
G01*
G37*
G36*
G01*
X125000000Y-103631000D02*
X125000000Y-104931000D01*
G75*
G02*
X124800000Y-105131000I-200000J0D01*
G01*
X123300000Y-105131000D01*
G75*
G02*
X123100000Y-104931000I0J200000D01*
G01*
X123100000Y-103631000D01*
G75*
G02*
X123300000Y-103431000I200000J0D01*
G01*
X124800000Y-103431000D01*
G75*
G02*
X125000000Y-103631000I0J-200000D01*
G01*
G37*
%TD*%
%TO.C,R14*%
G36*
G01*
X127700000Y-106298000D02*
X127700000Y-107598000D01*
G75*
G02*
X127500000Y-107798000I-200000J0D01*
G01*
X126000000Y-107798000D01*
G75*
G02*
X125800000Y-107598000I0J200000D01*
G01*
X125800000Y-106298000D01*
G75*
G02*
X126000000Y-106098000I200000J0D01*
G01*
X127500000Y-106098000D01*
G75*
G02*
X127700000Y-106298000I0J-200000D01*
G01*
G37*
G36*
G01*
X125000000Y-106298000D02*
X125000000Y-107598000D01*
G75*
G02*
X124800000Y-107798000I-200000J0D01*
G01*
X123300000Y-107798000D01*
G75*
G02*
X123100000Y-107598000I0J200000D01*
G01*
X123100000Y-106298000D01*
G75*
G02*
X123300000Y-106098000I200000J0D01*
G01*
X124800000Y-106098000D01*
G75*
G02*
X125000000Y-106298000I0J-200000D01*
G01*
G37*
%TD*%
%TO.C,R15*%
G36*
G01*
X127700000Y-109092000D02*
X127700000Y-110392000D01*
G75*
G02*
X127500000Y-110592000I-200000J0D01*
G01*
X126000000Y-110592000D01*
G75*
G02*
X125800000Y-110392000I0J200000D01*
G01*
X125800000Y-109092000D01*
G75*
G02*
X126000000Y-108892000I200000J0D01*
G01*
X127500000Y-108892000D01*
G75*
G02*
X127700000Y-109092000I0J-200000D01*
G01*
G37*
G36*
G01*
X125000000Y-109092000D02*
X125000000Y-110392000D01*
G75*
G02*
X124800000Y-110592000I-200000J0D01*
G01*
X123300000Y-110592000D01*
G75*
G02*
X123100000Y-110392000I0J200000D01*
G01*
X123100000Y-109092000D01*
G75*
G02*
X123300000Y-108892000I200000J0D01*
G01*
X124800000Y-108892000D01*
G75*
G02*
X125000000Y-109092000I0J-200000D01*
G01*
G37*
%TD*%
%TO.C,R16*%
G36*
G01*
X127700000Y-111886000D02*
X127700000Y-113186000D01*
G75*
G02*
X127500000Y-113386000I-200000J0D01*
G01*
X126000000Y-113386000D01*
G75*
G02*
X125800000Y-113186000I0J200000D01*
G01*
X125800000Y-111886000D01*
G75*
G02*
X126000000Y-111686000I200000J0D01*
G01*
X127500000Y-111686000D01*
G75*
G02*
X127700000Y-111886000I0J-200000D01*
G01*
G37*
G36*
G01*
X125000000Y-111886000D02*
X125000000Y-113186000D01*
G75*
G02*
X124800000Y-113386000I-200000J0D01*
G01*
X123300000Y-113386000D01*
G75*
G02*
X123100000Y-113186000I0J200000D01*
G01*
X123100000Y-111886000D01*
G75*
G02*
X123300000Y-111686000I200000J0D01*
G01*
X124800000Y-111686000D01*
G75*
G02*
X125000000Y-111886000I0J-200000D01*
G01*
G37*
%TD*%
%TO.C,R17*%
G36*
G01*
X127700000Y-114553000D02*
X127700000Y-115853000D01*
G75*
G02*
X127500000Y-116053000I-200000J0D01*
G01*
X126000000Y-116053000D01*
G75*
G02*
X125800000Y-115853000I0J200000D01*
G01*
X125800000Y-114553000D01*
G75*
G02*
X126000000Y-114353000I200000J0D01*
G01*
X127500000Y-114353000D01*
G75*
G02*
X127700000Y-114553000I0J-200000D01*
G01*
G37*
G36*
G01*
X125000000Y-114553000D02*
X125000000Y-115853000D01*
G75*
G02*
X124800000Y-116053000I-200000J0D01*
G01*
X123300000Y-116053000D01*
G75*
G02*
X123100000Y-115853000I0J200000D01*
G01*
X123100000Y-114553000D01*
G75*
G02*
X123300000Y-114353000I200000J0D01*
G01*
X124800000Y-114353000D01*
G75*
G02*
X125000000Y-114553000I0J-200000D01*
G01*
G37*
%TD*%
%TO.C,R18*%
G36*
G01*
X127700000Y-117347000D02*
X127700000Y-118647000D01*
G75*
G02*
X127500000Y-118847000I-200000J0D01*
G01*
X126000000Y-118847000D01*
G75*
G02*
X125800000Y-118647000I0J200000D01*
G01*
X125800000Y-117347000D01*
G75*
G02*
X126000000Y-117147000I200000J0D01*
G01*
X127500000Y-117147000D01*
G75*
G02*
X127700000Y-117347000I0J-200000D01*
G01*
G37*
G36*
G01*
X125000000Y-117347000D02*
X125000000Y-118647000D01*
G75*
G02*
X124800000Y-118847000I-200000J0D01*
G01*
X123300000Y-118847000D01*
G75*
G02*
X123100000Y-118647000I0J200000D01*
G01*
X123100000Y-117347000D01*
G75*
G02*
X123300000Y-117147000I200000J0D01*
G01*
X124800000Y-117147000D01*
G75*
G02*
X125000000Y-117347000I0J-200000D01*
G01*
G37*
%TD*%
%TO.C,R19*%
G36*
G01*
X127700000Y-120141000D02*
X127700000Y-121441000D01*
G75*
G02*
X127500000Y-121641000I-200000J0D01*
G01*
X126000000Y-121641000D01*
G75*
G02*
X125800000Y-121441000I0J200000D01*
G01*
X125800000Y-120141000D01*
G75*
G02*
X126000000Y-119941000I200000J0D01*
G01*
X127500000Y-119941000D01*
G75*
G02*
X127700000Y-120141000I0J-200000D01*
G01*
G37*
G36*
G01*
X125000000Y-120141000D02*
X125000000Y-121441000D01*
G75*
G02*
X124800000Y-121641000I-200000J0D01*
G01*
X123300000Y-121641000D01*
G75*
G02*
X123100000Y-121441000I0J200000D01*
G01*
X123100000Y-120141000D01*
G75*
G02*
X123300000Y-119941000I200000J0D01*
G01*
X124800000Y-119941000D01*
G75*
G02*
X125000000Y-120141000I0J-200000D01*
G01*
G37*
%TD*%
%TO.C,U1*%
G36*
G01*
X124265000Y-125155000D02*
X124265000Y-124555000D01*
G75*
G02*
X124465000Y-124355000I200000J0D01*
G01*
X126015000Y-124355000D01*
G75*
G02*
X126215000Y-124555000I0J-200000D01*
G01*
X126215000Y-125155000D01*
G75*
G02*
X126015000Y-125355000I-200000J0D01*
G01*
X124465000Y-125355000D01*
G75*
G02*
X124265000Y-125155000I0J200000D01*
G01*
G37*
G36*
G01*
X124265000Y-126425000D02*
X124265000Y-125825000D01*
G75*
G02*
X124465000Y-125625000I200000J0D01*
G01*
X126015000Y-125625000D01*
G75*
G02*
X126215000Y-125825000I0J-200000D01*
G01*
X126215000Y-126425000D01*
G75*
G02*
X126015000Y-126625000I-200000J0D01*
G01*
X124465000Y-126625000D01*
G75*
G02*
X124265000Y-126425000I0J200000D01*
G01*
G37*
G36*
G01*
X124265000Y-127695000D02*
X124265000Y-127095000D01*
G75*
G02*
X124465000Y-126895000I200000J0D01*
G01*
X126015000Y-126895000D01*
G75*
G02*
X126215000Y-127095000I0J-200000D01*
G01*
X126215000Y-127695000D01*
G75*
G02*
X126015000Y-127895000I-200000J0D01*
G01*
X124465000Y-127895000D01*
G75*
G02*
X124265000Y-127695000I0J200000D01*
G01*
G37*
G36*
G01*
X124265000Y-128965000D02*
X124265000Y-128365000D01*
G75*
G02*
X124465000Y-128165000I200000J0D01*
G01*
X126015000Y-128165000D01*
G75*
G02*
X126215000Y-128365000I0J-200000D01*
G01*
X126215000Y-128965000D01*
G75*
G02*
X126015000Y-129165000I-200000J0D01*
G01*
X124465000Y-129165000D01*
G75*
G02*
X124265000Y-128965000I0J200000D01*
G01*
G37*
G36*
G01*
X129665000Y-128965000D02*
X129665000Y-128365000D01*
G75*
G02*
X129865000Y-128165000I200000J0D01*
G01*
X131415000Y-128165000D01*
G75*
G02*
X131615000Y-128365000I0J-200000D01*
G01*
X131615000Y-128965000D01*
G75*
G02*
X131415000Y-129165000I-200000J0D01*
G01*
X129865000Y-129165000D01*
G75*
G02*
X129665000Y-128965000I0J200000D01*
G01*
G37*
G36*
G01*
X129665000Y-127695000D02*
X129665000Y-127095000D01*
G75*
G02*
X129865000Y-126895000I200000J0D01*
G01*
X131415000Y-126895000D01*
G75*
G02*
X131615000Y-127095000I0J-200000D01*
G01*
X131615000Y-127695000D01*
G75*
G02*
X131415000Y-127895000I-200000J0D01*
G01*
X129865000Y-127895000D01*
G75*
G02*
X129665000Y-127695000I0J200000D01*
G01*
G37*
G36*
G01*
X129665000Y-126425000D02*
X129665000Y-125825000D01*
G75*
G02*
X129865000Y-125625000I200000J0D01*
G01*
X131415000Y-125625000D01*
G75*
G02*
X131615000Y-125825000I0J-200000D01*
G01*
X131615000Y-126425000D01*
G75*
G02*
X131415000Y-126625000I-200000J0D01*
G01*
X129865000Y-126625000D01*
G75*
G02*
X129665000Y-126425000I0J200000D01*
G01*
G37*
G36*
G01*
X129665000Y-125155000D02*
X129665000Y-124555000D01*
G75*
G02*
X129865000Y-124355000I200000J0D01*
G01*
X131415000Y-124355000D01*
G75*
G02*
X131615000Y-124555000I0J-200000D01*
G01*
X131615000Y-125155000D01*
G75*
G02*
X131415000Y-125355000I-200000J0D01*
G01*
X129865000Y-125355000D01*
G75*
G02*
X129665000Y-125155000I0J200000D01*
G01*
G37*
%TD*%
%TO.C,D1*%
G36*
G01*
X120898460Y-131240560D02*
X120898460Y-132439440D01*
G75*
G02*
X120698460Y-132639440I-200000J0D01*
G01*
X119499580Y-132639440D01*
G75*
G02*
X119299580Y-132439440I0J200000D01*
G01*
X119299580Y-131240560D01*
G75*
G02*
X119499580Y-131040560I200000J0D01*
G01*
X120698460Y-131040560D01*
G75*
G02*
X120898460Y-131240560I0J-200000D01*
G01*
G37*
G36*
G01*
X118800420Y-131240560D02*
X118800420Y-132439440D01*
G75*
G02*
X118600420Y-132639440I-200000J0D01*
G01*
X117401540Y-132639440D01*
G75*
G02*
X117201540Y-132439440I0J200000D01*
G01*
X117201540Y-131240560D01*
G75*
G02*
X117401540Y-131040560I200000J0D01*
G01*
X118600420Y-131040560D01*
G75*
G02*
X118800420Y-131240560I0J-200000D01*
G01*
G37*
%TD*%
%TO.C,R20*%
G36*
G01*
X139511000Y-131190000D02*
X139511000Y-132490000D01*
G75*
G02*
X139311000Y-132690000I-200000J0D01*
G01*
X137811000Y-132690000D01*
G75*
G02*
X137611000Y-132490000I0J200000D01*
G01*
X137611000Y-131190000D01*
G75*
G02*
X137811000Y-130990000I200000J0D01*
G01*
X139311000Y-130990000D01*
G75*
G02*
X139511000Y-131190000I0J-200000D01*
G01*
G37*
G36*
G01*
X136811000Y-131190000D02*
X136811000Y-132490000D01*
G75*
G02*
X136611000Y-132690000I-200000J0D01*
G01*
X135111000Y-132690000D01*
G75*
G02*
X134911000Y-132490000I0J200000D01*
G01*
X134911000Y-131190000D01*
G75*
G02*
X135111000Y-130990000I200000J0D01*
G01*
X136611000Y-130990000D01*
G75*
G02*
X136811000Y-131190000I0J-200000D01*
G01*
G37*
%TD*%
%TO.C,C12*%
G36*
G01*
X149870000Y-133735000D02*
X149870000Y-132485000D01*
G75*
G02*
X150070000Y-132285000I200000J0D01*
G01*
X151570000Y-132285000D01*
G75*
G02*
X151770000Y-132485000I0J-200000D01*
G01*
X151770000Y-133735000D01*
G75*
G02*
X151570000Y-133935000I-200000J0D01*
G01*
X150070000Y-133935000D01*
G75*
G02*
X149870000Y-133735000I0J200000D01*
G01*
G37*
G36*
G01*
X152370000Y-133735000D02*
X152370000Y-132485000D01*
G75*
G02*
X152570000Y-132285000I200000J0D01*
G01*
X154070000Y-132285000D01*
G75*
G02*
X154270000Y-132485000I0J-200000D01*
G01*
X154270000Y-133735000D01*
G75*
G02*
X154070000Y-133935000I-200000J0D01*
G01*
X152570000Y-133935000D01*
G75*
G02*
X152370000Y-133735000I0J200000D01*
G01*
G37*
%TD*%
M02*
