%TF.GenerationSoftware,KiCad,Pcbnew,(5.1.9)-1*%
%TF.CreationDate,2021-01-10T22:28:58+11:00*%
%TF.ProjectId,pcb-covox-amp,7063622d-636f-4766-9f78-2d616d702e6b,3*%
%TF.SameCoordinates,Original*%
%TF.FileFunction,Legend,Top*%
%TF.FilePolarity,Positive*%
%FSLAX46Y46*%
G04 Gerber Fmt 4.6, Leading zero omitted, Abs format (unit mm)*
G04 Created by KiCad (PCBNEW (5.1.9)-1) date 2021-01-10 22:28:58*
%MOMM*%
%LPD*%
G01*
G04 APERTURE LIST*
%ADD10C,0.250000*%
%ADD11C,0.300000*%
%ADD12C,0.150000*%
%ADD13C,0.120000*%
%ADD14C,0.203200*%
%ADD15C,0.101600*%
G04 APERTURE END LIST*
D10*
X125916190Y-91472142D02*
X125868571Y-91519761D01*
X125725714Y-91567380D01*
X125630476Y-91567380D01*
X125487619Y-91519761D01*
X125392380Y-91424523D01*
X125344761Y-91329285D01*
X125297142Y-91138809D01*
X125297142Y-90995952D01*
X125344761Y-90805476D01*
X125392380Y-90710238D01*
X125487619Y-90615000D01*
X125630476Y-90567380D01*
X125725714Y-90567380D01*
X125868571Y-90615000D01*
X125916190Y-90662619D01*
X126535238Y-90567380D02*
X126725714Y-90567380D01*
X126820952Y-90615000D01*
X126916190Y-90710238D01*
X126963809Y-90900714D01*
X126963809Y-91234047D01*
X126916190Y-91424523D01*
X126820952Y-91519761D01*
X126725714Y-91567380D01*
X126535238Y-91567380D01*
X126440000Y-91519761D01*
X126344761Y-91424523D01*
X126297142Y-91234047D01*
X126297142Y-90900714D01*
X126344761Y-90710238D01*
X126440000Y-90615000D01*
X126535238Y-90567380D01*
X127249523Y-90567380D02*
X127582857Y-91567380D01*
X127916190Y-90567380D01*
X128440000Y-90567380D02*
X128630476Y-90567380D01*
X128725714Y-90615000D01*
X128820952Y-90710238D01*
X128868571Y-90900714D01*
X128868571Y-91234047D01*
X128820952Y-91424523D01*
X128725714Y-91519761D01*
X128630476Y-91567380D01*
X128440000Y-91567380D01*
X128344761Y-91519761D01*
X128249523Y-91424523D01*
X128201904Y-91234047D01*
X128201904Y-90900714D01*
X128249523Y-90710238D01*
X128344761Y-90615000D01*
X128440000Y-90567380D01*
X129201904Y-90567380D02*
X129868571Y-91567380D01*
X129868571Y-90567380D02*
X129201904Y-91567380D01*
X124844761Y-93269761D02*
X124987619Y-93317380D01*
X125225714Y-93317380D01*
X125320952Y-93269761D01*
X125368571Y-93222142D01*
X125416190Y-93126904D01*
X125416190Y-93031666D01*
X125368571Y-92936428D01*
X125320952Y-92888809D01*
X125225714Y-92841190D01*
X125035238Y-92793571D01*
X124940000Y-92745952D01*
X124892380Y-92698333D01*
X124844761Y-92603095D01*
X124844761Y-92507857D01*
X124892380Y-92412619D01*
X124940000Y-92365000D01*
X125035238Y-92317380D01*
X125273333Y-92317380D01*
X125416190Y-92365000D01*
X125844761Y-93317380D02*
X125844761Y-92317380D01*
X126225714Y-92317380D01*
X126320952Y-92365000D01*
X126368571Y-92412619D01*
X126416190Y-92507857D01*
X126416190Y-92650714D01*
X126368571Y-92745952D01*
X126320952Y-92793571D01*
X126225714Y-92841190D01*
X125844761Y-92841190D01*
X126844761Y-92793571D02*
X127178095Y-92793571D01*
X127320952Y-93317380D02*
X126844761Y-93317380D01*
X126844761Y-92317380D01*
X127320952Y-92317380D01*
X127749523Y-92793571D02*
X128082857Y-92793571D01*
X128225714Y-93317380D02*
X127749523Y-93317380D01*
X127749523Y-92317380D01*
X128225714Y-92317380D01*
X129225714Y-93222142D02*
X129178095Y-93269761D01*
X129035238Y-93317380D01*
X128940000Y-93317380D01*
X128797142Y-93269761D01*
X128701904Y-93174523D01*
X128654285Y-93079285D01*
X128606666Y-92888809D01*
X128606666Y-92745952D01*
X128654285Y-92555476D01*
X128701904Y-92460238D01*
X128797142Y-92365000D01*
X128940000Y-92317380D01*
X129035238Y-92317380D01*
X129178095Y-92365000D01*
X129225714Y-92412619D01*
X129654285Y-93317380D02*
X129654285Y-92317380D01*
X129654285Y-92793571D02*
X130225714Y-92793571D01*
X130225714Y-93317380D02*
X130225714Y-92317380D01*
X125440000Y-94067380D02*
X126011428Y-94067380D01*
X125725714Y-95067380D02*
X125725714Y-94067380D01*
X126344761Y-95067380D02*
X126344761Y-94067380D01*
X126344761Y-94543571D02*
X126916190Y-94543571D01*
X126916190Y-95067380D02*
X126916190Y-94067380D01*
X127392380Y-95067380D02*
X127392380Y-94067380D01*
X127868571Y-95067380D02*
X127868571Y-94067380D01*
X128440000Y-95067380D01*
X128440000Y-94067380D01*
X129440000Y-94115000D02*
X129344761Y-94067380D01*
X129201904Y-94067380D01*
X129059047Y-94115000D01*
X128963809Y-94210238D01*
X128916190Y-94305476D01*
X128868571Y-94495952D01*
X128868571Y-94638809D01*
X128916190Y-94829285D01*
X128963809Y-94924523D01*
X129059047Y-95019761D01*
X129201904Y-95067380D01*
X129297142Y-95067380D01*
X129440000Y-95019761D01*
X129487619Y-94972142D01*
X129487619Y-94638809D01*
X129297142Y-94638809D01*
X130106666Y-94591190D02*
X130106666Y-95067380D01*
X129773333Y-94067380D02*
X130106666Y-94591190D01*
X130440000Y-94067380D01*
X126225714Y-95912619D02*
X126273333Y-95865000D01*
X126368571Y-95817380D01*
X126606666Y-95817380D01*
X126701904Y-95865000D01*
X126749523Y-95912619D01*
X126797142Y-96007857D01*
X126797142Y-96103095D01*
X126749523Y-96245952D01*
X126178095Y-96817380D01*
X126797142Y-96817380D01*
X127416190Y-95817380D02*
X127511428Y-95817380D01*
X127606666Y-95865000D01*
X127654285Y-95912619D01*
X127701904Y-96007857D01*
X127749523Y-96198333D01*
X127749523Y-96436428D01*
X127701904Y-96626904D01*
X127654285Y-96722142D01*
X127606666Y-96769761D01*
X127511428Y-96817380D01*
X127416190Y-96817380D01*
X127320952Y-96769761D01*
X127273333Y-96722142D01*
X127225714Y-96626904D01*
X127178095Y-96436428D01*
X127178095Y-96198333D01*
X127225714Y-96007857D01*
X127273333Y-95912619D01*
X127320952Y-95865000D01*
X127416190Y-95817380D01*
X128130476Y-95912619D02*
X128178095Y-95865000D01*
X128273333Y-95817380D01*
X128511428Y-95817380D01*
X128606666Y-95865000D01*
X128654285Y-95912619D01*
X128701904Y-96007857D01*
X128701904Y-96103095D01*
X128654285Y-96245952D01*
X128082857Y-96817380D01*
X128701904Y-96817380D01*
X129654285Y-96817380D02*
X129082857Y-96817380D01*
X129368571Y-96817380D02*
X129368571Y-95817380D01*
X129273333Y-95960238D01*
X129178095Y-96055476D01*
X129082857Y-96103095D01*
X148121380Y-119215690D02*
X148835666Y-119215690D01*
X148978523Y-119263309D01*
X149073761Y-119358547D01*
X149121380Y-119501404D01*
X149121380Y-119596642D01*
X149121380Y-118739500D02*
X148121380Y-118739500D01*
X148121380Y-118358547D01*
X148169000Y-118263309D01*
X148216619Y-118215690D01*
X148311857Y-118168071D01*
X148454714Y-118168071D01*
X148549952Y-118215690D01*
X148597571Y-118263309D01*
X148645190Y-118358547D01*
X148645190Y-118739500D01*
X149121380Y-117215690D02*
X149121380Y-117787119D01*
X149121380Y-117501404D02*
X148121380Y-117501404D01*
X148264238Y-117596642D01*
X148359476Y-117691880D01*
X148407095Y-117787119D01*
X149026142Y-116025214D02*
X149073761Y-115977595D01*
X149121380Y-116025214D01*
X149073761Y-116072833D01*
X149026142Y-116025214D01*
X149121380Y-116025214D01*
X148502333Y-116025214D02*
X148549952Y-115977595D01*
X148597571Y-116025214D01*
X148549952Y-116072833D01*
X148502333Y-116025214D01*
X148597571Y-116025214D01*
X150871380Y-118977595D02*
X150871380Y-119549023D01*
X150871380Y-119263309D02*
X149871380Y-119263309D01*
X150014238Y-119358547D01*
X150109476Y-119453785D01*
X150157095Y-119549023D01*
X150490428Y-118549023D02*
X150490428Y-117787119D01*
X149966619Y-117358547D02*
X149919000Y-117310928D01*
X149871380Y-117215690D01*
X149871380Y-116977595D01*
X149919000Y-116882357D01*
X149966619Y-116834738D01*
X150061857Y-116787119D01*
X150157095Y-116787119D01*
X150299952Y-116834738D01*
X150871380Y-117406166D01*
X150871380Y-116787119D01*
X150585666Y-115644261D02*
X150585666Y-115168071D01*
X150871380Y-115739500D02*
X149871380Y-115406166D01*
X150871380Y-115072833D01*
X150871380Y-114739500D02*
X150204714Y-114739500D01*
X150299952Y-114739500D02*
X150252333Y-114691880D01*
X150204714Y-114596642D01*
X150204714Y-114453785D01*
X150252333Y-114358547D01*
X150347571Y-114310928D01*
X150871380Y-114310928D01*
X150347571Y-114310928D02*
X150252333Y-114263309D01*
X150204714Y-114168071D01*
X150204714Y-114025214D01*
X150252333Y-113929976D01*
X150347571Y-113882357D01*
X150871380Y-113882357D01*
X150204714Y-113406166D02*
X151204714Y-113406166D01*
X150252333Y-113406166D02*
X150204714Y-113310928D01*
X150204714Y-113120452D01*
X150252333Y-113025214D01*
X150299952Y-112977595D01*
X150395190Y-112929976D01*
X150680904Y-112929976D01*
X150776142Y-112977595D01*
X150823761Y-113025214D01*
X150871380Y-113120452D01*
X150871380Y-113310928D01*
X150823761Y-113406166D01*
X150871380Y-112358547D02*
X150823761Y-112453785D01*
X150728523Y-112501404D01*
X149871380Y-112501404D01*
X150871380Y-111977595D02*
X150204714Y-111977595D01*
X149871380Y-111977595D02*
X149919000Y-112025214D01*
X149966619Y-111977595D01*
X149919000Y-111929976D01*
X149871380Y-111977595D01*
X149966619Y-111977595D01*
X150204714Y-111644261D02*
X150204714Y-111263309D01*
X150871380Y-111501404D02*
X150014238Y-111501404D01*
X149919000Y-111453785D01*
X149871380Y-111358547D01*
X149871380Y-111263309D01*
X150871380Y-110929976D02*
X150204714Y-110929976D01*
X149871380Y-110929976D02*
X149919000Y-110977595D01*
X149966619Y-110929976D01*
X149919000Y-110882357D01*
X149871380Y-110929976D01*
X149966619Y-110929976D01*
X150823761Y-110072833D02*
X150871380Y-110168071D01*
X150871380Y-110358547D01*
X150823761Y-110453785D01*
X150728523Y-110501404D01*
X150347571Y-110501404D01*
X150252333Y-110453785D01*
X150204714Y-110358547D01*
X150204714Y-110168071D01*
X150252333Y-110072833D01*
X150347571Y-110025214D01*
X150442809Y-110025214D01*
X150538047Y-110501404D01*
X150871380Y-109168071D02*
X149871380Y-109168071D01*
X150823761Y-109168071D02*
X150871380Y-109263309D01*
X150871380Y-109453785D01*
X150823761Y-109549023D01*
X150776142Y-109596642D01*
X150680904Y-109644261D01*
X150395190Y-109644261D01*
X150299952Y-109596642D01*
X150252333Y-109549023D01*
X150204714Y-109453785D01*
X150204714Y-109263309D01*
X150252333Y-109168071D01*
X151716619Y-119549023D02*
X151669000Y-119501404D01*
X151621380Y-119406166D01*
X151621380Y-119168071D01*
X151669000Y-119072833D01*
X151716619Y-119025214D01*
X151811857Y-118977595D01*
X151907095Y-118977595D01*
X152049952Y-119025214D01*
X152621380Y-119596642D01*
X152621380Y-118977595D01*
X152240428Y-118549023D02*
X152240428Y-117787119D01*
X151621380Y-117406166D02*
X151621380Y-116787119D01*
X152002333Y-117120452D01*
X152002333Y-116977595D01*
X152049952Y-116882357D01*
X152097571Y-116834738D01*
X152192809Y-116787119D01*
X152430904Y-116787119D01*
X152526142Y-116834738D01*
X152573761Y-116882357D01*
X152621380Y-116977595D01*
X152621380Y-117263309D01*
X152573761Y-117358547D01*
X152526142Y-117406166D01*
X151621380Y-115596642D02*
X152430904Y-115596642D01*
X152526142Y-115549023D01*
X152573761Y-115501404D01*
X152621380Y-115406166D01*
X152621380Y-115215690D01*
X152573761Y-115120452D01*
X152526142Y-115072833D01*
X152430904Y-115025214D01*
X151621380Y-115025214D01*
X151954714Y-114549023D02*
X152621380Y-114549023D01*
X152049952Y-114549023D02*
X152002333Y-114501404D01*
X151954714Y-114406166D01*
X151954714Y-114263309D01*
X152002333Y-114168071D01*
X152097571Y-114120452D01*
X152621380Y-114120452D01*
X152621380Y-113644261D02*
X151954714Y-113644261D01*
X152049952Y-113644261D02*
X152002333Y-113596642D01*
X151954714Y-113501404D01*
X151954714Y-113358547D01*
X152002333Y-113263309D01*
X152097571Y-113215690D01*
X152621380Y-113215690D01*
X152097571Y-113215690D02*
X152002333Y-113168071D01*
X151954714Y-113072833D01*
X151954714Y-112929976D01*
X152002333Y-112834738D01*
X152097571Y-112787119D01*
X152621380Y-112787119D01*
X152621380Y-112168071D02*
X152573761Y-112263309D01*
X152526142Y-112310928D01*
X152430904Y-112358547D01*
X152145190Y-112358547D01*
X152049952Y-112310928D01*
X152002333Y-112263309D01*
X151954714Y-112168071D01*
X151954714Y-112025214D01*
X152002333Y-111929976D01*
X152049952Y-111882357D01*
X152145190Y-111834738D01*
X152430904Y-111834738D01*
X152526142Y-111882357D01*
X152573761Y-111929976D01*
X152621380Y-112025214D01*
X152621380Y-112168071D01*
X152621380Y-110977595D02*
X151621380Y-110977595D01*
X152573761Y-110977595D02*
X152621380Y-111072833D01*
X152621380Y-111263309D01*
X152573761Y-111358547D01*
X152526142Y-111406166D01*
X152430904Y-111453785D01*
X152145190Y-111453785D01*
X152049952Y-111406166D01*
X152002333Y-111358547D01*
X151954714Y-111263309D01*
X151954714Y-111072833D01*
X152002333Y-110977595D01*
X152621380Y-110501404D02*
X151954714Y-110501404D01*
X151621380Y-110501404D02*
X151669000Y-110549023D01*
X151716619Y-110501404D01*
X151669000Y-110453785D01*
X151621380Y-110501404D01*
X151716619Y-110501404D01*
X151954714Y-110168071D02*
X151954714Y-109787119D01*
X152621380Y-110025214D02*
X151764238Y-110025214D01*
X151669000Y-109977595D01*
X151621380Y-109882357D01*
X151621380Y-109787119D01*
X152621380Y-109453785D02*
X151954714Y-109453785D01*
X151621380Y-109453785D02*
X151669000Y-109501404D01*
X151716619Y-109453785D01*
X151669000Y-109406166D01*
X151621380Y-109453785D01*
X151716619Y-109453785D01*
X152573761Y-108596642D02*
X152621380Y-108691880D01*
X152621380Y-108882357D01*
X152573761Y-108977595D01*
X152478523Y-109025214D01*
X152097571Y-109025214D01*
X152002333Y-108977595D01*
X151954714Y-108882357D01*
X151954714Y-108691880D01*
X152002333Y-108596642D01*
X152097571Y-108549023D01*
X152192809Y-108549023D01*
X152288047Y-109025214D01*
X152621380Y-107691880D02*
X151621380Y-107691880D01*
X152573761Y-107691880D02*
X152621380Y-107787119D01*
X152621380Y-107977595D01*
X152573761Y-108072833D01*
X152526142Y-108120452D01*
X152430904Y-108168071D01*
X152145190Y-108168071D01*
X152049952Y-108120452D01*
X152002333Y-108072833D01*
X151954714Y-107977595D01*
X151954714Y-107787119D01*
X152002333Y-107691880D01*
D11*
X154114000Y-106618428D02*
X154042571Y-106761285D01*
X154042571Y-106975571D01*
X154114000Y-107189857D01*
X154256857Y-107332714D01*
X154399714Y-107404142D01*
X154685428Y-107475571D01*
X154899714Y-107475571D01*
X155185428Y-107404142D01*
X155328285Y-107332714D01*
X155471142Y-107189857D01*
X155542571Y-106975571D01*
X155542571Y-106832714D01*
X155471142Y-106618428D01*
X155399714Y-106547000D01*
X154899714Y-106547000D01*
X154899714Y-106832714D01*
X155542571Y-105261285D02*
X154756857Y-105261285D01*
X154614000Y-105332714D01*
X154542571Y-105475571D01*
X154542571Y-105761285D01*
X154614000Y-105904142D01*
X155471142Y-105261285D02*
X155542571Y-105404142D01*
X155542571Y-105761285D01*
X155471142Y-105904142D01*
X155328285Y-105975571D01*
X155185428Y-105975571D01*
X155042571Y-105904142D01*
X154971142Y-105761285D01*
X154971142Y-105404142D01*
X154899714Y-105261285D01*
X155542571Y-104547000D02*
X154542571Y-104547000D01*
X154042571Y-104547000D02*
X154114000Y-104618428D01*
X154185428Y-104547000D01*
X154114000Y-104475571D01*
X154042571Y-104547000D01*
X154185428Y-104547000D01*
X154542571Y-103832714D02*
X155542571Y-103832714D01*
X154685428Y-103832714D02*
X154614000Y-103761285D01*
X154542571Y-103618428D01*
X154542571Y-103404142D01*
X154614000Y-103261285D01*
X154756857Y-103189857D01*
X155542571Y-103189857D01*
X154169571Y-118171428D02*
X155669571Y-117671428D01*
X154169571Y-117171428D01*
X155669571Y-116457142D02*
X155598142Y-116600000D01*
X155526714Y-116671428D01*
X155383857Y-116742857D01*
X154955285Y-116742857D01*
X154812428Y-116671428D01*
X154741000Y-116600000D01*
X154669571Y-116457142D01*
X154669571Y-116242857D01*
X154741000Y-116100000D01*
X154812428Y-116028571D01*
X154955285Y-115957142D01*
X155383857Y-115957142D01*
X155526714Y-116028571D01*
X155598142Y-116100000D01*
X155669571Y-116242857D01*
X155669571Y-116457142D01*
X155669571Y-115100000D02*
X155598142Y-115242857D01*
X155455285Y-115314285D01*
X154169571Y-115314285D01*
X154883857Y-95652714D02*
X154955285Y-95438428D01*
X155026714Y-95367000D01*
X155169571Y-95295571D01*
X155383857Y-95295571D01*
X155526714Y-95367000D01*
X155598142Y-95438428D01*
X155669571Y-95581285D01*
X155669571Y-96152714D01*
X154169571Y-96152714D01*
X154169571Y-95652714D01*
X154241000Y-95509857D01*
X154312428Y-95438428D01*
X154455285Y-95367000D01*
X154598142Y-95367000D01*
X154741000Y-95438428D01*
X154812428Y-95509857D01*
X154883857Y-95652714D01*
X154883857Y-96152714D01*
X155669571Y-94009857D02*
X154883857Y-94009857D01*
X154741000Y-94081285D01*
X154669571Y-94224142D01*
X154669571Y-94509857D01*
X154741000Y-94652714D01*
X155598142Y-94009857D02*
X155669571Y-94152714D01*
X155669571Y-94509857D01*
X155598142Y-94652714D01*
X155455285Y-94724142D01*
X155312428Y-94724142D01*
X155169571Y-94652714D01*
X155098142Y-94509857D01*
X155098142Y-94152714D01*
X155026714Y-94009857D01*
X155598142Y-93367000D02*
X155669571Y-93224142D01*
X155669571Y-92938428D01*
X155598142Y-92795571D01*
X155455285Y-92724142D01*
X155383857Y-92724142D01*
X155241000Y-92795571D01*
X155169571Y-92938428D01*
X155169571Y-93152714D01*
X155098142Y-93295571D01*
X154955285Y-93367000D01*
X154883857Y-93367000D01*
X154741000Y-93295571D01*
X154669571Y-93152714D01*
X154669571Y-92938428D01*
X154741000Y-92795571D01*
X155598142Y-92152714D02*
X155669571Y-92009857D01*
X155669571Y-91724142D01*
X155598142Y-91581285D01*
X155455285Y-91509857D01*
X155383857Y-91509857D01*
X155241000Y-91581285D01*
X155169571Y-91724142D01*
X155169571Y-91938428D01*
X155098142Y-92081285D01*
X154955285Y-92152714D01*
X154883857Y-92152714D01*
X154741000Y-92081285D01*
X154669571Y-91938428D01*
X154669571Y-91724142D01*
X154741000Y-91581285D01*
D12*
%TO.C,J1*%
X113970000Y-142000000D02*
X113970000Y-134380000D01*
X93015000Y-135650000D02*
X93015000Y-95010000D01*
X113970000Y-96280000D02*
X113970000Y-88660000D01*
X100000000Y-142000000D02*
X100000000Y-88660000D01*
X98730000Y-142000000D02*
X100000000Y-142000000D01*
X98730000Y-88660000D02*
X98730000Y-142000000D01*
X100000000Y-88660000D02*
X98730000Y-88660000D01*
X93015000Y-135650000D02*
X98730000Y-135650000D01*
X93015000Y-95010000D02*
X98730000Y-95010000D01*
X103175000Y-135650000D02*
X100000000Y-135650000D01*
X103175000Y-95010000D02*
X100000000Y-95010000D01*
X105080000Y-142000000D02*
X105080000Y-134380000D01*
X105080000Y-88660000D02*
X105080000Y-96280000D01*
X113970000Y-142000000D02*
X100000000Y-142000000D01*
X105080000Y-134380000D02*
X113970000Y-134380000D01*
X100000000Y-136285000D02*
X105080000Y-136285000D01*
X100000000Y-94375000D02*
X105080000Y-94375000D01*
X105080000Y-96280000D02*
X113970000Y-96280000D01*
X100000000Y-88660000D02*
X113970000Y-88660000D01*
D13*
%TO.C,C10*%
X138993000Y-101102000D02*
X138993000Y-100702000D01*
X134413000Y-101872000D02*
X134413000Y-100702000D01*
X134413000Y-97292000D02*
X134413000Y-98462000D01*
X138993000Y-98062000D02*
X138993000Y-98462000D01*
X138223000Y-97292000D02*
X134413000Y-97292000D01*
X138223000Y-97292000D02*
X138993000Y-98062000D01*
X138223000Y-101872000D02*
X134413000Y-101872000D01*
X138223000Y-101872000D02*
X138993000Y-101102000D01*
%TO.C,C5*%
X139247000Y-119263000D02*
X139247000Y-118863000D01*
X134667000Y-120033000D02*
X134667000Y-118863000D01*
X134667000Y-115453000D02*
X134667000Y-116623000D01*
X139247000Y-116223000D02*
X139247000Y-116623000D01*
X138477000Y-115453000D02*
X134667000Y-115453000D01*
X138477000Y-115453000D02*
X139247000Y-116223000D01*
X138477000Y-120033000D02*
X134667000Y-120033000D01*
X138477000Y-120033000D02*
X139247000Y-119263000D01*
%TO.C,C7*%
X136573000Y-104657000D02*
X136573000Y-107547000D01*
X136573000Y-113557000D02*
X136573000Y-110667000D01*
X146993000Y-114317000D02*
X146993000Y-110667000D01*
X146993000Y-103897000D02*
X146993000Y-107547000D01*
X146993000Y-114317000D02*
X137333000Y-114317000D01*
X137333000Y-114317000D02*
X136573000Y-113557000D01*
X136573000Y-104657000D02*
X137333000Y-103897000D01*
X137333000Y-103897000D02*
X146993000Y-103897000D01*
%TO.C,C2*%
X134547000Y-140100000D02*
X134547000Y-137210000D01*
X134547000Y-131200000D02*
X134547000Y-134090000D01*
X124127000Y-130440000D02*
X124127000Y-134090000D01*
X124127000Y-140860000D02*
X124127000Y-137210000D01*
X124127000Y-130440000D02*
X133787000Y-130440000D01*
X133787000Y-130440000D02*
X134547000Y-131200000D01*
X134547000Y-140100000D02*
X133787000Y-140860000D01*
X133787000Y-140860000D02*
X124127000Y-140860000D01*
D14*
%TO.C,X1*%
X161927740Y-130349020D02*
X161927740Y-129848640D01*
X161927740Y-129848640D02*
X161927740Y-123851700D01*
X161927740Y-123851700D02*
X161927740Y-123351320D01*
X161927740Y-123851700D02*
X164429640Y-123851700D01*
X164429640Y-123851700D02*
X164429640Y-129848640D01*
X164429640Y-129848640D02*
X161927740Y-129848640D01*
X151630580Y-130349020D02*
X157228740Y-130349020D01*
X157228740Y-123351320D02*
X151630580Y-123351320D01*
X159629040Y-123351320D02*
X161927740Y-123351320D01*
X161927740Y-130349020D02*
X159629040Y-130349020D01*
X149931320Y-125050580D02*
X149931320Y-125650020D01*
X149931320Y-128047780D02*
X149931320Y-128649760D01*
D13*
%TO.C,RV2*%
X173930000Y-102650000D02*
X173930000Y-107770000D01*
X166930000Y-102650000D02*
X166930000Y-107770000D01*
X166930000Y-107770000D02*
X173930000Y-107770000D01*
X166930000Y-102650000D02*
X173930000Y-102650000D01*
X166930000Y-101650000D02*
X166930000Y-108770000D01*
X161930000Y-101650000D02*
X161930000Y-108770000D01*
X161930000Y-108770000D02*
X166930000Y-108770000D01*
X161930000Y-101650000D02*
X166930000Y-101650000D01*
X161930000Y-100400000D02*
X161930000Y-110020000D01*
X156409000Y-100400000D02*
X156409000Y-110020000D01*
X156409000Y-110020000D02*
X161930000Y-110020000D01*
X156409000Y-100400000D02*
X161930000Y-100400000D01*
%TO.C,J2*%
X100800000Y-133133333D02*
X104540000Y-133133333D01*
X104540000Y-133133333D02*
X104540000Y-97526667D01*
X104540000Y-97526667D02*
X100800000Y-97526667D01*
X102540000Y-97286667D02*
X104780000Y-97286667D01*
X104780000Y-97286667D02*
X104780000Y-101480000D01*
%TO.C,RV3*%
X173930000Y-91220000D02*
X173930000Y-96340000D01*
X166930000Y-91220000D02*
X166930000Y-96340000D01*
X166930000Y-96340000D02*
X173930000Y-96340000D01*
X166930000Y-91220000D02*
X173930000Y-91220000D01*
X166930000Y-90220000D02*
X166930000Y-97340000D01*
X161930000Y-90220000D02*
X161930000Y-97340000D01*
X161930000Y-97340000D02*
X166930000Y-97340000D01*
X161930000Y-90220000D02*
X166930000Y-90220000D01*
X161930000Y-88970000D02*
X161930000Y-98590000D01*
X156409000Y-88970000D02*
X156409000Y-98590000D01*
X156409000Y-98590000D02*
X161930000Y-98590000D01*
X156409000Y-88970000D02*
X161930000Y-88970000D01*
%TO.C,RV1*%
X173930000Y-114080000D02*
X173930000Y-119200000D01*
X166930000Y-114080000D02*
X166930000Y-119200000D01*
X166930000Y-119200000D02*
X173930000Y-119200000D01*
X166930000Y-114080000D02*
X173930000Y-114080000D01*
X166930000Y-113080000D02*
X166930000Y-120200000D01*
X161930000Y-113080000D02*
X161930000Y-120200000D01*
X161930000Y-120200000D02*
X166930000Y-120200000D01*
X161930000Y-113080000D02*
X166930000Y-113080000D01*
X161930000Y-111830000D02*
X161930000Y-121450000D01*
X156409000Y-111830000D02*
X156409000Y-121450000D01*
X156409000Y-121450000D02*
X161930000Y-121450000D01*
X156409000Y-111830000D02*
X161930000Y-111830000D01*
%TO.C,JP1*%
X144390000Y-120350000D02*
X145720000Y-120350000D01*
X144390000Y-121680000D02*
X144390000Y-120350000D01*
X144390000Y-122950000D02*
X147050000Y-122950000D01*
X147050000Y-122950000D02*
X147050000Y-128090000D01*
X144390000Y-122950000D02*
X144390000Y-128090000D01*
X144390000Y-128090000D02*
X147050000Y-128090000D01*
D12*
%TO.C,C1*%
X118677000Y-129896000D02*
X119677000Y-129896000D01*
X119677000Y-128196000D02*
X118677000Y-128196000D01*
%TO.C,C3*%
X136234000Y-136400000D02*
X136234000Y-137400000D01*
X137934000Y-137400000D02*
X137934000Y-136400000D01*
%TO.C,C4*%
X138774000Y-136400000D02*
X138774000Y-137400000D01*
X140474000Y-137400000D02*
X140474000Y-136400000D01*
%TO.C,C6*%
X136711000Y-130150000D02*
X137711000Y-130150000D01*
X137711000Y-128450000D02*
X136711000Y-128450000D01*
%TO.C,C8*%
X118677000Y-127229000D02*
X119677000Y-127229000D01*
X119677000Y-125529000D02*
X118677000Y-125529000D01*
%TO.C,C9*%
X118677000Y-124435000D02*
X119677000Y-124435000D01*
X119677000Y-122735000D02*
X118677000Y-122735000D01*
%TO.C,C11*%
X136584000Y-125197000D02*
X137584000Y-125197000D01*
X137584000Y-123497000D02*
X136584000Y-123497000D01*
%TO.C,P1*%
X162237460Y-141270900D02*
X155832460Y-141270900D01*
X161007460Y-132570900D02*
X161007460Y-141270900D01*
X155832460Y-132570900D02*
X162237460Y-132570900D01*
X155832460Y-141270900D02*
X155832460Y-132570900D01*
X162237460Y-141270900D02*
X162237460Y-132570900D01*
%TO.C,R1*%
X137684000Y-122809000D02*
X136484000Y-122809000D01*
X136484000Y-121059000D02*
X137684000Y-121059000D01*
%TO.C,R2*%
X137811000Y-127635000D02*
X136611000Y-127635000D01*
X136611000Y-125885000D02*
X137811000Y-125885000D01*
%TO.C,R3*%
X119650000Y-99568000D02*
X118450000Y-99568000D01*
X118450000Y-97818000D02*
X119650000Y-97818000D01*
%TO.C,R4*%
X119650000Y-102362000D02*
X118450000Y-102362000D01*
X118450000Y-100612000D02*
X119650000Y-100612000D01*
%TO.C,R5*%
X119650000Y-105156000D02*
X118450000Y-105156000D01*
X118450000Y-103406000D02*
X119650000Y-103406000D01*
%TO.C,R6*%
X119650000Y-107823000D02*
X118450000Y-107823000D01*
X118450000Y-106073000D02*
X119650000Y-106073000D01*
%TO.C,R7*%
X119650000Y-110617000D02*
X118450000Y-110617000D01*
X118450000Y-108867000D02*
X119650000Y-108867000D01*
%TO.C,R8*%
X119650000Y-113411000D02*
X118450000Y-113411000D01*
X118450000Y-111661000D02*
X119650000Y-111661000D01*
%TO.C,R9*%
X119650000Y-116205000D02*
X118450000Y-116205000D01*
X118450000Y-114455000D02*
X119650000Y-114455000D01*
%TO.C,R10*%
X119650000Y-118872000D02*
X118450000Y-118872000D01*
X118450000Y-117122000D02*
X119650000Y-117122000D01*
%TO.C,R11*%
X119650000Y-121666000D02*
X118450000Y-121666000D01*
X118450000Y-119916000D02*
X119650000Y-119916000D01*
%TO.C,R12*%
X126000000Y-102362000D02*
X124800000Y-102362000D01*
X124800000Y-100612000D02*
X126000000Y-100612000D01*
%TO.C,R13*%
X126000000Y-105156000D02*
X124800000Y-105156000D01*
X124800000Y-103406000D02*
X126000000Y-103406000D01*
%TO.C,R14*%
X126000000Y-107823000D02*
X124800000Y-107823000D01*
X124800000Y-106073000D02*
X126000000Y-106073000D01*
%TO.C,R15*%
X126000000Y-110617000D02*
X124800000Y-110617000D01*
X124800000Y-108867000D02*
X126000000Y-108867000D01*
%TO.C,R16*%
X126000000Y-113411000D02*
X124800000Y-113411000D01*
X124800000Y-111661000D02*
X126000000Y-111661000D01*
%TO.C,R17*%
X126000000Y-116078000D02*
X124800000Y-116078000D01*
X124800000Y-114328000D02*
X126000000Y-114328000D01*
%TO.C,R18*%
X126000000Y-118872000D02*
X124800000Y-118872000D01*
X124800000Y-117122000D02*
X126000000Y-117122000D01*
%TO.C,R19*%
X126000000Y-121666000D02*
X124800000Y-121666000D01*
X124800000Y-119916000D02*
X126000000Y-119916000D01*
%TO.C,U1*%
X125865000Y-124330000D02*
X124465000Y-124330000D01*
X125865000Y-129335000D02*
X130015000Y-129335000D01*
X125865000Y-124185000D02*
X130015000Y-124185000D01*
X125865000Y-129335000D02*
X125865000Y-129190000D01*
X130015000Y-129335000D02*
X130015000Y-129190000D01*
X130015000Y-124185000D02*
X130015000Y-124330000D01*
X125865000Y-124185000D02*
X125865000Y-124330000D01*
%TO.C,D1*%
X119050000Y-132190000D02*
X118700000Y-131840000D01*
X119050000Y-131490000D02*
X119050000Y-132190000D01*
X118700000Y-131840000D02*
X119050000Y-131490000D01*
X119050000Y-131840000D02*
X119400000Y-131840000D01*
X118700000Y-131490000D02*
X118700000Y-132190000D01*
X118950000Y-131740000D02*
X118800000Y-131890000D01*
X118950000Y-131990000D02*
X118950000Y-131740000D01*
X117450000Y-131090000D02*
X120150000Y-131090000D01*
X117450000Y-132590000D02*
X120150000Y-132590000D01*
%TO.C,R20*%
X137811000Y-132715000D02*
X136611000Y-132715000D01*
X136611000Y-130965000D02*
X137811000Y-130965000D01*
%TO.C,C12*%
X151570000Y-133960000D02*
X152570000Y-133960000D01*
X152570000Y-132260000D02*
X151570000Y-132260000D01*
%TO.C,J1*%
X112747666Y-94843380D02*
X112747666Y-95557666D01*
X112700047Y-95700523D01*
X112604809Y-95795761D01*
X112461952Y-95843380D01*
X112366714Y-95843380D01*
X113747666Y-95843380D02*
X113176238Y-95843380D01*
X113461952Y-95843380D02*
X113461952Y-94843380D01*
X113366714Y-94986238D01*
X113271476Y-95081476D01*
X113176238Y-95129095D01*
X107082380Y-139944285D02*
X106082380Y-139944285D01*
X106082380Y-139706190D01*
X106130000Y-139563333D01*
X106225238Y-139468095D01*
X106320476Y-139420476D01*
X106510952Y-139372857D01*
X106653809Y-139372857D01*
X106844285Y-139420476D01*
X106939523Y-139468095D01*
X107034761Y-139563333D01*
X107082380Y-139706190D01*
X107082380Y-139944285D01*
X106558571Y-138610952D02*
X106606190Y-138468095D01*
X106653809Y-138420476D01*
X106749047Y-138372857D01*
X106891904Y-138372857D01*
X106987142Y-138420476D01*
X107034761Y-138468095D01*
X107082380Y-138563333D01*
X107082380Y-138944285D01*
X106082380Y-138944285D01*
X106082380Y-138610952D01*
X106130000Y-138515714D01*
X106177619Y-138468095D01*
X106272857Y-138420476D01*
X106368095Y-138420476D01*
X106463333Y-138468095D01*
X106510952Y-138515714D01*
X106558571Y-138610952D01*
X106558571Y-138944285D01*
X106177619Y-137991904D02*
X106130000Y-137944285D01*
X106082380Y-137849047D01*
X106082380Y-137610952D01*
X106130000Y-137515714D01*
X106177619Y-137468095D01*
X106272857Y-137420476D01*
X106368095Y-137420476D01*
X106510952Y-137468095D01*
X107082380Y-138039523D01*
X107082380Y-137420476D01*
X106082380Y-136515714D02*
X106082380Y-136991904D01*
X106558571Y-137039523D01*
X106510952Y-136991904D01*
X106463333Y-136896666D01*
X106463333Y-136658571D01*
X106510952Y-136563333D01*
X106558571Y-136515714D01*
X106653809Y-136468095D01*
X106891904Y-136468095D01*
X106987142Y-136515714D01*
X107034761Y-136563333D01*
X107082380Y-136658571D01*
X107082380Y-136896666D01*
X107034761Y-136991904D01*
X106987142Y-137039523D01*
%TO.C,C10*%
X141013142Y-99939142D02*
X140965523Y-99986761D01*
X140822666Y-100034380D01*
X140727428Y-100034380D01*
X140584571Y-99986761D01*
X140489333Y-99891523D01*
X140441714Y-99796285D01*
X140394095Y-99605809D01*
X140394095Y-99462952D01*
X140441714Y-99272476D01*
X140489333Y-99177238D01*
X140584571Y-99082000D01*
X140727428Y-99034380D01*
X140822666Y-99034380D01*
X140965523Y-99082000D01*
X141013142Y-99129619D01*
X141965523Y-100034380D02*
X141394095Y-100034380D01*
X141679809Y-100034380D02*
X141679809Y-99034380D01*
X141584571Y-99177238D01*
X141489333Y-99272476D01*
X141394095Y-99320095D01*
X142584571Y-99034380D02*
X142679809Y-99034380D01*
X142775047Y-99082000D01*
X142822666Y-99129619D01*
X142870285Y-99224857D01*
X142917904Y-99415333D01*
X142917904Y-99653428D01*
X142870285Y-99843904D01*
X142822666Y-99939142D01*
X142775047Y-99986761D01*
X142679809Y-100034380D01*
X142584571Y-100034380D01*
X142489333Y-99986761D01*
X142441714Y-99939142D01*
X142394095Y-99843904D01*
X142346476Y-99653428D01*
X142346476Y-99415333D01*
X142394095Y-99224857D01*
X142441714Y-99129619D01*
X142489333Y-99082000D01*
X142584571Y-99034380D01*
X139092047Y-97643428D02*
X139853952Y-97643428D01*
X139473000Y-98024380D02*
X139473000Y-97262476D01*
%TO.C,C5*%
X141362333Y-118100142D02*
X141314714Y-118147761D01*
X141171857Y-118195380D01*
X141076619Y-118195380D01*
X140933761Y-118147761D01*
X140838523Y-118052523D01*
X140790904Y-117957285D01*
X140743285Y-117766809D01*
X140743285Y-117623952D01*
X140790904Y-117433476D01*
X140838523Y-117338238D01*
X140933761Y-117243000D01*
X141076619Y-117195380D01*
X141171857Y-117195380D01*
X141314714Y-117243000D01*
X141362333Y-117290619D01*
X142267095Y-117195380D02*
X141790904Y-117195380D01*
X141743285Y-117671571D01*
X141790904Y-117623952D01*
X141886142Y-117576333D01*
X142124238Y-117576333D01*
X142219476Y-117623952D01*
X142267095Y-117671571D01*
X142314714Y-117766809D01*
X142314714Y-118004904D01*
X142267095Y-118100142D01*
X142219476Y-118147761D01*
X142124238Y-118195380D01*
X141886142Y-118195380D01*
X141790904Y-118147761D01*
X141743285Y-118100142D01*
X139346047Y-115804428D02*
X140107952Y-115804428D01*
X139727000Y-116185380D02*
X139727000Y-115423476D01*
%TO.C,C7*%
X133615333Y-109591142D02*
X133567714Y-109638761D01*
X133424857Y-109686380D01*
X133329619Y-109686380D01*
X133186761Y-109638761D01*
X133091523Y-109543523D01*
X133043904Y-109448285D01*
X132996285Y-109257809D01*
X132996285Y-109114952D01*
X133043904Y-108924476D01*
X133091523Y-108829238D01*
X133186761Y-108734000D01*
X133329619Y-108686380D01*
X133424857Y-108686380D01*
X133567714Y-108734000D01*
X133615333Y-108781619D01*
X133948666Y-108686380D02*
X134615333Y-108686380D01*
X134186761Y-109686380D01*
X137338047Y-113369428D02*
X138099952Y-113369428D01*
X137719000Y-113750380D02*
X137719000Y-112988476D01*
%TO.C,C2*%
X121677333Y-134991142D02*
X121629714Y-135038761D01*
X121486857Y-135086380D01*
X121391619Y-135086380D01*
X121248761Y-135038761D01*
X121153523Y-134943523D01*
X121105904Y-134848285D01*
X121058285Y-134657809D01*
X121058285Y-134514952D01*
X121105904Y-134324476D01*
X121153523Y-134229238D01*
X121248761Y-134134000D01*
X121391619Y-134086380D01*
X121486857Y-134086380D01*
X121629714Y-134134000D01*
X121677333Y-134181619D01*
X122058285Y-134181619D02*
X122105904Y-134134000D01*
X122201142Y-134086380D01*
X122439238Y-134086380D01*
X122534476Y-134134000D01*
X122582095Y-134181619D01*
X122629714Y-134276857D01*
X122629714Y-134372095D01*
X122582095Y-134514952D01*
X122010666Y-135086380D01*
X122629714Y-135086380D01*
X133147047Y-131403428D02*
X133908952Y-131403428D01*
X133528000Y-131784380D02*
X133528000Y-131022476D01*
%TO.C,X1*%
D15*
X155438523Y-127788095D02*
X156708523Y-126941428D01*
X155438523Y-126941428D02*
X156708523Y-127788095D01*
X156708523Y-125792380D02*
X156708523Y-126518095D01*
X156708523Y-126155238D02*
X155438523Y-126155238D01*
X155619952Y-126276190D01*
X155740904Y-126397142D01*
X155801380Y-126518095D01*
%TO.C,RV2*%
D12*
X161412380Y-105892238D02*
X160936190Y-106225571D01*
X161412380Y-106463666D02*
X160412380Y-106463666D01*
X160412380Y-106082714D01*
X160460000Y-105987476D01*
X160507619Y-105939857D01*
X160602857Y-105892238D01*
X160745714Y-105892238D01*
X160840952Y-105939857D01*
X160888571Y-105987476D01*
X160936190Y-106082714D01*
X160936190Y-106463666D01*
X160412380Y-105606523D02*
X161412380Y-105273190D01*
X160412380Y-104939857D01*
X160507619Y-104654142D02*
X160460000Y-104606523D01*
X160412380Y-104511285D01*
X160412380Y-104273190D01*
X160460000Y-104177952D01*
X160507619Y-104130333D01*
X160602857Y-104082714D01*
X160698095Y-104082714D01*
X160840952Y-104130333D01*
X161412380Y-104701761D01*
X161412380Y-104082714D01*
%TO.C,J2*%
X101825666Y-95859380D02*
X101825666Y-96573666D01*
X101778047Y-96716523D01*
X101682809Y-96811761D01*
X101539952Y-96859380D01*
X101444714Y-96859380D01*
X102254238Y-95954619D02*
X102301857Y-95907000D01*
X102397095Y-95859380D01*
X102635190Y-95859380D01*
X102730428Y-95907000D01*
X102778047Y-95954619D01*
X102825666Y-96049857D01*
X102825666Y-96145095D01*
X102778047Y-96287952D01*
X102206619Y-96859380D01*
X102825666Y-96859380D01*
%TO.C,RV3*%
X161412380Y-94335238D02*
X160936190Y-94668571D01*
X161412380Y-94906666D02*
X160412380Y-94906666D01*
X160412380Y-94525714D01*
X160460000Y-94430476D01*
X160507619Y-94382857D01*
X160602857Y-94335238D01*
X160745714Y-94335238D01*
X160840952Y-94382857D01*
X160888571Y-94430476D01*
X160936190Y-94525714D01*
X160936190Y-94906666D01*
X160412380Y-94049523D02*
X161412380Y-93716190D01*
X160412380Y-93382857D01*
X160412380Y-93144761D02*
X160412380Y-92525714D01*
X160793333Y-92859047D01*
X160793333Y-92716190D01*
X160840952Y-92620952D01*
X160888571Y-92573333D01*
X160983809Y-92525714D01*
X161221904Y-92525714D01*
X161317142Y-92573333D01*
X161364761Y-92620952D01*
X161412380Y-92716190D01*
X161412380Y-93001904D01*
X161364761Y-93097142D01*
X161317142Y-93144761D01*
%TO.C,RV1*%
X161412380Y-117322238D02*
X160936190Y-117655571D01*
X161412380Y-117893666D02*
X160412380Y-117893666D01*
X160412380Y-117512714D01*
X160460000Y-117417476D01*
X160507619Y-117369857D01*
X160602857Y-117322238D01*
X160745714Y-117322238D01*
X160840952Y-117369857D01*
X160888571Y-117417476D01*
X160936190Y-117512714D01*
X160936190Y-117893666D01*
X160412380Y-117036523D02*
X161412380Y-116703190D01*
X160412380Y-116369857D01*
X161412380Y-115512714D02*
X161412380Y-116084142D01*
X161412380Y-115798428D02*
X160412380Y-115798428D01*
X160555238Y-115893666D01*
X160650476Y-115988904D01*
X160698095Y-116084142D01*
%TO.C,JP1*%
X144886666Y-118802380D02*
X144886666Y-119516666D01*
X144839047Y-119659523D01*
X144743809Y-119754761D01*
X144600952Y-119802380D01*
X144505714Y-119802380D01*
X145362857Y-119802380D02*
X145362857Y-118802380D01*
X145743809Y-118802380D01*
X145839047Y-118850000D01*
X145886666Y-118897619D01*
X145934285Y-118992857D01*
X145934285Y-119135714D01*
X145886666Y-119230952D01*
X145839047Y-119278571D01*
X145743809Y-119326190D01*
X145362857Y-119326190D01*
X146886666Y-119802380D02*
X146315238Y-119802380D01*
X146600952Y-119802380D02*
X146600952Y-118802380D01*
X146505714Y-118945238D01*
X146410476Y-119040476D01*
X146315238Y-119088095D01*
%TO.C,C1*%
X115327333Y-129530142D02*
X115279714Y-129577761D01*
X115136857Y-129625380D01*
X115041619Y-129625380D01*
X114898761Y-129577761D01*
X114803523Y-129482523D01*
X114755904Y-129387285D01*
X114708285Y-129196809D01*
X114708285Y-129053952D01*
X114755904Y-128863476D01*
X114803523Y-128768238D01*
X114898761Y-128673000D01*
X115041619Y-128625380D01*
X115136857Y-128625380D01*
X115279714Y-128673000D01*
X115327333Y-128720619D01*
X116279714Y-129625380D02*
X115708285Y-129625380D01*
X115994000Y-129625380D02*
X115994000Y-128625380D01*
X115898761Y-128768238D01*
X115803523Y-128863476D01*
X115708285Y-128911095D01*
%TO.C,C3*%
X136917333Y-140833142D02*
X136869714Y-140880761D01*
X136726857Y-140928380D01*
X136631619Y-140928380D01*
X136488761Y-140880761D01*
X136393523Y-140785523D01*
X136345904Y-140690285D01*
X136298285Y-140499809D01*
X136298285Y-140356952D01*
X136345904Y-140166476D01*
X136393523Y-140071238D01*
X136488761Y-139976000D01*
X136631619Y-139928380D01*
X136726857Y-139928380D01*
X136869714Y-139976000D01*
X136917333Y-140023619D01*
X137250666Y-139928380D02*
X137869714Y-139928380D01*
X137536380Y-140309333D01*
X137679238Y-140309333D01*
X137774476Y-140356952D01*
X137822095Y-140404571D01*
X137869714Y-140499809D01*
X137869714Y-140737904D01*
X137822095Y-140833142D01*
X137774476Y-140880761D01*
X137679238Y-140928380D01*
X137393523Y-140928380D01*
X137298285Y-140880761D01*
X137250666Y-140833142D01*
%TO.C,C4*%
X139457333Y-140833142D02*
X139409714Y-140880761D01*
X139266857Y-140928380D01*
X139171619Y-140928380D01*
X139028761Y-140880761D01*
X138933523Y-140785523D01*
X138885904Y-140690285D01*
X138838285Y-140499809D01*
X138838285Y-140356952D01*
X138885904Y-140166476D01*
X138933523Y-140071238D01*
X139028761Y-139976000D01*
X139171619Y-139928380D01*
X139266857Y-139928380D01*
X139409714Y-139976000D01*
X139457333Y-140023619D01*
X140314476Y-140261714D02*
X140314476Y-140928380D01*
X140076380Y-139880761D02*
X139838285Y-140595047D01*
X140457333Y-140595047D01*
%TO.C,C6*%
X140727333Y-129657142D02*
X140679714Y-129704761D01*
X140536857Y-129752380D01*
X140441619Y-129752380D01*
X140298761Y-129704761D01*
X140203523Y-129609523D01*
X140155904Y-129514285D01*
X140108285Y-129323809D01*
X140108285Y-129180952D01*
X140155904Y-128990476D01*
X140203523Y-128895238D01*
X140298761Y-128800000D01*
X140441619Y-128752380D01*
X140536857Y-128752380D01*
X140679714Y-128800000D01*
X140727333Y-128847619D01*
X141584476Y-128752380D02*
X141394000Y-128752380D01*
X141298761Y-128800000D01*
X141251142Y-128847619D01*
X141155904Y-128990476D01*
X141108285Y-129180952D01*
X141108285Y-129561904D01*
X141155904Y-129657142D01*
X141203523Y-129704761D01*
X141298761Y-129752380D01*
X141489238Y-129752380D01*
X141584476Y-129704761D01*
X141632095Y-129657142D01*
X141679714Y-129561904D01*
X141679714Y-129323809D01*
X141632095Y-129228571D01*
X141584476Y-129180952D01*
X141489238Y-129133333D01*
X141298761Y-129133333D01*
X141203523Y-129180952D01*
X141155904Y-129228571D01*
X141108285Y-129323809D01*
%TO.C,C8*%
X115327333Y-126736142D02*
X115279714Y-126783761D01*
X115136857Y-126831380D01*
X115041619Y-126831380D01*
X114898761Y-126783761D01*
X114803523Y-126688523D01*
X114755904Y-126593285D01*
X114708285Y-126402809D01*
X114708285Y-126259952D01*
X114755904Y-126069476D01*
X114803523Y-125974238D01*
X114898761Y-125879000D01*
X115041619Y-125831380D01*
X115136857Y-125831380D01*
X115279714Y-125879000D01*
X115327333Y-125926619D01*
X115898761Y-126259952D02*
X115803523Y-126212333D01*
X115755904Y-126164714D01*
X115708285Y-126069476D01*
X115708285Y-126021857D01*
X115755904Y-125926619D01*
X115803523Y-125879000D01*
X115898761Y-125831380D01*
X116089238Y-125831380D01*
X116184476Y-125879000D01*
X116232095Y-125926619D01*
X116279714Y-126021857D01*
X116279714Y-126069476D01*
X116232095Y-126164714D01*
X116184476Y-126212333D01*
X116089238Y-126259952D01*
X115898761Y-126259952D01*
X115803523Y-126307571D01*
X115755904Y-126355190D01*
X115708285Y-126450428D01*
X115708285Y-126640904D01*
X115755904Y-126736142D01*
X115803523Y-126783761D01*
X115898761Y-126831380D01*
X116089238Y-126831380D01*
X116184476Y-126783761D01*
X116232095Y-126736142D01*
X116279714Y-126640904D01*
X116279714Y-126450428D01*
X116232095Y-126355190D01*
X116184476Y-126307571D01*
X116089238Y-126259952D01*
%TO.C,C9*%
X115200333Y-123942142D02*
X115152714Y-123989761D01*
X115009857Y-124037380D01*
X114914619Y-124037380D01*
X114771761Y-123989761D01*
X114676523Y-123894523D01*
X114628904Y-123799285D01*
X114581285Y-123608809D01*
X114581285Y-123465952D01*
X114628904Y-123275476D01*
X114676523Y-123180238D01*
X114771761Y-123085000D01*
X114914619Y-123037380D01*
X115009857Y-123037380D01*
X115152714Y-123085000D01*
X115200333Y-123132619D01*
X115676523Y-124037380D02*
X115867000Y-124037380D01*
X115962238Y-123989761D01*
X116009857Y-123942142D01*
X116105095Y-123799285D01*
X116152714Y-123608809D01*
X116152714Y-123227857D01*
X116105095Y-123132619D01*
X116057476Y-123085000D01*
X115962238Y-123037380D01*
X115771761Y-123037380D01*
X115676523Y-123085000D01*
X115628904Y-123132619D01*
X115581285Y-123227857D01*
X115581285Y-123465952D01*
X115628904Y-123561190D01*
X115676523Y-123608809D01*
X115771761Y-123656428D01*
X115962238Y-123656428D01*
X116057476Y-123608809D01*
X116105095Y-123561190D01*
X116152714Y-123465952D01*
%TO.C,C11*%
X140505142Y-124704142D02*
X140457523Y-124751761D01*
X140314666Y-124799380D01*
X140219428Y-124799380D01*
X140076571Y-124751761D01*
X139981333Y-124656523D01*
X139933714Y-124561285D01*
X139886095Y-124370809D01*
X139886095Y-124227952D01*
X139933714Y-124037476D01*
X139981333Y-123942238D01*
X140076571Y-123847000D01*
X140219428Y-123799380D01*
X140314666Y-123799380D01*
X140457523Y-123847000D01*
X140505142Y-123894619D01*
X141457523Y-124799380D02*
X140886095Y-124799380D01*
X141171809Y-124799380D02*
X141171809Y-123799380D01*
X141076571Y-123942238D01*
X140981333Y-124037476D01*
X140886095Y-124085095D01*
X142409904Y-124799380D02*
X141838476Y-124799380D01*
X142124190Y-124799380D02*
X142124190Y-123799380D01*
X142028952Y-123942238D01*
X141933714Y-124037476D01*
X141838476Y-124085095D01*
%TO.C,P1*%
X159181904Y-132122380D02*
X159181904Y-131122380D01*
X159562857Y-131122380D01*
X159658095Y-131170000D01*
X159705714Y-131217619D01*
X159753333Y-131312857D01*
X159753333Y-131455714D01*
X159705714Y-131550952D01*
X159658095Y-131598571D01*
X159562857Y-131646190D01*
X159181904Y-131646190D01*
X160705714Y-132122380D02*
X160134285Y-132122380D01*
X160420000Y-132122380D02*
X160420000Y-131122380D01*
X160324761Y-131265238D01*
X160229523Y-131360476D01*
X160134285Y-131408095D01*
%TO.C,R1*%
X140600333Y-122386380D02*
X140267000Y-121910190D01*
X140028904Y-122386380D02*
X140028904Y-121386380D01*
X140409857Y-121386380D01*
X140505095Y-121434000D01*
X140552714Y-121481619D01*
X140600333Y-121576857D01*
X140600333Y-121719714D01*
X140552714Y-121814952D01*
X140505095Y-121862571D01*
X140409857Y-121910190D01*
X140028904Y-121910190D01*
X141552714Y-122386380D02*
X140981285Y-122386380D01*
X141267000Y-122386380D02*
X141267000Y-121386380D01*
X141171761Y-121529238D01*
X141076523Y-121624476D01*
X140981285Y-121672095D01*
%TO.C,R2*%
X140600333Y-127212380D02*
X140267000Y-126736190D01*
X140028904Y-127212380D02*
X140028904Y-126212380D01*
X140409857Y-126212380D01*
X140505095Y-126260000D01*
X140552714Y-126307619D01*
X140600333Y-126402857D01*
X140600333Y-126545714D01*
X140552714Y-126640952D01*
X140505095Y-126688571D01*
X140409857Y-126736190D01*
X140028904Y-126736190D01*
X140981285Y-126307619D02*
X141028904Y-126260000D01*
X141124142Y-126212380D01*
X141362238Y-126212380D01*
X141457476Y-126260000D01*
X141505095Y-126307619D01*
X141552714Y-126402857D01*
X141552714Y-126498095D01*
X141505095Y-126640952D01*
X140933666Y-127212380D01*
X141552714Y-127212380D01*
%TO.C,R3*%
X115073333Y-99272380D02*
X114740000Y-98796190D01*
X114501904Y-99272380D02*
X114501904Y-98272380D01*
X114882857Y-98272380D01*
X114978095Y-98320000D01*
X115025714Y-98367619D01*
X115073333Y-98462857D01*
X115073333Y-98605714D01*
X115025714Y-98700952D01*
X114978095Y-98748571D01*
X114882857Y-98796190D01*
X114501904Y-98796190D01*
X115406666Y-98272380D02*
X116025714Y-98272380D01*
X115692380Y-98653333D01*
X115835238Y-98653333D01*
X115930476Y-98700952D01*
X115978095Y-98748571D01*
X116025714Y-98843809D01*
X116025714Y-99081904D01*
X115978095Y-99177142D01*
X115930476Y-99224761D01*
X115835238Y-99272380D01*
X115549523Y-99272380D01*
X115454285Y-99224761D01*
X115406666Y-99177142D01*
%TO.C,R4*%
X115073333Y-101879380D02*
X114740000Y-101403190D01*
X114501904Y-101879380D02*
X114501904Y-100879380D01*
X114882857Y-100879380D01*
X114978095Y-100927000D01*
X115025714Y-100974619D01*
X115073333Y-101069857D01*
X115073333Y-101212714D01*
X115025714Y-101307952D01*
X114978095Y-101355571D01*
X114882857Y-101403190D01*
X114501904Y-101403190D01*
X115930476Y-101212714D02*
X115930476Y-101879380D01*
X115692380Y-100831761D02*
X115454285Y-101546047D01*
X116073333Y-101546047D01*
%TO.C,R5*%
X115073333Y-104763380D02*
X114740000Y-104287190D01*
X114501904Y-104763380D02*
X114501904Y-103763380D01*
X114882857Y-103763380D01*
X114978095Y-103811000D01*
X115025714Y-103858619D01*
X115073333Y-103953857D01*
X115073333Y-104096714D01*
X115025714Y-104191952D01*
X114978095Y-104239571D01*
X114882857Y-104287190D01*
X114501904Y-104287190D01*
X115978095Y-103763380D02*
X115501904Y-103763380D01*
X115454285Y-104239571D01*
X115501904Y-104191952D01*
X115597142Y-104144333D01*
X115835238Y-104144333D01*
X115930476Y-104191952D01*
X115978095Y-104239571D01*
X116025714Y-104334809D01*
X116025714Y-104572904D01*
X115978095Y-104668142D01*
X115930476Y-104715761D01*
X115835238Y-104763380D01*
X115597142Y-104763380D01*
X115501904Y-104715761D01*
X115454285Y-104668142D01*
%TO.C,R6*%
X115073333Y-107400380D02*
X114740000Y-106924190D01*
X114501904Y-107400380D02*
X114501904Y-106400380D01*
X114882857Y-106400380D01*
X114978095Y-106448000D01*
X115025714Y-106495619D01*
X115073333Y-106590857D01*
X115073333Y-106733714D01*
X115025714Y-106828952D01*
X114978095Y-106876571D01*
X114882857Y-106924190D01*
X114501904Y-106924190D01*
X115930476Y-106400380D02*
X115740000Y-106400380D01*
X115644761Y-106448000D01*
X115597142Y-106495619D01*
X115501904Y-106638476D01*
X115454285Y-106828952D01*
X115454285Y-107209904D01*
X115501904Y-107305142D01*
X115549523Y-107352761D01*
X115644761Y-107400380D01*
X115835238Y-107400380D01*
X115930476Y-107352761D01*
X115978095Y-107305142D01*
X116025714Y-107209904D01*
X116025714Y-106971809D01*
X115978095Y-106876571D01*
X115930476Y-106828952D01*
X115835238Y-106781333D01*
X115644761Y-106781333D01*
X115549523Y-106828952D01*
X115501904Y-106876571D01*
X115454285Y-106971809D01*
%TO.C,R7*%
X115073333Y-110194380D02*
X114740000Y-109718190D01*
X114501904Y-110194380D02*
X114501904Y-109194380D01*
X114882857Y-109194380D01*
X114978095Y-109242000D01*
X115025714Y-109289619D01*
X115073333Y-109384857D01*
X115073333Y-109527714D01*
X115025714Y-109622952D01*
X114978095Y-109670571D01*
X114882857Y-109718190D01*
X114501904Y-109718190D01*
X115406666Y-109194380D02*
X116073333Y-109194380D01*
X115644761Y-110194380D01*
%TO.C,R8*%
X115073333Y-112988380D02*
X114740000Y-112512190D01*
X114501904Y-112988380D02*
X114501904Y-111988380D01*
X114882857Y-111988380D01*
X114978095Y-112036000D01*
X115025714Y-112083619D01*
X115073333Y-112178857D01*
X115073333Y-112321714D01*
X115025714Y-112416952D01*
X114978095Y-112464571D01*
X114882857Y-112512190D01*
X114501904Y-112512190D01*
X115644761Y-112416952D02*
X115549523Y-112369333D01*
X115501904Y-112321714D01*
X115454285Y-112226476D01*
X115454285Y-112178857D01*
X115501904Y-112083619D01*
X115549523Y-112036000D01*
X115644761Y-111988380D01*
X115835238Y-111988380D01*
X115930476Y-112036000D01*
X115978095Y-112083619D01*
X116025714Y-112178857D01*
X116025714Y-112226476D01*
X115978095Y-112321714D01*
X115930476Y-112369333D01*
X115835238Y-112416952D01*
X115644761Y-112416952D01*
X115549523Y-112464571D01*
X115501904Y-112512190D01*
X115454285Y-112607428D01*
X115454285Y-112797904D01*
X115501904Y-112893142D01*
X115549523Y-112940761D01*
X115644761Y-112988380D01*
X115835238Y-112988380D01*
X115930476Y-112940761D01*
X115978095Y-112893142D01*
X116025714Y-112797904D01*
X116025714Y-112607428D01*
X115978095Y-112512190D01*
X115930476Y-112464571D01*
X115835238Y-112416952D01*
%TO.C,R9*%
X115073333Y-115782380D02*
X114740000Y-115306190D01*
X114501904Y-115782380D02*
X114501904Y-114782380D01*
X114882857Y-114782380D01*
X114978095Y-114830000D01*
X115025714Y-114877619D01*
X115073333Y-114972857D01*
X115073333Y-115115714D01*
X115025714Y-115210952D01*
X114978095Y-115258571D01*
X114882857Y-115306190D01*
X114501904Y-115306190D01*
X115549523Y-115782380D02*
X115740000Y-115782380D01*
X115835238Y-115734761D01*
X115882857Y-115687142D01*
X115978095Y-115544285D01*
X116025714Y-115353809D01*
X116025714Y-114972857D01*
X115978095Y-114877619D01*
X115930476Y-114830000D01*
X115835238Y-114782380D01*
X115644761Y-114782380D01*
X115549523Y-114830000D01*
X115501904Y-114877619D01*
X115454285Y-114972857D01*
X115454285Y-115210952D01*
X115501904Y-115306190D01*
X115549523Y-115353809D01*
X115644761Y-115401428D01*
X115835238Y-115401428D01*
X115930476Y-115353809D01*
X115978095Y-115306190D01*
X116025714Y-115210952D01*
%TO.C,R10*%
X114597142Y-118449380D02*
X114263809Y-117973190D01*
X114025714Y-118449380D02*
X114025714Y-117449380D01*
X114406666Y-117449380D01*
X114501904Y-117497000D01*
X114549523Y-117544619D01*
X114597142Y-117639857D01*
X114597142Y-117782714D01*
X114549523Y-117877952D01*
X114501904Y-117925571D01*
X114406666Y-117973190D01*
X114025714Y-117973190D01*
X115549523Y-118449380D02*
X114978095Y-118449380D01*
X115263809Y-118449380D02*
X115263809Y-117449380D01*
X115168571Y-117592238D01*
X115073333Y-117687476D01*
X114978095Y-117735095D01*
X116168571Y-117449380D02*
X116263809Y-117449380D01*
X116359047Y-117497000D01*
X116406666Y-117544619D01*
X116454285Y-117639857D01*
X116501904Y-117830333D01*
X116501904Y-118068428D01*
X116454285Y-118258904D01*
X116406666Y-118354142D01*
X116359047Y-118401761D01*
X116263809Y-118449380D01*
X116168571Y-118449380D01*
X116073333Y-118401761D01*
X116025714Y-118354142D01*
X115978095Y-118258904D01*
X115930476Y-118068428D01*
X115930476Y-117830333D01*
X115978095Y-117639857D01*
X116025714Y-117544619D01*
X116073333Y-117497000D01*
X116168571Y-117449380D01*
%TO.C,R11*%
X114597142Y-121243380D02*
X114263809Y-120767190D01*
X114025714Y-121243380D02*
X114025714Y-120243380D01*
X114406666Y-120243380D01*
X114501904Y-120291000D01*
X114549523Y-120338619D01*
X114597142Y-120433857D01*
X114597142Y-120576714D01*
X114549523Y-120671952D01*
X114501904Y-120719571D01*
X114406666Y-120767190D01*
X114025714Y-120767190D01*
X115549523Y-121243380D02*
X114978095Y-121243380D01*
X115263809Y-121243380D02*
X115263809Y-120243380D01*
X115168571Y-120386238D01*
X115073333Y-120481476D01*
X114978095Y-120529095D01*
X116501904Y-121243380D02*
X115930476Y-121243380D01*
X116216190Y-121243380D02*
X116216190Y-120243380D01*
X116120952Y-120386238D01*
X116025714Y-120481476D01*
X115930476Y-120529095D01*
%TO.C,R12*%
X128948142Y-101812380D02*
X128614809Y-101336190D01*
X128376714Y-101812380D02*
X128376714Y-100812380D01*
X128757666Y-100812380D01*
X128852904Y-100860000D01*
X128900523Y-100907619D01*
X128948142Y-101002857D01*
X128948142Y-101145714D01*
X128900523Y-101240952D01*
X128852904Y-101288571D01*
X128757666Y-101336190D01*
X128376714Y-101336190D01*
X129900523Y-101812380D02*
X129329095Y-101812380D01*
X129614809Y-101812380D02*
X129614809Y-100812380D01*
X129519571Y-100955238D01*
X129424333Y-101050476D01*
X129329095Y-101098095D01*
X130281476Y-100907619D02*
X130329095Y-100860000D01*
X130424333Y-100812380D01*
X130662428Y-100812380D01*
X130757666Y-100860000D01*
X130805285Y-100907619D01*
X130852904Y-101002857D01*
X130852904Y-101098095D01*
X130805285Y-101240952D01*
X130233857Y-101812380D01*
X130852904Y-101812380D01*
%TO.C,R13*%
X128948142Y-104733380D02*
X128614809Y-104257190D01*
X128376714Y-104733380D02*
X128376714Y-103733380D01*
X128757666Y-103733380D01*
X128852904Y-103781000D01*
X128900523Y-103828619D01*
X128948142Y-103923857D01*
X128948142Y-104066714D01*
X128900523Y-104161952D01*
X128852904Y-104209571D01*
X128757666Y-104257190D01*
X128376714Y-104257190D01*
X129900523Y-104733380D02*
X129329095Y-104733380D01*
X129614809Y-104733380D02*
X129614809Y-103733380D01*
X129519571Y-103876238D01*
X129424333Y-103971476D01*
X129329095Y-104019095D01*
X130233857Y-103733380D02*
X130852904Y-103733380D01*
X130519571Y-104114333D01*
X130662428Y-104114333D01*
X130757666Y-104161952D01*
X130805285Y-104209571D01*
X130852904Y-104304809D01*
X130852904Y-104542904D01*
X130805285Y-104638142D01*
X130757666Y-104685761D01*
X130662428Y-104733380D01*
X130376714Y-104733380D01*
X130281476Y-104685761D01*
X130233857Y-104638142D01*
%TO.C,R14*%
X128948142Y-107400380D02*
X128614809Y-106924190D01*
X128376714Y-107400380D02*
X128376714Y-106400380D01*
X128757666Y-106400380D01*
X128852904Y-106448000D01*
X128900523Y-106495619D01*
X128948142Y-106590857D01*
X128948142Y-106733714D01*
X128900523Y-106828952D01*
X128852904Y-106876571D01*
X128757666Y-106924190D01*
X128376714Y-106924190D01*
X129900523Y-107400380D02*
X129329095Y-107400380D01*
X129614809Y-107400380D02*
X129614809Y-106400380D01*
X129519571Y-106543238D01*
X129424333Y-106638476D01*
X129329095Y-106686095D01*
X130757666Y-106733714D02*
X130757666Y-107400380D01*
X130519571Y-106352761D02*
X130281476Y-107067047D01*
X130900523Y-107067047D01*
%TO.C,R15*%
X128948142Y-110194380D02*
X128614809Y-109718190D01*
X128376714Y-110194380D02*
X128376714Y-109194380D01*
X128757666Y-109194380D01*
X128852904Y-109242000D01*
X128900523Y-109289619D01*
X128948142Y-109384857D01*
X128948142Y-109527714D01*
X128900523Y-109622952D01*
X128852904Y-109670571D01*
X128757666Y-109718190D01*
X128376714Y-109718190D01*
X129900523Y-110194380D02*
X129329095Y-110194380D01*
X129614809Y-110194380D02*
X129614809Y-109194380D01*
X129519571Y-109337238D01*
X129424333Y-109432476D01*
X129329095Y-109480095D01*
X130805285Y-109194380D02*
X130329095Y-109194380D01*
X130281476Y-109670571D01*
X130329095Y-109622952D01*
X130424333Y-109575333D01*
X130662428Y-109575333D01*
X130757666Y-109622952D01*
X130805285Y-109670571D01*
X130852904Y-109765809D01*
X130852904Y-110003904D01*
X130805285Y-110099142D01*
X130757666Y-110146761D01*
X130662428Y-110194380D01*
X130424333Y-110194380D01*
X130329095Y-110146761D01*
X130281476Y-110099142D01*
%TO.C,R16*%
X128948142Y-112988380D02*
X128614809Y-112512190D01*
X128376714Y-112988380D02*
X128376714Y-111988380D01*
X128757666Y-111988380D01*
X128852904Y-112036000D01*
X128900523Y-112083619D01*
X128948142Y-112178857D01*
X128948142Y-112321714D01*
X128900523Y-112416952D01*
X128852904Y-112464571D01*
X128757666Y-112512190D01*
X128376714Y-112512190D01*
X129900523Y-112988380D02*
X129329095Y-112988380D01*
X129614809Y-112988380D02*
X129614809Y-111988380D01*
X129519571Y-112131238D01*
X129424333Y-112226476D01*
X129329095Y-112274095D01*
X130757666Y-111988380D02*
X130567190Y-111988380D01*
X130471952Y-112036000D01*
X130424333Y-112083619D01*
X130329095Y-112226476D01*
X130281476Y-112416952D01*
X130281476Y-112797904D01*
X130329095Y-112893142D01*
X130376714Y-112940761D01*
X130471952Y-112988380D01*
X130662428Y-112988380D01*
X130757666Y-112940761D01*
X130805285Y-112893142D01*
X130852904Y-112797904D01*
X130852904Y-112559809D01*
X130805285Y-112464571D01*
X130757666Y-112416952D01*
X130662428Y-112369333D01*
X130471952Y-112369333D01*
X130376714Y-112416952D01*
X130329095Y-112464571D01*
X130281476Y-112559809D01*
%TO.C,R17*%
X128948142Y-115655380D02*
X128614809Y-115179190D01*
X128376714Y-115655380D02*
X128376714Y-114655380D01*
X128757666Y-114655380D01*
X128852904Y-114703000D01*
X128900523Y-114750619D01*
X128948142Y-114845857D01*
X128948142Y-114988714D01*
X128900523Y-115083952D01*
X128852904Y-115131571D01*
X128757666Y-115179190D01*
X128376714Y-115179190D01*
X129900523Y-115655380D02*
X129329095Y-115655380D01*
X129614809Y-115655380D02*
X129614809Y-114655380D01*
X129519571Y-114798238D01*
X129424333Y-114893476D01*
X129329095Y-114941095D01*
X130233857Y-114655380D02*
X130900523Y-114655380D01*
X130471952Y-115655380D01*
%TO.C,R18*%
X128948142Y-118449380D02*
X128614809Y-117973190D01*
X128376714Y-118449380D02*
X128376714Y-117449380D01*
X128757666Y-117449380D01*
X128852904Y-117497000D01*
X128900523Y-117544619D01*
X128948142Y-117639857D01*
X128948142Y-117782714D01*
X128900523Y-117877952D01*
X128852904Y-117925571D01*
X128757666Y-117973190D01*
X128376714Y-117973190D01*
X129900523Y-118449380D02*
X129329095Y-118449380D01*
X129614809Y-118449380D02*
X129614809Y-117449380D01*
X129519571Y-117592238D01*
X129424333Y-117687476D01*
X129329095Y-117735095D01*
X130471952Y-117877952D02*
X130376714Y-117830333D01*
X130329095Y-117782714D01*
X130281476Y-117687476D01*
X130281476Y-117639857D01*
X130329095Y-117544619D01*
X130376714Y-117497000D01*
X130471952Y-117449380D01*
X130662428Y-117449380D01*
X130757666Y-117497000D01*
X130805285Y-117544619D01*
X130852904Y-117639857D01*
X130852904Y-117687476D01*
X130805285Y-117782714D01*
X130757666Y-117830333D01*
X130662428Y-117877952D01*
X130471952Y-117877952D01*
X130376714Y-117925571D01*
X130329095Y-117973190D01*
X130281476Y-118068428D01*
X130281476Y-118258904D01*
X130329095Y-118354142D01*
X130376714Y-118401761D01*
X130471952Y-118449380D01*
X130662428Y-118449380D01*
X130757666Y-118401761D01*
X130805285Y-118354142D01*
X130852904Y-118258904D01*
X130852904Y-118068428D01*
X130805285Y-117973190D01*
X130757666Y-117925571D01*
X130662428Y-117877952D01*
%TO.C,R19*%
X128948142Y-121243380D02*
X128614809Y-120767190D01*
X128376714Y-121243380D02*
X128376714Y-120243380D01*
X128757666Y-120243380D01*
X128852904Y-120291000D01*
X128900523Y-120338619D01*
X128948142Y-120433857D01*
X128948142Y-120576714D01*
X128900523Y-120671952D01*
X128852904Y-120719571D01*
X128757666Y-120767190D01*
X128376714Y-120767190D01*
X129900523Y-121243380D02*
X129329095Y-121243380D01*
X129614809Y-121243380D02*
X129614809Y-120243380D01*
X129519571Y-120386238D01*
X129424333Y-120481476D01*
X129329095Y-120529095D01*
X130376714Y-121243380D02*
X130567190Y-121243380D01*
X130662428Y-121195761D01*
X130710047Y-121148142D01*
X130805285Y-121005285D01*
X130852904Y-120814809D01*
X130852904Y-120433857D01*
X130805285Y-120338619D01*
X130757666Y-120291000D01*
X130662428Y-120243380D01*
X130471952Y-120243380D01*
X130376714Y-120291000D01*
X130329095Y-120338619D01*
X130281476Y-120433857D01*
X130281476Y-120671952D01*
X130329095Y-120767190D01*
X130376714Y-120814809D01*
X130471952Y-120862428D01*
X130662428Y-120862428D01*
X130757666Y-120814809D01*
X130805285Y-120767190D01*
X130852904Y-120671952D01*
%TO.C,U1*%
X127178095Y-122712380D02*
X127178095Y-123521904D01*
X127225714Y-123617142D01*
X127273333Y-123664761D01*
X127368571Y-123712380D01*
X127559047Y-123712380D01*
X127654285Y-123664761D01*
X127701904Y-123617142D01*
X127749523Y-123521904D01*
X127749523Y-122712380D01*
X128749523Y-123712380D02*
X128178095Y-123712380D01*
X128463809Y-123712380D02*
X128463809Y-122712380D01*
X128368571Y-122855238D01*
X128273333Y-122950476D01*
X128178095Y-122998095D01*
%TO.C,D1*%
X114882904Y-132292380D02*
X114882904Y-131292380D01*
X115121000Y-131292380D01*
X115263857Y-131340000D01*
X115359095Y-131435238D01*
X115406714Y-131530476D01*
X115454333Y-131720952D01*
X115454333Y-131863809D01*
X115406714Y-132054285D01*
X115359095Y-132149523D01*
X115263857Y-132244761D01*
X115121000Y-132292380D01*
X114882904Y-132292380D01*
X116406714Y-132292380D02*
X115835285Y-132292380D01*
X116121000Y-132292380D02*
X116121000Y-131292380D01*
X116025761Y-131435238D01*
X115930523Y-131530476D01*
X115835285Y-131578095D01*
%TO.C,R20*%
X140886142Y-132292380D02*
X140552809Y-131816190D01*
X140314714Y-132292380D02*
X140314714Y-131292380D01*
X140695666Y-131292380D01*
X140790904Y-131340000D01*
X140838523Y-131387619D01*
X140886142Y-131482857D01*
X140886142Y-131625714D01*
X140838523Y-131720952D01*
X140790904Y-131768571D01*
X140695666Y-131816190D01*
X140314714Y-131816190D01*
X141267095Y-131387619D02*
X141314714Y-131340000D01*
X141409952Y-131292380D01*
X141648047Y-131292380D01*
X141743285Y-131340000D01*
X141790904Y-131387619D01*
X141838523Y-131482857D01*
X141838523Y-131578095D01*
X141790904Y-131720952D01*
X141219476Y-132292380D01*
X141838523Y-132292380D01*
X142457571Y-131292380D02*
X142552809Y-131292380D01*
X142648047Y-131340000D01*
X142695666Y-131387619D01*
X142743285Y-131482857D01*
X142790904Y-131673333D01*
X142790904Y-131911428D01*
X142743285Y-132101904D01*
X142695666Y-132197142D01*
X142648047Y-132244761D01*
X142552809Y-132292380D01*
X142457571Y-132292380D01*
X142362333Y-132244761D01*
X142314714Y-132197142D01*
X142267095Y-132101904D01*
X142219476Y-131911428D01*
X142219476Y-131673333D01*
X142267095Y-131482857D01*
X142314714Y-131387619D01*
X142362333Y-131340000D01*
X142457571Y-131292380D01*
%TO.C,C12*%
X147490142Y-133467142D02*
X147442523Y-133514761D01*
X147299666Y-133562380D01*
X147204428Y-133562380D01*
X147061571Y-133514761D01*
X146966333Y-133419523D01*
X146918714Y-133324285D01*
X146871095Y-133133809D01*
X146871095Y-132990952D01*
X146918714Y-132800476D01*
X146966333Y-132705238D01*
X147061571Y-132610000D01*
X147204428Y-132562380D01*
X147299666Y-132562380D01*
X147442523Y-132610000D01*
X147490142Y-132657619D01*
X148442523Y-133562380D02*
X147871095Y-133562380D01*
X148156809Y-133562380D02*
X148156809Y-132562380D01*
X148061571Y-132705238D01*
X147966333Y-132800476D01*
X147871095Y-132848095D01*
X148823476Y-132657619D02*
X148871095Y-132610000D01*
X148966333Y-132562380D01*
X149204428Y-132562380D01*
X149299666Y-132610000D01*
X149347285Y-132657619D01*
X149394904Y-132752857D01*
X149394904Y-132848095D01*
X149347285Y-132990952D01*
X148775857Y-133562380D01*
X149394904Y-133562380D01*
%TD*%
M02*
