%TF.GenerationSoftware,KiCad,Pcbnew,(5.1.9)-1*%
%TF.CreationDate,2021-01-10T22:28:58+11:00*%
%TF.ProjectId,pcb-covox-amp,7063622d-636f-4766-9f78-2d616d702e6b,3*%
%TF.SameCoordinates,Original*%
%TF.FileFunction,Paste,Top*%
%TF.FilePolarity,Positive*%
%FSLAX46Y46*%
G04 Gerber Fmt 4.6, Leading zero omitted, Abs format (unit mm)*
G04 Created by KiCad (PCBNEW (5.1.9)-1) date 2021-01-10 22:28:58*
%MOMM*%
%LPD*%
G01*
G04 APERTURE LIST*
%ADD10R,2.600000X1.600000*%
%ADD11R,4.000000X2.500000*%
%ADD12C,2.181860*%
%ADD13R,3.480000X1.846667*%
%ADD14R,1.500000X1.250000*%
%ADD15R,1.250000X1.500000*%
%ADD16R,1.350000X0.400000*%
%ADD17R,1.500000X1.300000*%
%ADD18R,1.550000X0.600000*%
%ADD19R,1.198880X1.198880*%
G04 APERTURE END LIST*
D10*
%TO.C,C10*%
X138503000Y-99582000D03*
X134903000Y-99582000D03*
%TD*%
%TO.C,C5*%
X138757000Y-117743000D03*
X135157000Y-117743000D03*
%TD*%
D11*
%TO.C,C7*%
X137783000Y-109107000D03*
X145783000Y-109107000D03*
%TD*%
%TO.C,C2*%
X133337000Y-135650000D03*
X125337000Y-135650000D03*
%TD*%
D12*
%TO.C,X1*%
X158427620Y-130349020D03*
X158427620Y-123351320D03*
X150431700Y-124052360D03*
X150431700Y-129647980D03*
X149730660Y-126848900D03*
%TD*%
D13*
%TO.C,J2*%
X102540000Y-98710000D03*
X102540000Y-101480000D03*
X102540000Y-104250000D03*
X102540000Y-107020000D03*
X102540000Y-109790000D03*
X102540000Y-112560000D03*
X102540000Y-115330000D03*
X102540000Y-118100000D03*
X102540000Y-120870000D03*
X102540000Y-123640000D03*
X102540000Y-126410000D03*
X102540000Y-129180000D03*
X102540000Y-131950000D03*
%TD*%
D14*
%TO.C,C1*%
X117927000Y-129046000D03*
X120427000Y-129046000D03*
%TD*%
D15*
%TO.C,C3*%
X137084000Y-135650000D03*
X137084000Y-138150000D03*
%TD*%
%TO.C,C4*%
X139624000Y-135650000D03*
X139624000Y-138150000D03*
%TD*%
D14*
%TO.C,C6*%
X135961000Y-129300000D03*
X138461000Y-129300000D03*
%TD*%
%TO.C,C8*%
X117927000Y-126379000D03*
X120427000Y-126379000D03*
%TD*%
%TO.C,C9*%
X117927000Y-123585000D03*
X120427000Y-123585000D03*
%TD*%
%TO.C,C11*%
X135834000Y-124347000D03*
X138334000Y-124347000D03*
%TD*%
D16*
%TO.C,P1*%
X156857460Y-138220900D03*
X156857460Y-137570900D03*
X156857460Y-136920900D03*
X156857460Y-136270900D03*
X156857460Y-135620900D03*
%TD*%
D17*
%TO.C,R1*%
X138434000Y-121934000D03*
X135734000Y-121934000D03*
%TD*%
%TO.C,R2*%
X138561000Y-126760000D03*
X135861000Y-126760000D03*
%TD*%
%TO.C,R3*%
X120400000Y-98693000D03*
X117700000Y-98693000D03*
%TD*%
%TO.C,R4*%
X120400000Y-101487000D03*
X117700000Y-101487000D03*
%TD*%
%TO.C,R5*%
X120400000Y-104281000D03*
X117700000Y-104281000D03*
%TD*%
%TO.C,R6*%
X120400000Y-106948000D03*
X117700000Y-106948000D03*
%TD*%
%TO.C,R7*%
X120400000Y-109742000D03*
X117700000Y-109742000D03*
%TD*%
%TO.C,R8*%
X120400000Y-112536000D03*
X117700000Y-112536000D03*
%TD*%
%TO.C,R9*%
X120400000Y-115330000D03*
X117700000Y-115330000D03*
%TD*%
%TO.C,R10*%
X120400000Y-117997000D03*
X117700000Y-117997000D03*
%TD*%
%TO.C,R11*%
X120400000Y-120791000D03*
X117700000Y-120791000D03*
%TD*%
%TO.C,R12*%
X126750000Y-101487000D03*
X124050000Y-101487000D03*
%TD*%
%TO.C,R13*%
X126750000Y-104281000D03*
X124050000Y-104281000D03*
%TD*%
%TO.C,R14*%
X126750000Y-106948000D03*
X124050000Y-106948000D03*
%TD*%
%TO.C,R15*%
X126750000Y-109742000D03*
X124050000Y-109742000D03*
%TD*%
%TO.C,R16*%
X126750000Y-112536000D03*
X124050000Y-112536000D03*
%TD*%
%TO.C,R17*%
X126750000Y-115203000D03*
X124050000Y-115203000D03*
%TD*%
%TO.C,R18*%
X126750000Y-117997000D03*
X124050000Y-117997000D03*
%TD*%
%TO.C,R19*%
X126750000Y-120791000D03*
X124050000Y-120791000D03*
%TD*%
D18*
%TO.C,U1*%
X125240000Y-124855000D03*
X125240000Y-126125000D03*
X125240000Y-127395000D03*
X125240000Y-128665000D03*
X130640000Y-128665000D03*
X130640000Y-127395000D03*
X130640000Y-126125000D03*
X130640000Y-124855000D03*
%TD*%
D19*
%TO.C,D1*%
X120099020Y-131840000D03*
X118000980Y-131840000D03*
%TD*%
D17*
%TO.C,R20*%
X138561000Y-131840000D03*
X135861000Y-131840000D03*
%TD*%
D14*
%TO.C,C12*%
X150820000Y-133110000D03*
X153320000Y-133110000D03*
%TD*%
M02*
